<svg width="24" height="24" viewBox="0 0 24 24" fill="none" xmlns="http://www.w3.org/2000/svg">
<path d="M10.9999 8.5708L7.04994 12.5208C6.86133 12.703 6.60873 12.8037 6.34654 12.8015C6.08434 12.7992 5.83353 12.694 5.64812 12.5086C5.46271 12.3232 5.35754 12.0724 5.35526 11.8102C5.35298 11.548 5.45378 11.2954 5.63594 11.1068L11.2929 5.4498C11.3856 5.35661 11.4958 5.28266 11.6171 5.2322C11.7384 5.18174 11.8685 5.15576 11.9999 5.15576C12.1313 5.15576 12.2615 5.18174 12.3828 5.2322C12.5041 5.28266 12.6143 5.35661 12.7069 5.4498L18.3639 11.1068C18.5416 11.2962 18.6386 11.5474 18.6344 11.8071C18.6301 12.0667 18.5251 12.3146 18.3413 12.4982C18.1576 12.6818 17.9097 12.7867 17.65 12.7907C17.3903 12.7947 17.1393 12.6976 16.9499 12.5198L12.9999 8.5698V18.1558C12.9999 18.421 12.8946 18.6754 12.707 18.8629C12.5195 19.0504 12.2652 19.1558 11.9999 19.1558C11.7347 19.1558 11.4804 19.0504 11.2928 18.8629C11.1053 18.6754 10.9999 18.421 10.9999 18.1558V8.5708Z" fill="#FFF2EB"/>
</svg>
