<svg width="24" height="25" viewBox="0 0 24 25" fill="none" xmlns="http://www.w3.org/2000/svg">
<path d="M11.0002 8.59668L7.05018 12.5467C6.86158 12.7288 6.60898 12.8296 6.34678 12.8273C6.08458 12.8251 5.83377 12.7199 5.64836 12.5345C5.46295 12.3491 5.35778 12.0983 5.35551 11.8361C5.35323 11.5739 5.45402 11.3213 5.63618 11.1327L11.2932 5.47568C11.3858 5.38249 11.496 5.30854 11.6173 5.25808C11.7387 5.20762 11.8688 5.18164 12.0002 5.18164C12.1316 5.18164 12.2617 5.20762 12.383 5.25808C12.5044 5.30854 12.6145 5.38249 12.7072 5.47568L18.3642 11.1327C18.5418 11.3221 18.6388 11.5733 18.6346 11.8329C18.6304 12.0926 18.5253 12.3405 18.3416 12.5241C18.1579 12.7076 17.9099 12.8126 17.6503 12.8166C17.3906 12.8206 17.1395 12.7235 16.9502 12.5457L13.0002 8.59568V18.1817C13.0002 18.4469 12.8948 18.7012 12.7073 18.8888C12.5198 19.0763 12.2654 19.1817 12.0002 19.1817C11.735 19.1817 11.4806 19.0763 11.2931 18.8888C11.1055 18.7012 11.0002 18.4469 11.0002 18.1817V8.59668Z" fill="#272727"/>
</svg>
