<svg width="17" height="16" viewBox="0 0 17 16" fill="none" xmlns="http://www.w3.org/2000/svg">
<path d="M10.912 3.43973L9.98403 6.28773L12.384 4.46373L14.112 3.95173C14.2827 3.90906 14.4 3.88773 14.464 3.88773C14.848 3.88773 15.136 4.18639 15.328 4.78373L16.064 7.05573C16.1494 7.31173 16.192 7.53573 16.192 7.72773C16.192 8.13306 16.0107 8.38906 15.648 8.49573L13.856 9.00773H10.816L13.312 10.7677L14.368 12.2717C14.496 12.4851 14.56 12.6877 14.56 12.8797C14.56 13.0717 14.3467 13.3384 13.92 13.6797L12 15.0877C11.68 15.3437 11.392 15.4717 11.136 15.4717C10.88 15.4717 10.6667 15.3544 10.496 15.1197L9.15203 13.5837L8.44803 10.9597L7.61603 13.6157L6.52803 15.0877C6.35736 15.3224 6.14403 15.4397 5.88803 15.4397C5.65337 15.4397 5.37603 15.3224 5.05603 15.0877L3.10403 13.6797C2.65603 13.3597 2.43203 13.0931 2.43203 12.8797C2.43203 12.6451 2.49603 12.4424 2.62403 12.2717L3.74403 10.7677L6.08003 9.07173H3.16803L1.40803 8.49573C1.02403 8.38906 0.832031 8.13306 0.832031 7.72773C0.832031 7.53573 0.874698 7.32239 0.960031 7.08773L1.69603 4.78373C1.90936 4.16506 2.19736 3.85573 2.56003 3.85573C2.64536 3.85573 2.75203 3.87706 2.88003 3.91973L4.67203 4.49573L7.04003 6.25573L6.11203 3.43973V1.58373C6.11203 1.00773 6.5067 0.719727 7.29603 0.719727H9.72803C10.5174 0.719727 10.912 1.00773 10.912 1.58373V3.43973Z" fill="#471D02"/>
</svg>
