<svg width="32" height="32" viewBox="0 0 32 32" fill="none" xmlns="http://www.w3.org/2000/svg">
<g clip-path="url(#clip0_2264_5273)">
<rect width="32" height="32" rx="16" fill="#F7F5EE"/>
<path d="M15.0823 12.5254L11.1331 16.4746C10.9456 16.6622 10.6912 16.7675 10.426 16.7675C10.1608 16.7675 9.90641 16.6622 9.71888 16.4746C9.53134 16.2871 9.42598 16.0328 9.42598 15.7675C9.42598 15.5023 9.53134 15.248 9.71888 15.0604L15.3757 9.40357C15.4684 9.31036 15.5786 9.23638 15.6999 9.1859C15.8213 9.13542 15.9514 9.10943 16.0828 9.10943C16.2143 9.10943 16.3444 9.13542 16.4658 9.1859C16.5871 9.23638 16.6973 9.31036 16.7899 9.40357L22.4468 15.0604C22.6343 15.248 22.7397 15.5023 22.7397 15.7675C22.7397 16.0328 22.6343 16.2871 22.4468 16.4746C22.2593 16.6622 22.0049 16.7675 21.7397 16.7675C21.4745 16.7675 21.2201 16.6622 21.0326 16.4746L17.0827 12.5247L17.0827 22.1117C17.0826 22.377 16.9771 22.6313 16.7895 22.8188C16.6018 23.0064 16.3474 23.1116 16.0821 23.1115C15.8169 23.1115 15.5625 23.006 15.375 22.8183C15.1875 22.6307 15.0822 22.3763 15.0823 22.111L15.0823 12.5254Z" fill="#272727"/>
</g>
<rect x="0.5" y="0.5" width="31" height="31" rx="15.5" stroke="#272727"/>
<defs>
<clipPath id="clip0_2264_5273">
<rect width="32" height="32" rx="16" fill="white"/>
</clipPath>
</defs>
</svg>
