<svg width="64" height="64" viewBox="0 0 64 64" fill="none" xmlns="http://www.w3.org/2000/svg">
<path d="M53.3333 8H10.6667C9.95942 8 9.28115 8.28095 8.78105 8.78105C8.28095 9.28115 8 9.95942 8 10.6667V17.5733C8 18.968 8.568 20.3387 9.55467 21.3253L24 35.7707V56C24.0005 56.4543 24.117 56.901 24.3384 57.2977C24.5598 57.6945 24.8788 58.0281 25.2652 58.2671C25.6516 58.5061 26.0926 58.6425 26.5464 58.6634C27.0003 58.6844 27.4519 58.5891 27.8587 58.3867L38.5253 53.0533C39.4293 52.6 40 51.6773 40 50.6667V35.7707L54.4453 21.3253C55.432 20.3387 56 18.968 56 17.5733V10.6667C56 9.95942 55.7191 9.28115 55.219 8.78105C54.7189 8.28095 54.0406 8 53.3333 8ZM35.448 32.7813C35.1999 33.0285 35.0031 33.3224 34.869 33.646C34.7349 33.9695 34.6662 34.3164 34.6667 34.6667V49.0187L29.3333 51.6853V34.6667C29.3338 34.3164 29.2651 33.9695 29.131 33.646C28.9969 33.3224 28.8001 33.0285 28.552 32.7813L13.3333 17.5733V13.3333H50.6693L50.6747 17.5547L35.448 32.7813Z" fill="#0C1011"/>
</svg>
