<svg width="64" height="64" viewBox="0 0 64 64" fill="none" xmlns="http://www.w3.org/2000/svg">
<path d="M10.6683 55.9988C10.8809 56.0245 11.0958 56.0245 11.3083 55.9988L21.975 53.3321C22.4482 53.2196 22.8816 52.9799 23.2283 52.6388L56.0017 19.7588C56.995 18.7595 57.5526 17.4078 57.5526 15.9988C57.5526 14.5898 56.995 13.238 56.0017 12.2388L51.7883 7.99877C51.293 7.50289 50.7048 7.10951 50.0573 6.84111C49.4099 6.57272 48.7159 6.43457 48.015 6.43457C47.3141 6.43457 46.6201 6.57272 45.9726 6.84111C45.3252 7.10951 44.737 7.50289 44.2417 7.99877L11.4683 40.7721C11.1238 41.1204 10.8757 41.5523 10.7483 42.0254L8.08166 52.6921C7.98582 53.0371 7.96045 53.3979 8.00707 53.753C8.05369 54.1081 8.17135 54.4501 8.35303 54.7587C8.5347 55.0673 8.77667 55.3361 9.0645 55.5492C9.35233 55.7622 9.68013 55.9151 10.0283 55.9988C10.2409 56.0245 10.4558 56.0245 10.6683 55.9988ZM48.0017 11.7588L52.2417 15.9988L48.0017 20.2388L43.7883 15.9988L48.0017 11.7588ZM15.7617 44.0254L40.0017 19.7588L44.2417 23.9988L19.975 48.2654L14.3483 49.6521L15.7617 44.0254Z" fill="#838383"/>
</svg>
