<svg width="64" height="64" viewBox="0 0 64 64" fill="none" xmlns="http://www.w3.org/2000/svg">
<path d="M26.6673 48.0006C31.4006 47.9997 35.9975 46.4151 39.726 43.4993L51.4487 55.222L55.2193 51.4513L43.4967 39.7286C46.414 35.9998 47.9995 31.4018 48.0007 26.6673C48.0007 14.9047 38.43 5.33398 26.6673 5.33398C14.9047 5.33398 5.33398 14.9047 5.33398 26.6673C5.33398 38.43 14.9047 48.0006 26.6673 48.0006ZM26.6673 10.6673C35.4913 10.6673 42.6673 17.8433 42.6673 26.6673C42.6673 35.4913 35.4913 42.6673 26.6673 42.6673C17.8433 42.6673 10.6673 35.4913 10.6673 26.6673C10.6673 17.8433 17.8433 10.6673 26.6673 10.6673Z" fill="#0C1011"/>
<path d="M30.4322 22.896C31.4429 23.9093 32.0002 25.248 32.0002 26.6667H37.3335C37.3359 25.2651 37.0604 23.877 36.5231 22.5826C35.9857 21.2882 35.1971 20.1131 34.2029 19.1253C30.1655 15.0933 23.1655 15.0933 19.1309 19.1253L22.8962 22.9013C24.9229 20.88 28.4162 20.8853 30.4322 22.896Z" fill="#0C1011"/>
</svg>
