<svg width="64" height="64" viewBox="0 0 64 64" fill="none" xmlns="http://www.w3.org/2000/svg">
<path d="M26.6673 48.0006C31.4006 47.9997 35.9975 46.4151 39.726 43.4993L51.4487 55.222L55.2193 51.4513L43.4967 39.7286C46.414 35.9998 47.9995 31.4018 48.0007 26.6673C48.0007 14.9047 38.43 5.33398 26.6673 5.33398C14.9047 5.33398 5.33398 14.9047 5.33398 26.6673C5.33398 38.43 14.9047 48.0006 26.6673 48.0006ZM26.6673 10.6673C35.4913 10.6673 42.6673 17.8433 42.6673 26.6673C42.6673 35.4913 35.4913 42.6673 26.6673 42.6673C17.8433 42.6673 10.6673 35.4913 10.6673 26.6673C10.6673 17.8433 17.8433 10.6673 26.6673 10.6673Z" fill="#838383"/>
<path d="M30.4321 22.8962C31.4427 23.9096 32.0001 25.2482 32.0001 26.6669H37.3334C37.3358 25.2654 37.0603 23.8773 36.5229 22.5829C35.9856 21.2884 35.197 20.1134 34.2027 19.1256C30.1654 15.0936 23.1654 15.0936 19.1307 19.1256L22.8961 22.9016C24.9227 20.8802 28.4161 20.8856 30.4321 22.8962Z" fill="#838383"/>
</svg>
