<svg width="24" height="24" viewBox="0 0 24 24" fill="none" xmlns="http://www.w3.org/2000/svg">
<path d="M13.829 8.91407H8.24402C7.9788 8.91407 7.72444 8.80871 7.53691 8.62117C7.34937 8.43364 7.24402 8.17928 7.24402 7.91407C7.24402 7.64885 7.34937 7.3945 7.53691 7.20696C7.72444 7.01942 7.9788 6.91407 8.24402 6.91407H16.244C16.3754 6.91367 16.5057 6.93927 16.6272 6.98938C16.7487 7.0395 16.8591 7.11314 16.952 7.20608C17.0449 7.29901 17.1186 7.40941 17.1687 7.53092C17.2188 7.65242 17.2444 7.78263 17.244 7.91407V15.9141C17.244 16.1793 17.1387 16.4336 16.9511 16.6212C16.7636 16.8087 16.5092 16.9141 16.244 16.9141C15.9788 16.9141 15.7244 16.8087 15.5369 16.6212C15.3494 16.4336 15.244 16.1793 15.244 15.9141V10.3281L8.46502 17.1071C8.27737 17.2946 8.02293 17.3999 7.75766 17.3998C7.49239 17.3997 7.23802 17.2942 7.05052 17.1066C6.86301 16.9189 6.75772 16.6645 6.75781 16.3992C6.75791 16.1339 6.86337 15.8796 7.05102 15.6921L13.829 8.91407Z" fill="#F7F5EE"/>
</svg>
