<svg width="24" height="25" viewBox="0 0 24 25" fill="none" xmlns="http://www.w3.org/2000/svg">
<path d="M13.828 8.93995H8.24304C7.97782 8.93995 7.72347 8.83459 7.53593 8.64705C7.3484 8.45952 7.24304 8.20516 7.24304 7.93995C7.24304 7.67473 7.3484 7.42038 7.53593 7.23284C7.72347 7.0453 7.97782 6.93995 8.24304 6.93995H16.243C16.3745 6.93955 16.5047 6.96515 16.6262 7.01526C16.7477 7.06537 16.8581 7.13902 16.951 7.23196C17.044 7.32489 17.1176 7.43529 17.1677 7.55679C17.2178 7.6783 17.2434 7.80851 17.243 7.93995V15.9399C17.243 16.2052 17.1377 16.4595 16.9501 16.6471C16.7626 16.8346 16.5083 16.9399 16.243 16.9399C15.9778 16.9399 15.7235 16.8346 15.5359 16.6471C15.3484 16.4595 15.243 16.2052 15.243 15.9399V10.3539L8.46404 17.1329C8.2764 17.3205 8.02196 17.4257 7.75668 17.4256C7.49141 17.4256 7.23705 17.3201 7.04954 17.1324C6.86203 16.9448 6.75674 16.6904 6.75684 16.4251C6.75693 16.1598 6.8624 15.9055 7.05004 15.7179L13.828 8.93995Z" fill="#272727"/>
</svg>
