<svg width="24" height="24" viewBox="0 0 24 24" fill="none" xmlns="http://www.w3.org/2000/svg">
<path d="M13.828 8.91394H8.24299C7.97778 8.91394 7.72342 8.80859 7.53589 8.62105C7.34835 8.43352 7.24299 8.17916 7.24299 7.91394C7.24299 7.64873 7.34835 7.39437 7.53589 7.20684C7.72342 7.0193 7.97778 6.91394 8.24299 6.91394H16.243C16.3744 6.91355 16.5046 6.93914 16.6261 6.98926C16.7476 7.03937 16.858 7.11302 16.951 7.20595C17.0439 7.29889 17.1176 7.40929 17.1677 7.53079C17.2178 7.6523 17.2434 7.78251 17.243 7.91394V15.9139C17.243 16.1792 17.1376 16.4335 16.9501 16.6211C16.7626 16.8086 16.5082 16.9139 16.243 16.9139C15.9778 16.9139 15.7234 16.8086 15.5359 16.6211C15.3483 16.4335 15.243 16.1792 15.243 15.9139V10.3279L8.46399 17.1069C8.27635 17.2945 8.02191 17.3997 7.75664 17.3996C7.49137 17.3996 7.237 17.2941 7.04949 17.1064C6.86198 16.9188 6.7567 16.6644 6.75679 16.3991C6.75688 16.1338 6.86235 15.8795 7.04999 15.6919L13.828 8.91394Z" fill="#0C1011"/>
</svg>
