<svg width="280" height="280" viewBox="0 0 280 280" fill="none" xmlns="http://www.w3.org/2000/svg">
<path d="M244.999 35H58.3327C55.2385 35 52.271 36.2292 50.0831 38.4171C47.8952 40.605 46.666 43.5725 46.666 46.6667V76.8833C46.666 82.985 49.151 88.9817 53.4677 93.2983L116.666 156.497V245C116.668 246.988 117.178 248.942 118.147 250.678C119.115 252.413 120.511 253.873 122.201 254.919C123.892 255.964 125.821 256.561 127.807 256.653C129.792 256.744 131.768 256.327 133.548 255.442L180.214 232.108C184.169 230.125 186.666 226.088 186.666 221.667V156.497L249.864 93.2983C254.181 88.9817 256.666 82.985 256.666 76.8833V46.6667C256.666 43.5725 255.437 40.605 253.249 38.4171C251.061 36.2292 248.094 35 244.999 35ZM166.751 143.418C165.666 144.5 164.805 145.785 164.218 147.201C163.631 148.617 163.33 150.134 163.333 151.667V214.457L139.999 226.123V151.667C140.002 150.134 139.701 148.617 139.114 147.201C138.527 145.785 137.667 144.5 136.581 143.418L69.9993 76.8833V58.3333H233.344L233.368 76.8017L166.751 143.418Z" fill="#181D1F"/>
</svg>
