<svg width="453" height="508" viewBox="0 0 453 508" fill="none" xmlns="http://www.w3.org/2000/svg">
<path d="M135.902 372.102C135.902 322.065 176.465 281.501 226.503 281.501C276.54 281.501 317.103 322.065 317.103 372.102H135.902Z" fill="#FFF2EB"/>
<path d="M158.555 440.054C158.555 402.527 188.977 372.104 226.505 372.104C264.033 372.104 294.455 402.527 294.455 440.054H158.555Z" fill="#FFF2EB"/>
<path d="M317.098 372.104C342.117 372.104 362.398 351.822 362.398 326.804C362.398 301.785 342.117 281.503 317.098 281.503L317.098 372.104Z" fill="#FFF2EB"/>
<path d="M135.902 372.104C110.883 372.104 90.6016 351.822 90.6016 326.804C90.6016 301.785 110.883 281.503 135.902 281.503L135.902 372.104Z" fill="#FFF2EB"/>
<path d="M317.098 281.501C342.117 281.501 362.398 261.22 362.398 236.201C362.398 211.182 342.117 190.9 317.098 190.9L317.098 281.501Z" fill="#FFF2EB"/>
<path d="M135.902 281.501C110.883 281.501 90.6016 261.22 90.6016 236.201C90.6016 211.182 110.883 190.9 135.902 190.9L135.902 281.501Z" fill="#FFF2EB"/>
<path d="M317.102 190.901C317.102 240.938 276.538 281.501 226.501 281.501C176.464 281.501 135.901 240.938 135.901 190.901L317.102 190.901Z" fill="#FFF2EB"/>
<path d="M181.195 485.353C181.195 460.334 201.477 440.052 226.496 440.052C251.515 440.052 271.797 460.334 271.797 485.353H181.195Z" fill="#FFF2EB"/>
<path d="M294.445 122.954C294.445 160.482 264.023 190.904 226.495 190.904C188.967 190.904 158.545 160.482 158.545 122.954L294.445 122.954Z" fill="#FFF2EB"/>
<path d="M271.797 77.6442C271.797 102.663 251.515 122.945 226.496 122.945C201.477 122.945 181.196 102.663 181.196 77.6442L271.797 77.6442Z" fill="#FFF2EB"/>
<path d="M259.316 44.8844C259.316 63.0101 244.623 77.7039 226.497 77.7039C208.371 77.7039 193.677 63.0101 193.677 44.8844L259.316 44.8844Z" fill="#FFF2EB"/>
<path d="M248.375 23C248.375 35.084 238.579 44.8799 226.495 44.8799C214.411 44.8799 204.615 35.084 204.615 23L248.375 23Z" fill="#FFF2EB"/>
<path d="M237.82 11.7257C237.82 17.9809 232.749 23.0518 226.494 23.0518C220.239 23.0518 215.168 17.9809 215.168 11.7257C215.168 5.47048 220.239 0.399628 226.494 0.399629C232.749 0.399629 237.82 5.47048 237.82 11.7257Z" fill="#F17F3F"/>
<path d="M237.82 496.673C237.82 502.929 232.749 507.999 226.494 507.999C220.239 507.999 215.168 502.929 215.168 496.673C215.168 490.418 220.239 485.347 226.494 485.347C232.749 485.347 237.82 490.418 237.82 496.673Z" fill="#EE24A9"/>
<path d="M441.678 292.823C435.422 292.823 430.352 287.752 430.352 281.497C430.352 275.242 435.422 270.171 441.678 270.171C447.933 270.171 453.004 275.242 453.004 281.497C453.004 287.752 447.933 292.823 441.678 292.823Z" fill="#30CDFF"/>
<path d="M11.3261 292.823C5.07085 292.823 6.32189e-07 287.752 1.41203e-06 281.497C2.19188e-06 275.242 5.07086 270.171 11.3261 270.171C17.5813 270.171 22.6521 275.242 22.6521 281.497C22.6521 287.752 17.5813 292.823 11.3261 292.823Z" fill="#14F3B0"/>
<path d="M407.699 326.8C382.68 326.8 362.398 306.518 362.398 281.499C362.398 256.48 382.68 236.199 407.699 236.199L407.699 326.8Z" fill="#FFF2EB"/>
<path d="M430.354 304.151C417.844 304.151 407.703 294.009 407.703 281.5C407.703 268.99 417.844 258.849 430.354 258.849L430.354 304.151Z" fill="#FFF2EB"/>
<path d="M45.301 236.203C70.3198 236.203 90.6016 256.484 90.6016 281.503C90.6016 306.522 70.3198 326.804 45.3009 326.804L45.301 236.203Z" fill="#FFF2EB"/>
<path d="M22.646 258.846C35.1557 258.846 45.2969 268.988 45.2969 281.497C45.2969 294.007 35.1557 304.148 22.646 304.148L22.646 258.846Z" fill="#FFF2EB"/>
</svg>
