<svg width="453" height="508" viewBox="0 0 453 508" fill="none" xmlns="http://www.w3.org/2000/svg">
<path d="M135.903 372.101C135.903 322.064 176.466 281.501 226.504 281.501C276.541 281.501 317.104 322.064 317.104 372.101H135.903Z" fill="#283233"/>
<path d="M158.556 440.055C158.556 402.527 188.978 372.104 226.506 372.104C264.034 372.104 294.456 402.527 294.456 440.055H158.556Z" fill="#283233"/>
<path d="M317.098 372.104C342.117 372.104 362.398 351.823 362.398 326.804C362.398 301.785 342.117 281.503 317.098 281.503L317.098 372.104Z" fill="#283233"/>
<path d="M135.902 372.104C110.883 372.104 90.6016 351.823 90.6016 326.804C90.6016 301.785 110.883 281.503 135.902 281.503L135.902 372.104Z" fill="#283233"/>
<path d="M317.098 281.501C342.117 281.501 362.398 261.219 362.398 236.2C362.398 211.182 342.117 190.9 317.098 190.9L317.098 281.501Z" fill="#283233"/>
<path d="M135.902 281.501C110.883 281.501 90.6016 261.219 90.6016 236.2C90.6016 211.182 110.883 190.9 135.902 190.9L135.902 281.501Z" fill="#283233"/>
<path d="M317.102 190.901C317.102 240.938 276.538 281.501 226.501 281.501C176.464 281.501 135.901 240.938 135.901 190.901L317.102 190.901Z" fill="#283233"/>
<path d="M181.194 485.352C181.194 460.334 201.476 440.052 226.495 440.052C251.514 440.052 271.796 460.334 271.796 485.352H181.194Z" fill="#283233"/>
<path d="M294.444 122.954C294.444 160.482 264.022 190.904 226.494 190.904C188.966 190.904 158.544 160.482 158.544 122.954L294.444 122.954Z" fill="#283233"/>
<path d="M271.796 77.6437C271.796 102.663 251.514 122.944 226.495 122.944C201.476 122.944 181.195 102.663 181.195 77.6437L271.796 77.6437Z" fill="#283233"/>
<path d="M259.314 44.8846C259.314 63.0103 244.621 77.7041 226.495 77.7041C208.369 77.7041 193.675 63.0103 193.675 44.8846L259.314 44.8846Z" fill="#283233"/>
<path d="M248.376 22.9999C248.376 35.0839 238.58 44.8799 226.496 44.8799C214.412 44.8799 204.616 35.0839 204.616 22.9999L248.376 22.9999Z" fill="#283233"/>
<path d="M237.82 11.7257C237.82 17.9809 232.749 23.0518 226.494 23.0518C220.239 23.0518 215.168 17.9809 215.168 11.7257C215.168 5.47048 220.239 0.399628 226.494 0.399629C232.749 0.399629 237.82 5.47048 237.82 11.7257Z" fill="#F17F3F"/>
<path d="M237.819 496.673C237.819 502.928 232.748 507.999 226.493 507.999C220.238 507.999 215.167 502.928 215.167 496.673C215.167 490.418 220.238 485.347 226.493 485.347C232.748 485.347 237.819 490.418 237.819 496.673Z" fill="#EE24A9"/>
<path d="M441.678 292.823C435.422 292.823 430.352 287.752 430.352 281.497C430.352 275.242 435.422 270.171 441.678 270.171C447.933 270.171 453.004 275.242 453.004 281.497C453.004 287.752 447.933 292.823 441.678 292.823Z" fill="#30CDFF"/>
<path d="M11.3261 292.823C5.07085 292.823 6.32189e-07 287.752 1.41203e-06 281.497C2.19188e-06 275.242 5.07086 270.171 11.3261 270.171C17.5813 270.171 22.6521 275.242 22.6521 281.497C22.6521 287.752 17.5813 292.823 11.3261 292.823Z" fill="#14F3B0"/>
<path d="M407.699 326.8C382.68 326.8 362.398 306.518 362.398 281.499C362.398 256.48 382.68 236.199 407.699 236.199L407.699 326.8Z" fill="#283233"/>
<path d="M430.355 304.15C417.845 304.15 407.704 294.009 407.704 281.5C407.704 268.99 417.845 258.849 430.355 258.849L430.355 304.15Z" fill="#283233"/>
<path d="M45.301 236.202C70.3198 236.202 90.6016 256.484 90.6016 281.503C90.6016 306.522 70.3198 326.803 45.3009 326.803L45.301 236.202Z" fill="#283233"/>
<path d="M22.645 258.846C35.1548 258.846 45.2959 268.987 45.2959 281.497C45.2959 294.006 35.1548 304.147 22.645 304.147L22.645 258.846Z" fill="#283233"/>
</svg>
