<svg width="88" height="37" viewBox="0 0 88 37" fill="none" xmlns="http://www.w3.org/2000/svg">
<path d="M18.45 0C28.6401 9.61969e-07 36.9009 8.26075 36.9009 18.4509C36.9009 28.641 28.6401 36.9018 18.45 36.9018L18.45 0Z" fill="black"/>
<path d="M6.14701 6.14978C12.9405 6.14978 18.4477 11.657 18.4477 18.4505C18.4477 25.244 12.9405 30.7512 6.147 30.7512L6.14701 6.14978Z" fill="black"/>
<path d="M3.07543 15.3757C4.77394 15.3757 6.15086 16.7527 6.15086 18.4512C6.15086 20.1497 4.77394 21.5266 3.07543 21.5266C1.37692 21.5266 -1.37504e-07 20.1497 0 18.4512C1.37518e-07 16.7527 1.37692 15.3757 3.07543 15.3757Z" fill="black"/>
<path d="M69.2805 0C59.0904 9.61969e-07 50.8296 8.26075 50.8296 18.4509C50.8296 28.641 59.0904 36.9018 69.2805 36.9018V0Z" fill="black"/>
<path d="M81.5835 6.14978C74.79 6.14978 69.2827 11.657 69.2827 18.4505C69.2827 25.244 74.79 30.7512 81.5835 30.7512V6.14978Z" fill="black"/>
<path d="M84.655 15.3757C82.9565 15.3757 81.5796 16.7527 81.5796 18.4512C81.5796 20.1497 82.9565 21.5266 84.655 21.5266C86.3536 21.5266 87.7305 20.1497 87.7305 18.4512C87.7305 16.7527 86.3536 15.3757 84.655 15.3757Z" fill="black"/>
</svg>
