<svg width="92" height="37" viewBox="0 0 92 37" fill="none" xmlns="http://www.w3.org/2000/svg">
<path d="M20.4475 -1.7418e-06C30.6377 -7.7983e-07 38.8984 8.26075 38.8984 18.4509V18.4509C38.8984 28.641 30.6377 36.9018 20.4475 36.9018V36.9018L20.4475 -1.7418e-06V-1.7418e-06Z" fill="#FFF2EB"/>
<path d="M7.14458 6.14941C13.9381 6.14941 19.4453 11.6566 19.4453 18.4501V18.4501C19.4453 25.2437 13.9381 30.7509 7.14458 30.7509V30.7509L7.14458 6.14941V6.14941Z" fill="#FFF2EB"/>
<path d="M3.07691 15.375C4.77543 15.375 6.15234 16.7519 6.15234 18.4504V18.4504C6.15234 20.1489 4.77543 21.5259 3.07691 21.5259V21.5259C1.3784 21.5259 0.00148305 20.1489 0.00148319 18.4504V18.4504C0.00148333 16.7519 1.3784 15.375 3.07691 15.375V15.375Z" fill="#FFF2EB"/>
<path d="M71.2829 -1.7418e-06C61.0928 -7.7983e-07 52.832 8.26075 52.832 18.4509V18.4509C52.832 28.641 61.0928 36.9018 71.2829 36.9018V36.9018L71.2829 -1.7418e-06V-1.7418e-06Z" fill="#FFF2EB"/>
<path d="M84.5859 6.14941C77.7924 6.14941 72.2852 11.6566 72.2852 18.4501V18.4501C72.2852 25.2437 77.7924 30.7509 84.5859 30.7509V30.7509L84.5859 6.14941V6.14941Z" fill="#FFF2EB"/>
<path d="M88.6536 15.375C86.955 15.375 85.5781 16.7519 85.5781 18.4504V18.4504C85.5781 20.1489 86.955 21.5259 88.6536 21.5259V21.5259C90.3521 21.5259 91.729 20.1489 91.729 18.4504V18.4504C91.729 16.7519 90.3521 15.375 88.6536 15.375V15.375Z" fill="#FFF2EB"/>
</svg>
