<svg width="49" height="48" viewBox="0 0 49 48" fill="none" xmlns="http://www.w3.org/2000/svg">
<path d="M14.6421 4.28125H34.3604C35.9293 4.28125 37.4339 4.90449 38.5433 6.01386C39.6526 7.12323 40.2759 8.62786 40.2759 10.1967V37.8024C40.2759 39.3713 39.6526 40.8759 38.5433 41.9853C37.4339 43.0946 35.9293 43.7179 34.3604 43.7179H14.6421C13.0732 43.7179 11.5685 43.0946 10.4592 41.9853C9.3498 40.8759 8.72656 39.3713 8.72656 37.8024V10.1967C8.72656 8.62786 9.3498 7.12323 10.4592 6.01386C11.5685 4.90449 13.0732 4.28125 14.6421 4.28125ZM14.6421 8.22491C14.1191 8.22491 13.6176 8.43266 13.2478 8.80245C12.878 9.17224 12.6702 9.67378 12.6702 10.1967V37.8024C12.6702 38.3253 12.878 38.8269 13.2478 39.1967C13.6176 39.5665 14.1191 39.7742 14.6421 39.7742H34.3604C34.8833 39.7742 35.3849 39.5665 35.7547 39.1967C36.1245 38.8269 36.3322 38.3253 36.3322 37.8024V10.1967C36.3322 9.67378 36.1245 9.17224 35.7547 8.80245C35.3849 8.43266 34.8833 8.22491 34.3604 8.22491H14.6421ZM18.5857 10.1967H30.4167C30.9397 10.1967 31.4412 10.4045 31.811 10.7743C32.1808 11.1441 32.3885 11.6456 32.3885 12.1686C32.3885 12.6915 32.1808 13.1931 31.811 13.5629C31.4412 13.9327 30.9397 14.1404 30.4167 14.1404H18.5857C18.0628 14.1404 17.5612 13.9327 17.1914 13.5629C16.8216 13.1931 16.6139 12.6915 16.6139 12.1686C16.6139 11.6456 16.8216 11.1441 17.1914 10.7743C17.5612 10.4045 18.0628 10.1967 18.5857 10.1967ZM18.5857 33.8587H22.5294C23.0523 33.8587 23.5539 34.0665 23.9237 34.4363C24.2935 34.806 24.5012 35.3076 24.5012 35.8305C24.5012 36.3535 24.2935 36.8551 23.9237 37.2248C23.5539 37.5946 23.0523 37.8024 22.5294 37.8024H18.5857C18.0628 37.8024 17.5612 37.5946 17.1914 37.2248C16.8216 36.8551 16.6139 36.3535 16.6139 35.8305C16.6139 35.3076 16.8216 34.806 17.1914 34.4363C17.5612 34.0665 18.0628 33.8587 18.5857 33.8587ZM18.5857 25.9714H30.4167C30.9397 25.9714 31.4412 26.1791 31.811 26.5489C32.1808 26.9187 32.3885 27.4203 32.3885 27.9432C32.3885 28.4662 32.1808 28.9677 31.811 29.3375C31.4412 29.7073 30.9397 29.9151 30.4167 29.9151H18.5857C18.0628 29.9151 17.5612 29.7073 17.1914 29.3375C16.8216 28.9677 16.6139 28.4662 16.6139 27.9432C16.6139 27.4203 16.8216 26.9187 17.1914 26.5489C17.5612 26.1791 18.0628 25.9714 18.5857 25.9714ZM18.5857 18.0841H30.4167C30.9397 18.0841 31.4412 18.2918 31.811 18.6616C32.1808 19.0314 32.3885 19.5329 32.3885 20.0559C32.3885 20.5789 32.1808 21.0804 31.811 21.4502C31.4412 21.82 30.9397 22.0277 30.4167 22.0277H18.5857C18.0628 22.0277 17.5612 21.82 17.1914 21.4502C16.8216 21.0804 16.6139 20.5789 16.6139 20.0559C16.6139 19.5329 16.8216 19.0314 17.1914 18.6616C17.5612 18.2918 18.0628 18.0841 18.5857 18.0841Z" fill="#272727"/>
</svg>
