<svg width="49" height="48" viewBox="0 0 49 48" fill="none" xmlns="http://www.w3.org/2000/svg">
<path d="M22.5302 8.22491V19.9336L20.2784 21.0024C18.2556 21.9614 16.6193 23.5803 15.6388 25.5928C14.6584 27.6053 14.3919 29.8916 14.8835 32.0757C15.375 34.2597 16.5951 36.2114 18.3433 37.6099C20.0914 39.0083 22.2634 39.7702 24.5021 39.7702C26.7407 39.7702 28.9127 39.0083 30.6608 37.6099C32.409 36.2114 33.6291 34.2597 34.1206 32.0757C34.6122 29.8916 34.3458 27.6053 33.3653 25.5928C32.3848 23.5803 30.7485 21.9614 28.7257 21.0024L26.4739 19.9336V8.22491H22.5302ZM18.5866 17.4412V4.28125H30.4175V17.4412C33.249 18.7843 35.5392 21.051 36.9114 23.8685C38.2836 26.686 38.6561 29.8866 37.9678 32.944C37.2794 36.0013 35.5711 38.7334 33.1238 40.691C30.6765 42.6486 27.6359 43.715 24.5021 43.715C21.3682 43.715 18.3276 42.6486 15.8803 40.691C13.433 38.7334 11.7247 36.0013 11.0363 32.944C10.348 29.8866 10.7205 26.686 12.0927 23.8685C13.4649 21.051 15.7551 18.7843 18.5866 17.4412ZM17.6697 25.9714H31.3344C32.026 27.1705 32.3898 28.5304 32.3894 29.9146C32.3889 31.2989 32.0242 32.6586 31.3318 33.8572C30.6394 35.0558 29.6438 36.0511 28.4449 36.743C27.2461 37.435 25.8863 37.7993 24.5021 37.7993C23.1178 37.7993 21.758 37.435 20.5592 36.743C19.3603 36.0511 18.3647 35.0558 17.6723 33.8572C16.9799 32.6586 16.6152 31.2989 16.6147 29.9146C16.6143 28.5304 16.9781 27.1705 17.6697 25.9714ZM18.5866 4.28125H30.4175C30.9405 4.28125 31.442 4.489 31.8118 4.85879C32.1816 5.22858 32.3894 5.73012 32.3894 6.25308C32.3894 6.77604 32.1816 7.27759 31.8118 7.64738C31.442 8.01717 30.9405 8.22491 30.4175 8.22491H18.5866C18.0636 8.22491 17.5621 8.01717 17.1923 7.64738C16.8225 7.27759 16.6147 6.77604 16.6147 6.25308C16.6147 5.73012 16.8225 5.22858 17.1923 4.85879C17.5621 4.489 18.0636 4.28125 18.5866 4.28125Z" fill="#272727"/>
</svg>
