<svg width="49" height="48" viewBox="0 0 49 48" fill="none" xmlns="http://www.w3.org/2000/svg">
<path d="M10.3724 26.8298C13.1777 26.8298 15.4518 24.5786 15.4518 21.8016C15.4518 19.0246 13.1777 16.7734 10.3724 16.7734C7.56711 16.7734 5.29297 19.0246 5.29297 21.8016C5.29297 24.5786 7.56711 26.8298 10.3724 26.8298Z" fill="#272727"/>
<path d="M10.3063 28.1449C7.23023 28.1824 4.78516 30.7241 4.78516 33.7686V35.1844C4.78516 35.5117 5.05333 35.7759 5.38459 35.7759H15.368C15.5258 35.7765 15.6773 35.7146 15.7896 35.6037C15.9019 35.4929 15.9658 35.3422 15.9674 35.1844V33.6799C15.9674 30.5999 13.4257 28.1075 10.3083 28.1449H10.3063Z" fill="#272727"/>
<path d="M23.2436 26.0954C26.2797 26.0954 28.741 23.6589 28.741 20.6532C28.741 17.6475 26.2797 15.2109 23.2436 15.2109C20.2074 15.2109 17.7461 17.6475 17.7461 20.6532C17.7461 23.6589 20.2074 26.0954 23.2436 26.0954Z" fill="#272727"/>
<path d="M23.1661 27.5182C19.8376 27.5576 17.1914 30.3083 17.1914 33.6032V35.1846C17.1914 35.512 17.4576 35.7762 17.7889 35.7762H28.6911C28.8489 35.7767 29.0005 35.7148 29.1128 35.604C29.2251 35.4932 29.289 35.3424 29.2906 35.1846V33.5086C29.2906 30.1762 26.5418 27.4787 23.1661 27.5182ZM37.2903 24.6905C40.7666 24.6905 43.5863 21.8984 43.5863 18.4556C43.5863 15.0128 40.7666 12.2227 37.2903 12.2227C33.812 12.2227 30.9942 15.0128 30.9942 18.4556C30.9942 21.8984 33.8139 24.6905 37.2903 24.6905ZM37.2903 26.3173C33.4649 26.3173 30.3613 29.3894 30.3613 33.1793V35.1846C30.3613 35.512 30.6294 35.7762 30.9607 35.7762H43.6199C43.7776 35.7767 43.9292 35.7148 44.0415 35.604C44.1538 35.4932 44.2177 35.3424 44.2193 35.1846V33.1773C44.2193 29.3894 41.1176 26.3173 37.2903 26.3173Z" fill="#272727"/>
</svg>
