<svg width="33" height="42" viewBox="0 0 33 42" fill="none" xmlns="http://www.w3.org/2000/svg">
<path d="M25.7054 20.9991C20.6214 20.9991 16.5 28.5382 16.5 37.8383C16.5 28.5382 12.3785 20.9991 7.29449 20.9991C7.31022 20.9991 7.32594 20.999 7.34165 20.9988H0.500008L0.500029 21.0003L6.20043 28.2031L6.20043 28.1599L16.5 41.3387L26.7996 28.2031L32.5 21.0003L32.5 20.9988H25.6583C25.674 20.999 25.6897 20.9991 25.7054 20.9991Z" fill="#272727"/>
<path d="M7.29456 21.0007C12.3786 21.0007 16.5 13.4616 16.5 4.16155C16.5 13.4616 20.6215 21.0007 25.7055 21.0007C25.6898 21.0007 25.6741 21.0008 25.6584 21.001L32.5 21.001L32.5 20.9995L26.7996 13.7967L26.7996 13.8399L16.5 0.661133L6.20041 13.7967L0.5 20.9995L0.500035 21.001L7.34161 21.001C7.32594 21.0008 7.31025 21.0007 7.29456 21.0007Z" fill="#272727"/>
</svg>
