<svg width="253" height="343" viewBox="0 0 253 343" fill="none" xmlns="http://www.w3.org/2000/svg">
<rect x="2" y="2.74023" width="249" height="338" rx="6" fill="#F3F4ED"/>
<rect x="2" y="2.74023" width="249" height="338" rx="6" stroke="#EFEBDD" stroke-width="4"/>
<path d="M75.4062 29.9512H73.2734C73.3307 28.7116 73.7188 27.7376 74.4375 27.0293C75.1615 26.3158 76.0885 25.959 77.2188 25.959C77.9167 25.959 78.5312 26.1074 79.0625 26.4043C79.599 26.696 80.026 27.1204 80.3438 27.6777C80.6667 28.2298 80.8281 28.7923 80.8281 29.3652C80.8281 30.0475 80.6328 30.7819 80.2422 31.5684C79.8568 32.3548 79.1484 33.2845 78.1172 34.3574L76.8281 35.7168H80.9219V37.7402H72.9609V36.6934L76.5156 33.0684C77.375 32.1986 77.9453 31.5007 78.2266 30.9746C78.513 30.4434 78.6562 29.9642 78.6562 29.5371C78.6562 29.0944 78.5078 28.7298 78.2109 28.4434C77.9193 28.1517 77.5417 28.0059 77.0781 28.0059C76.6094 28.0059 76.2188 28.1803 75.9062 28.5293C75.5938 28.8783 75.4271 29.3522 75.4062 29.9512ZM82.5469 26.248H90.0859V27.3965L84.8984 38.0293L83.0469 37.1309L87.3594 28.3027H82.5469V26.248ZM101.117 25.7402H102.695L93.5859 38.5215H92.0078L99.7969 27.5449C99.3281 27.623 98.888 27.6829 98.4766 27.7246C98.0651 27.7611 97.6849 27.7793 97.3359 27.7793C96.9766 27.7793 96.5964 27.7611 96.1953 27.7246C96.3099 28.0892 96.3672 28.4199 96.3672 28.7168C96.3672 29.4772 96.1016 30.123 95.5703 30.6543C95.0443 31.1855 94.401 31.4512 93.6406 31.4512C92.875 31.4512 92.224 31.1855 91.6875 30.6543C91.151 30.123 90.8828 29.4798 90.8828 28.7246C90.8828 28.235 91.0026 27.7819 91.2422 27.3652C91.4818 26.9434 91.8177 26.6048 92.25 26.3496C92.6875 26.0892 93.1198 25.959 93.5469 25.959C93.8698 25.959 94.3151 26.0215 94.8828 26.1465C95.888 26.3652 96.7734 26.4746 97.5391 26.4746C98.2318 26.4746 98.875 26.4147 99.4688 26.2949C100.068 26.1699 100.617 25.985 101.117 25.7402ZM93.625 27.3887C93.2604 27.3887 92.9479 27.5189 92.6875 27.7793C92.4323 28.0345 92.3047 28.3418 92.3047 28.7012C92.3047 29.0658 92.4323 29.3783 92.6875 29.6387C92.9479 29.8939 93.2604 30.0215 93.625 30.0215C93.9896 30.0215 94.2995 29.8939 94.5547 29.6387C94.8151 29.3783 94.9453 29.0658 94.9453 28.7012C94.9453 28.3366 94.8151 28.0267 94.5547 27.7715C94.2995 27.5163 93.9896 27.3887 93.625 27.3887ZM101.242 32.5605C101.997 32.5605 102.643 32.8288 103.18 33.3652C103.716 33.9017 103.984 34.5501 103.984 35.3105C103.984 36.0658 103.716 36.7116 103.18 37.248C102.643 37.7845 101.997 38.0527 101.242 38.0527C100.482 38.0527 99.8333 37.7845 99.2969 37.248C98.7656 36.7116 98.5 36.0658 98.5 35.3105C98.5 34.5501 98.7656 33.9017 99.2969 33.3652C99.8333 32.8288 100.482 32.5605 101.242 32.5605ZM101.234 33.9746C100.865 33.9746 100.549 34.1048 100.289 34.3652C100.034 34.6257 99.9062 34.9382 99.9062 35.3027C99.9062 35.6673 100.034 35.9798 100.289 36.2402C100.549 36.5007 100.865 36.6309 101.234 36.6309C101.599 36.6309 101.909 36.5007 102.164 36.2402C102.424 35.9798 102.555 35.6673 102.555 35.3027C102.555 34.9382 102.424 34.6257 102.164 34.3652C101.909 34.1048 101.599 33.9746 101.234 33.9746ZM109.961 26.248H112.133V37.7402H109.961V26.248ZM114.367 29.2402H116.492V30.1074C116.977 29.7012 117.414 29.4199 117.805 29.2637C118.201 29.1022 118.604 29.0215 119.016 29.0215C119.859 29.0215 120.576 29.3158 121.164 29.9043C121.659 30.4043 121.906 31.1439 121.906 32.123V37.7402H119.797V34.0137C119.797 32.998 119.75 32.3236 119.656 31.9902C119.568 31.6569 119.409 31.4043 119.18 31.2324C118.956 31.0553 118.677 30.9668 118.344 30.9668C117.911 30.9668 117.539 31.1126 117.227 31.4043C116.919 31.6908 116.706 32.0892 116.586 32.5996C116.523 32.8652 116.492 33.4408 116.492 34.3262V37.7402H114.367V29.2402ZM132.297 30.959L130.523 31.9355C130.19 31.5866 129.859 31.3444 129.531 31.209C129.208 31.0736 128.828 31.0059 128.391 31.0059C127.594 31.0059 126.948 31.2454 126.453 31.7246C125.964 32.1986 125.719 32.8079 125.719 33.5527C125.719 34.2767 125.956 34.8678 126.43 35.3262C126.904 35.7845 127.526 36.0137 128.297 36.0137C129.25 36.0137 129.992 35.6882 130.523 35.0371L132.203 36.1855C131.292 37.3678 130.005 37.959 128.344 37.959C126.849 37.959 125.677 37.5163 124.828 36.6309C123.984 35.7454 123.562 34.709 123.562 33.5215C123.562 32.6986 123.768 31.9408 124.18 31.248C124.591 30.5553 125.164 30.0111 125.898 29.6152C126.638 29.2194 127.464 29.0215 128.375 29.0215C129.219 29.0215 129.977 29.1908 130.648 29.5293C131.32 29.8626 131.87 30.3392 132.297 30.959ZM133.727 29.2402H135.555V30.3105C135.753 29.8887 136.016 29.5684 136.344 29.3496C136.672 29.1309 137.031 29.0215 137.422 29.0215C137.698 29.0215 137.987 29.0944 138.289 29.2402L137.625 31.0762C137.375 30.9512 137.169 30.8887 137.008 30.8887C136.68 30.8887 136.401 31.0918 136.172 31.498C135.948 31.9043 135.836 32.7012 135.836 33.8887L135.844 34.3027V37.7402H133.727V29.2402ZM147.867 34.1074H141.016C141.115 34.7116 141.378 35.1934 141.805 35.5527C142.237 35.9069 142.786 36.084 143.453 36.084C144.25 36.084 144.935 35.8053 145.508 35.248L147.305 36.0918C146.857 36.7272 146.32 37.1986 145.695 37.5059C145.07 37.8079 144.328 37.959 143.469 37.959C142.135 37.959 141.049 37.5397 140.211 36.7012C139.372 35.8574 138.953 34.8027 138.953 33.5371C138.953 32.2402 139.37 31.1647 140.203 30.3105C141.042 29.4512 142.091 29.0215 143.352 29.0215C144.69 29.0215 145.779 29.4512 146.617 30.3105C147.456 31.1647 147.875 32.2949 147.875 33.7012L147.867 34.1074ZM145.727 32.4277C145.586 31.9538 145.307 31.5684 144.891 31.2715C144.479 30.9746 144 30.8262 143.453 30.8262C142.859 30.8262 142.339 30.9928 141.891 31.3262C141.609 31.5345 141.349 31.9017 141.109 32.4277H145.727ZM155.883 29.2402H158.008V37.7402H155.883V36.8418C155.466 37.2376 155.047 37.5241 154.625 37.7012C154.208 37.873 153.755 37.959 153.266 37.959C152.167 37.959 151.216 37.5345 150.414 36.6855C149.612 35.8314 149.211 34.7715 149.211 33.5059C149.211 32.1934 149.599 31.1178 150.375 30.2793C151.151 29.4408 152.094 29.0215 153.203 29.0215C153.714 29.0215 154.193 29.1178 154.641 29.3105C155.089 29.5033 155.503 29.7923 155.883 30.1777V29.2402ZM153.641 30.9902C152.979 30.9902 152.43 31.2246 151.992 31.6934C151.555 32.1569 151.336 32.7533 151.336 33.4824C151.336 34.2168 151.557 34.821 152 35.2949C152.448 35.7689 152.997 36.0059 153.648 36.0059C154.32 36.0059 154.878 35.7741 155.32 35.3105C155.763 34.8418 155.984 34.2298 155.984 33.4746C155.984 32.735 155.763 32.1361 155.32 31.6777C154.878 31.2194 154.318 30.9902 153.641 30.9902ZM165.367 30.4277L164.047 31.748C163.51 31.2168 163.023 30.9512 162.586 30.9512C162.346 30.9512 162.159 31.0033 162.023 31.1074C161.888 31.2064 161.82 31.3314 161.82 31.4824C161.82 31.597 161.862 31.7038 161.945 31.8027C162.034 31.8965 162.247 32.0267 162.586 32.1934L163.367 32.584C164.19 32.9902 164.755 33.4043 165.062 33.8262C165.37 34.248 165.523 34.7428 165.523 35.3105C165.523 36.0658 165.245 36.696 164.688 37.2012C164.135 37.7064 163.393 37.959 162.461 37.959C161.221 37.959 160.232 37.4746 159.492 36.5059L160.805 35.0762C161.055 35.3678 161.346 35.6048 161.68 35.7871C162.018 35.9642 162.318 36.0527 162.578 36.0527C162.859 36.0527 163.086 35.985 163.258 35.8496C163.43 35.7142 163.516 35.5579 163.516 35.3809C163.516 35.0527 163.206 34.7324 162.586 34.4199L161.867 34.0605C160.492 33.3678 159.805 32.5007 159.805 31.459C159.805 30.7871 160.062 30.2142 160.578 29.7402C161.099 29.2611 161.763 29.0215 162.57 29.0215C163.122 29.0215 163.641 29.1439 164.125 29.3887C164.615 29.6283 165.029 29.9746 165.367 30.4277ZM175.727 34.1074H168.875C168.974 34.7116 169.237 35.1934 169.664 35.5527C170.096 35.9069 170.646 36.084 171.312 36.084C172.109 36.084 172.794 35.8053 173.367 35.248L175.164 36.0918C174.716 36.7272 174.18 37.1986 173.555 37.5059C172.93 37.8079 172.188 37.959 171.328 37.959C169.995 37.959 168.909 37.5397 168.07 36.7012C167.232 35.8574 166.812 34.8027 166.812 33.5371C166.812 32.2402 167.229 31.1647 168.062 30.3105C168.901 29.4512 169.951 29.0215 171.211 29.0215C172.549 29.0215 173.638 29.4512 174.477 30.3105C175.315 31.1647 175.734 32.2949 175.734 33.7012L175.727 34.1074ZM173.586 32.4277C173.445 31.9538 173.167 31.5684 172.75 31.2715C172.339 30.9746 171.859 30.8262 171.312 30.8262C170.719 30.8262 170.198 30.9928 169.75 31.3262C169.469 31.5345 169.208 31.9017 168.969 32.4277H173.586Z" fill="#272727"/>
<g opacity="0.2">
<g opacity="0.5">
<rect width="181" height="0.6" transform="translate(42 77.7402)" fill="#747474"/>
</g>
<g opacity="0.5">
<rect width="181" height="0.6" transform="translate(42 97.3402)" fill="#747474"/>
</g>
<g opacity="0.5">
<rect width="181" height="0.6" transform="translate(42 116.94)" fill="#747474"/>
</g>
<g opacity="0.5">
<rect width="181" height="0.6" transform="translate(42 136.54)" fill="#747474"/>
</g>
<g opacity="0.5">
<rect width="181" height="0.6" transform="translate(42 156.14)" fill="#747474"/>
</g>
<g opacity="0.5">
<rect width="181" height="0.6" transform="translate(42 175.74)" fill="#747474"/>
</g>
<g opacity="0.5">
<rect width="181" height="0.6" transform="translate(42 195.34)" fill="#747474"/>
</g>
<g opacity="0.5">
<rect width="181" height="0.6" transform="translate(42 214.94)" fill="#747474"/>
</g>
<g opacity="0.5">
<rect width="181" height="0.6" transform="translate(42 234.54)" fill="#747474"/>
</g>
<g opacity="0.5">
<rect width="181" height="0.6" transform="translate(42 254.14)" fill="#747474"/>
</g>
<g opacity="0.5">
<rect width="181" height="0.6" transform="translate(42 273.74)" fill="#747474"/>
</g>
</g>
<path d="M82 191.74C82 188.979 84.2386 186.74 87 186.74C89.7614 186.74 92 188.979 92 191.74V271.74C92 272.845 91.1046 273.74 90 273.74H84C82.8954 273.74 82 272.845 82 271.74V191.74Z" fill="#FF6300"/>
<path d="M173 161.74C173 158.979 175.239 156.74 178 156.74C180.761 156.74 183 158.979 183 161.74V271.74C183 272.845 182.105 273.74 181 273.74H175C173.895 273.74 173 272.845 173 271.74V161.74Z" fill="#272727"/>
<path d="M14.3564 274.142H17.042V274.738H14.3564V274.142ZM19.21 269.958H20.6211V277.14H19.9082V270.661H18.7803L19.21 269.958ZM23.2236 273.551C23.2236 272.604 23.3245 271.872 23.5264 271.354C23.7314 270.836 24.0195 270.444 24.3906 270.177C24.7617 269.91 25.1768 269.777 25.6357 269.777C26.1012 269.777 26.5228 269.912 26.9004 270.182C27.278 270.449 27.5758 270.851 27.7939 271.388C28.0153 271.925 28.126 272.646 28.126 273.551C28.126 274.453 28.0169 275.171 27.7988 275.705C27.584 276.238 27.2861 276.642 26.9053 276.916C26.5244 277.186 26.1012 277.321 25.6357 277.321C25.1768 277.321 24.7633 277.189 24.3955 276.925C24.0277 276.662 23.7396 276.269 23.5312 275.749C23.3262 275.224 23.2236 274.492 23.2236 273.551ZM23.9023 273.566C23.9023 274.376 23.974 274.99 24.1172 275.407C24.2637 275.82 24.4785 276.134 24.7617 276.349C25.0449 276.564 25.3444 276.671 25.6602 276.671C25.9792 276.671 26.277 276.567 26.5537 276.359C26.8304 276.147 27.0404 275.832 27.1836 275.412C27.3626 274.901 27.4521 274.285 27.4521 273.566C27.4521 272.843 27.3724 272.252 27.2129 271.793C27.0534 271.331 26.832 270.994 26.5488 270.783C26.2689 270.568 25.9727 270.46 25.6602 270.46C25.3411 270.46 25.0417 270.568 24.7617 270.783C24.4818 270.994 24.2686 271.308 24.1221 271.725C23.9756 272.139 23.9023 272.752 23.9023 273.566ZM28.7705 273.551C28.7705 272.604 28.8714 271.872 29.0732 271.354C29.2783 270.836 29.5664 270.444 29.9375 270.177C30.3086 269.91 30.7236 269.777 31.1826 269.777C31.6481 269.777 32.0697 269.912 32.4473 270.182C32.8249 270.449 33.1227 270.851 33.3408 271.388C33.5622 271.925 33.6729 272.646 33.6729 273.551C33.6729 274.453 33.5638 275.171 33.3457 275.705C33.1309 276.238 32.833 276.642 32.4521 276.916C32.0713 277.186 31.6481 277.321 31.1826 277.321C30.7236 277.321 30.3102 277.189 29.9424 276.925C29.5745 276.662 29.2865 276.269 29.0781 275.749C28.873 275.224 28.7705 274.492 28.7705 273.551ZM29.4492 273.566C29.4492 274.376 29.5208 274.99 29.6641 275.407C29.8105 275.82 30.0254 276.134 30.3086 276.349C30.5918 276.564 30.8913 276.671 31.207 276.671C31.526 276.671 31.8239 276.567 32.1006 276.359C32.3773 276.147 32.5872 275.832 32.7305 275.412C32.9095 274.901 32.999 274.285 32.999 273.566C32.999 272.843 32.9193 272.252 32.7598 271.793C32.6003 271.331 32.3789 270.994 32.0957 270.783C31.8158 270.568 31.5195 270.46 31.207 270.46C30.888 270.46 30.5885 270.568 30.3086 270.783C30.0286 270.994 29.8154 271.308 29.6689 271.725C29.5225 272.139 29.4492 272.752 29.4492 273.566Z" fill="#747474"/>
<path d="M19.9033 234.142H22.5889V234.738H19.9033V234.142ZM26.5732 229.777L27.1641 230.163L25.2256 233.102C25.486 233.014 25.7301 232.97 25.958 232.97C26.5277 232.97 27.0111 233.177 27.4082 233.59C27.8053 234 28.0039 234.507 28.0039 235.109C28.0039 235.522 27.9079 235.897 27.7158 236.232C27.5238 236.564 27.2503 236.829 26.8955 237.028C26.5439 237.223 26.1647 237.321 25.7578 237.321C25.3639 237.321 24.9977 237.226 24.6592 237.038C24.3239 236.846 24.0602 236.577 23.8682 236.232C23.6761 235.887 23.5801 235.517 23.5801 235.124C23.5801 234.831 23.6387 234.523 23.7559 234.201C23.8763 233.875 24.0895 233.485 24.3955 233.029L26.5732 229.777ZM25.7871 233.6C25.3704 233.6 25.014 233.748 24.7178 234.044C24.4248 234.337 24.2783 234.694 24.2783 235.114C24.2783 235.53 24.4248 235.887 24.7178 236.183C25.014 236.476 25.3704 236.623 25.7871 236.623C26.2038 236.623 26.5586 236.476 26.8516 236.183C27.1478 235.887 27.2959 235.53 27.2959 235.114C27.2959 234.694 27.1478 234.337 26.8516 234.044C26.5586 233.748 26.2038 233.6 25.7871 233.6ZM28.7705 233.551C28.7705 232.604 28.8714 231.872 29.0732 231.354C29.2783 230.836 29.5664 230.444 29.9375 230.177C30.3086 229.91 30.7236 229.777 31.1826 229.777C31.6481 229.777 32.0697 229.912 32.4473 230.182C32.8249 230.449 33.1227 230.851 33.3408 231.388C33.5622 231.925 33.6729 232.646 33.6729 233.551C33.6729 234.453 33.5638 235.171 33.3457 235.705C33.1309 236.238 32.833 236.642 32.4521 236.916C32.0713 237.186 31.6481 237.321 31.1826 237.321C30.7236 237.321 30.3102 237.189 29.9424 236.925C29.5745 236.662 29.2865 236.269 29.0781 235.749C28.873 235.224 28.7705 234.492 28.7705 233.551ZM29.4492 233.566C29.4492 234.376 29.5208 234.99 29.6641 235.407C29.8105 235.82 30.0254 236.134 30.3086 236.349C30.5918 236.564 30.8913 236.671 31.207 236.671C31.526 236.671 31.8239 236.567 32.1006 236.359C32.3773 236.147 32.5872 235.832 32.7305 235.412C32.9095 234.901 32.999 234.285 32.999 233.566C32.999 232.843 32.9193 232.252 32.7598 231.793C32.6003 231.331 32.3789 230.994 32.0957 230.783C31.8158 230.568 31.5195 230.46 31.207 230.46C30.888 230.46 30.5885 230.568 30.3086 230.783C30.0286 230.994 29.8154 231.308 29.6689 231.725C29.5225 232.139 29.4492 232.752 29.4492 233.566Z" fill="#747474"/>
<path d="M19.9033 194.142H22.5889V194.738H19.9033V194.142ZM24.0635 192.208H23.375C23.3945 191.499 23.6305 190.916 24.083 190.46C24.5387 190.005 25.1003 189.777 25.7676 189.777C26.4284 189.777 26.9622 189.99 27.3691 190.417C27.7793 190.843 27.9844 191.346 27.9844 191.925C27.9844 192.332 27.8867 192.715 27.6914 193.073C27.4961 193.428 27.1169 193.909 26.5537 194.518L24.7666 196.447H28.082V197.14H23.2041L25.9482 194.176C26.5049 193.581 26.8662 193.139 27.0322 192.853C27.2015 192.563 27.2861 192.259 27.2861 191.94C27.2861 191.536 27.1348 191.19 26.832 190.9C26.5326 190.607 26.1647 190.46 25.7285 190.46C25.2695 190.46 24.887 190.613 24.5811 190.919C24.2783 191.225 24.1058 191.655 24.0635 192.208ZM28.7705 193.551C28.7705 192.604 28.8714 191.872 29.0732 191.354C29.2783 190.836 29.5664 190.444 29.9375 190.177C30.3086 189.91 30.7236 189.777 31.1826 189.777C31.6481 189.777 32.0697 189.912 32.4473 190.182C32.8249 190.449 33.1227 190.851 33.3408 191.388C33.5622 191.925 33.6729 192.646 33.6729 193.551C33.6729 194.453 33.5638 195.171 33.3457 195.705C33.1309 196.238 32.833 196.642 32.4521 196.916C32.0713 197.186 31.6481 197.321 31.1826 197.321C30.7236 197.321 30.3102 197.189 29.9424 196.925C29.5745 196.662 29.2865 196.269 29.0781 195.749C28.873 195.224 28.7705 194.492 28.7705 193.551ZM29.4492 193.566C29.4492 194.376 29.5208 194.99 29.6641 195.407C29.8105 195.82 30.0254 196.134 30.3086 196.349C30.5918 196.564 30.8913 196.671 31.207 196.671C31.526 196.671 31.8239 196.567 32.1006 196.359C32.3773 196.147 32.5872 195.832 32.7305 195.412C32.9095 194.901 32.999 194.285 32.999 193.566C32.999 192.843 32.9193 192.252 32.7598 191.793C32.6003 191.331 32.3789 190.994 32.0957 190.783C31.8158 190.568 31.5195 190.46 31.207 190.46C30.888 190.46 30.5885 190.568 30.3086 190.783C30.0286 190.994 29.8154 191.308 29.6689 191.725C29.5225 192.139 29.4492 192.752 29.4492 193.566Z" fill="#747474"/>
<path d="M24.0635 152.208H23.375C23.3945 151.499 23.6305 150.916 24.083 150.46C24.5387 150.005 25.1003 149.777 25.7676 149.777C26.4284 149.777 26.9622 149.99 27.3691 150.417C27.7793 150.843 27.9844 151.346 27.9844 151.925C27.9844 152.332 27.8867 152.715 27.6914 153.073C27.4961 153.428 27.1169 153.909 26.5537 154.518L24.7666 156.447H28.082V157.14H23.2041L25.9482 154.176C26.5049 153.581 26.8662 153.139 27.0322 152.853C27.2015 152.563 27.2861 152.259 27.2861 151.94C27.2861 151.536 27.1348 151.19 26.832 150.9C26.5326 150.607 26.1647 150.46 25.7285 150.46C25.2695 150.46 24.887 150.613 24.5811 150.919C24.2783 151.225 24.1058 151.655 24.0635 152.208ZM28.7705 153.551C28.7705 152.604 28.8714 151.872 29.0732 151.354C29.2783 150.836 29.5664 150.444 29.9375 150.177C30.3086 149.91 30.7236 149.777 31.1826 149.777C31.6481 149.777 32.0697 149.912 32.4473 150.182C32.8249 150.449 33.1227 150.851 33.3408 151.388C33.5622 151.925 33.6729 152.646 33.6729 153.551C33.6729 154.453 33.5638 155.171 33.3457 155.705C33.1309 156.238 32.833 156.642 32.4521 156.916C32.0713 157.186 31.6481 157.321 31.1826 157.321C30.7236 157.321 30.3102 157.189 29.9424 156.925C29.5745 156.662 29.2865 156.269 29.0781 155.749C28.873 155.224 28.7705 154.492 28.7705 153.551ZM29.4492 153.566C29.4492 154.376 29.5208 154.99 29.6641 155.407C29.8105 155.82 30.0254 156.134 30.3086 156.349C30.5918 156.564 30.8913 156.671 31.207 156.671C31.526 156.671 31.8239 156.567 32.1006 156.359C32.3773 156.147 32.5872 155.832 32.7305 155.412C32.9095 154.901 32.999 154.285 32.999 153.566C32.999 152.843 32.9193 152.252 32.7598 151.793C32.6003 151.331 32.3789 150.994 32.0957 150.783C31.8158 150.568 31.5195 150.46 31.207 150.46C30.888 150.46 30.5885 150.568 30.3086 150.783C30.0286 150.994 29.8154 151.308 29.6689 151.725C29.5225 152.139 29.4492 152.752 29.4492 153.566Z" fill="#747474"/>
<path d="M26.5732 109.777L27.1641 110.163L25.2256 113.102C25.486 113.014 25.7301 112.97 25.958 112.97C26.5277 112.97 27.0111 113.177 27.4082 113.59C27.8053 114 28.0039 114.507 28.0039 115.109C28.0039 115.522 27.9079 115.897 27.7158 116.232C27.5238 116.564 27.2503 116.829 26.8955 117.028C26.5439 117.223 26.1647 117.321 25.7578 117.321C25.3639 117.321 24.9977 117.226 24.6592 117.038C24.3239 116.846 24.0602 116.577 23.8682 116.232C23.6761 115.887 23.5801 115.517 23.5801 115.124C23.5801 114.831 23.6387 114.523 23.7559 114.201C23.8763 113.875 24.0895 113.485 24.3955 113.029L26.5732 109.777ZM25.7871 113.6C25.3704 113.6 25.014 113.748 24.7178 114.044C24.4248 114.337 24.2783 114.694 24.2783 115.114C24.2783 115.53 24.4248 115.887 24.7178 116.183C25.014 116.476 25.3704 116.623 25.7871 116.623C26.2038 116.623 26.5586 116.476 26.8516 116.183C27.1478 115.887 27.2959 115.53 27.2959 115.114C27.2959 114.694 27.1478 114.337 26.8516 114.044C26.5586 113.748 26.2038 113.6 25.7871 113.6ZM28.7705 113.551C28.7705 112.604 28.8714 111.872 29.0732 111.354C29.2783 110.836 29.5664 110.444 29.9375 110.177C30.3086 109.91 30.7236 109.777 31.1826 109.777C31.6481 109.777 32.0697 109.912 32.4473 110.182C32.8249 110.449 33.1227 110.851 33.3408 111.388C33.5622 111.925 33.6729 112.646 33.6729 113.551C33.6729 114.453 33.5638 115.171 33.3457 115.705C33.1309 116.238 32.833 116.642 32.4521 116.916C32.0713 117.186 31.6481 117.321 31.1826 117.321C30.7236 117.321 30.3102 117.189 29.9424 116.925C29.5745 116.662 29.2865 116.269 29.0781 115.749C28.873 115.224 28.7705 114.492 28.7705 113.551ZM29.4492 113.566C29.4492 114.376 29.5208 114.99 29.6641 115.407C29.8105 115.82 30.0254 116.134 30.3086 116.349C30.5918 116.564 30.8913 116.671 31.207 116.671C31.526 116.671 31.8239 116.567 32.1006 116.359C32.3773 116.147 32.5872 115.832 32.7305 115.412C32.9095 114.901 32.999 114.285 32.999 113.566C32.999 112.843 32.9193 112.252 32.7598 111.793C32.6003 111.331 32.3789 110.994 32.0957 110.783C31.8158 110.568 31.5195 110.46 31.207 110.46C30.888 110.46 30.5885 110.568 30.3086 110.783C30.0286 110.994 29.8154 111.308 29.6689 111.725C29.5225 112.139 29.4492 112.752 29.4492 113.566Z" fill="#747474"/>
<path d="M19.21 73.9575H20.6211V81.1401H19.9082V74.6606H18.7803L19.21 73.9575ZM23.2236 77.5513C23.2236 76.604 23.3245 75.8716 23.5264 75.354C23.7314 74.8364 24.0195 74.4442 24.3906 74.1772C24.7617 73.9103 25.1768 73.7769 25.6357 73.7769C26.1012 73.7769 26.5228 73.9119 26.9004 74.1821C27.278 74.4491 27.5758 74.8511 27.7939 75.3882C28.0153 75.9253 28.126 76.6463 28.126 77.5513C28.126 78.453 28.0169 79.1707 27.7988 79.7046C27.584 80.2384 27.2861 80.6421 26.9053 80.9155C26.5244 81.1857 26.1012 81.3208 25.6357 81.3208C25.1768 81.3208 24.7633 81.189 24.3955 80.9253C24.0277 80.6616 23.7396 80.2694 23.5312 79.7485C23.3262 79.2244 23.2236 78.492 23.2236 77.5513ZM23.9023 77.5659C23.9023 78.3765 23.974 78.9901 24.1172 79.4067C24.2637 79.8201 24.4785 80.1343 24.7617 80.3491C25.0449 80.564 25.3444 80.6714 25.6602 80.6714C25.9792 80.6714 26.277 80.5672 26.5537 80.3589C26.8304 80.1473 27.0404 79.8315 27.1836 79.4116C27.3626 78.9006 27.4521 78.2853 27.4521 77.5659C27.4521 76.8433 27.3724 76.2524 27.2129 75.7935C27.0534 75.3312 26.832 74.9943 26.5488 74.7827C26.2689 74.5679 25.9727 74.4604 25.6602 74.4604C25.3411 74.4604 25.0417 74.5679 24.7617 74.7827C24.4818 74.9943 24.2686 75.3084 24.1221 75.7251C23.9756 76.1385 23.9023 76.7521 23.9023 77.5659ZM28.7705 77.5513C28.7705 76.604 28.8714 75.8716 29.0732 75.354C29.2783 74.8364 29.5664 74.4442 29.9375 74.1772C30.3086 73.9103 30.7236 73.7769 31.1826 73.7769C31.6481 73.7769 32.0697 73.9119 32.4473 74.1821C32.8249 74.4491 33.1227 74.8511 33.3408 75.3882C33.5622 75.9253 33.6729 76.6463 33.6729 77.5513C33.6729 78.453 33.5638 79.1707 33.3457 79.7046C33.1309 80.2384 32.833 80.6421 32.4521 80.9155C32.0713 81.1857 31.6481 81.3208 31.1826 81.3208C30.7236 81.3208 30.3102 81.189 29.9424 80.9253C29.5745 80.6616 29.2865 80.2694 29.0781 79.7485C28.873 79.2244 28.7705 78.492 28.7705 77.5513ZM29.4492 77.5659C29.4492 78.3765 29.5208 78.9901 29.6641 79.4067C29.8105 79.8201 30.0254 80.1343 30.3086 80.3491C30.5918 80.564 30.8913 80.6714 31.207 80.6714C31.526 80.6714 31.8239 80.5672 32.1006 80.3589C32.3773 80.1473 32.5872 79.8315 32.7305 79.4116C32.9095 78.9006 32.999 78.2853 32.999 77.5659C32.999 76.8433 32.9193 76.2524 32.7598 75.7935C32.6003 75.3312 32.3789 74.9943 32.0957 74.7827C31.8158 74.5679 31.5195 74.4604 31.207 74.4604C30.888 74.4604 30.5885 74.5679 30.3086 74.7827C30.0286 74.9943 29.8154 75.3084 29.6689 75.7251C29.5225 76.1385 29.4492 76.7521 29.4492 77.5659Z" fill="#747474"/>
<path d="M67.4844 290.581H68.8711L71.6348 297.764H70.2139L69.6523 296.284H66.7227L66.1367 297.764H64.7158L67.4844 290.581ZM68.1875 292.485L67.2305 294.951H69.1396L68.1875 292.485ZM72.5479 292.451H73.8955V295.01C73.8955 295.508 73.9297 295.854 73.998 296.05C74.0664 296.242 74.1755 296.392 74.3252 296.499C74.4782 296.606 74.6654 296.66 74.8867 296.66C75.1081 296.66 75.2952 296.608 75.4482 296.504C75.6045 296.396 75.7201 296.24 75.7949 296.035C75.8503 295.882 75.8779 295.555 75.8779 295.054V292.451H77.2158V294.702C77.2158 295.63 77.1426 296.265 76.9961 296.606C76.8171 297.023 76.5534 297.344 76.2051 297.568C75.8568 297.79 75.4141 297.9 74.877 297.9C74.2943 297.9 73.8223 297.77 73.4609 297.51C73.1029 297.249 72.8506 296.886 72.7041 296.421C72.5999 296.099 72.5479 295.513 72.5479 294.663V292.451ZM82.4844 292.451H83.8125V297.002C83.8125 297.9 83.6318 298.561 83.2705 298.984C82.7855 299.557 82.0547 299.844 81.0781 299.844C80.5573 299.844 80.1195 299.779 79.7646 299.648C79.4098 299.518 79.1104 299.326 78.8662 299.072C78.6221 298.822 78.4414 298.516 78.3242 298.154H79.7939C79.9242 298.304 80.0918 298.416 80.2969 298.491C80.502 298.569 80.7445 298.608 81.0244 298.608C81.3825 298.608 81.6706 298.553 81.8887 298.442C82.1068 298.332 82.2598 298.188 82.3477 298.013C82.4388 297.837 82.4844 297.534 82.4844 297.104C82.25 297.339 82.0042 297.508 81.7471 297.612C81.4899 297.713 81.1986 297.764 80.873 297.764C80.1602 297.764 79.5579 297.507 79.0664 296.992C78.5749 296.478 78.3291 295.827 78.3291 295.039C78.3291 294.196 78.5895 293.519 79.1104 293.008C79.5824 292.546 80.1455 292.314 80.7998 292.314C81.1058 292.314 81.3939 292.371 81.6641 292.485C81.9375 292.596 82.2109 292.78 82.4844 293.037V292.451ZM81.1025 293.56C80.6826 293.56 80.3359 293.701 80.0625 293.984C79.7891 294.264 79.6523 294.618 79.6523 295.044C79.6523 295.487 79.7923 295.85 80.0723 296.133C80.3522 296.416 80.7038 296.558 81.127 296.558C81.5404 296.558 81.8805 296.419 82.1475 296.143C82.4176 295.866 82.5527 295.503 82.5527 295.054C82.5527 294.611 82.4176 294.251 82.1475 293.975C81.8773 293.698 81.529 293.56 81.1025 293.56ZM89.0322 292.896H87.6992C87.735 292.121 87.9775 291.512 88.4268 291.069C88.8792 290.623 89.4587 290.4 90.165 290.4C90.6012 290.4 90.9854 290.493 91.3174 290.679C91.6527 290.861 91.9196 291.126 92.1182 291.475C92.32 291.82 92.4209 292.171 92.4209 292.529C92.4209 292.956 92.2988 293.415 92.0547 293.906C91.8138 294.398 91.3711 294.979 90.7266 295.649L89.9209 296.499H92.4795V297.764H87.5039V297.109L89.7256 294.844C90.2627 294.3 90.6191 293.864 90.7949 293.535C90.974 293.203 91.0635 292.904 91.0635 292.637C91.0635 292.36 90.9707 292.132 90.7852 291.953C90.6029 291.771 90.3669 291.68 90.0771 291.68C89.7842 291.68 89.54 291.789 89.3447 292.007C89.1494 292.225 89.0452 292.521 89.0322 292.896ZM95.6729 290.4C96.1969 290.4 96.6478 290.529 97.0254 290.786C97.4062 291.043 97.6992 291.437 97.9043 291.968C98.1126 292.495 98.2168 293.231 98.2168 294.175C98.2168 295.129 98.111 295.871 97.8994 296.401C97.6911 296.932 97.4095 297.323 97.0547 297.573C96.6999 297.821 96.2523 297.944 95.7119 297.944C95.1715 297.944 94.7174 297.819 94.3496 297.568C93.9818 297.318 93.6937 296.937 93.4854 296.426C93.277 295.915 93.1729 295.187 93.1729 294.243C93.1729 292.925 93.3763 291.969 93.7832 291.377C94.2357 290.726 94.8656 290.4 95.6729 290.4ZM95.707 291.699C95.4759 291.699 95.2708 291.774 95.0918 291.924C94.9128 292.07 94.776 292.324 94.6816 292.686C94.5872 293.047 94.54 293.576 94.54 294.272C94.54 295.181 94.6475 295.809 94.8623 296.157C95.0804 296.502 95.362 296.675 95.707 296.675C96.0391 296.675 96.3027 296.51 96.498 296.182C96.7357 295.785 96.8545 295.12 96.8545 294.189C96.8545 293.245 96.7471 292.594 96.5322 292.236C96.3206 291.878 96.0456 291.699 95.707 291.699ZM100.243 292.896H98.9102C98.946 292.121 99.1885 291.512 99.6377 291.069C100.09 290.623 100.67 290.4 101.376 290.4C101.812 290.4 102.196 290.493 102.528 290.679C102.864 290.861 103.131 291.126 103.329 291.475C103.531 291.82 103.632 292.171 103.632 292.529C103.632 292.956 103.51 293.415 103.266 293.906C103.025 294.398 102.582 294.979 101.938 295.649L101.132 296.499H103.69V297.764H98.7148V297.109L100.937 294.844C101.474 294.3 101.83 293.864 102.006 293.535C102.185 293.203 102.274 292.904 102.274 292.637C102.274 292.36 102.182 292.132 101.996 291.953C101.814 291.771 101.578 291.68 101.288 291.68C100.995 291.68 100.751 291.789 100.556 292.007C100.36 292.225 100.256 292.521 100.243 292.896ZM105.849 292.896H104.516C104.551 292.121 104.794 291.512 105.243 291.069C105.696 290.623 106.275 290.4 106.981 290.4C107.418 290.4 107.802 290.493 108.134 290.679C108.469 290.861 108.736 291.126 108.935 291.475C109.136 291.82 109.237 292.171 109.237 292.529C109.237 292.956 109.115 293.415 108.871 293.906C108.63 294.398 108.188 294.979 107.543 295.649L106.737 296.499H109.296V297.764H104.32V297.109L106.542 294.844C107.079 294.3 107.436 293.864 107.611 293.535C107.79 293.203 107.88 292.904 107.88 292.637C107.88 292.36 107.787 292.132 107.602 291.953C107.419 291.771 107.183 291.68 106.894 291.68C106.601 291.68 106.356 291.789 106.161 292.007C105.966 292.225 105.862 292.521 105.849 292.896Z" fill="#272727"/>
<path d="M158.484 290.581H159.871L162.635 297.764H161.214L160.652 296.284H157.723L157.137 297.764H155.716L158.484 290.581ZM159.188 292.485L158.23 294.951H160.14L159.188 292.485ZM163.548 292.451H164.896V295.01C164.896 295.508 164.93 295.854 164.998 296.05C165.066 296.242 165.175 296.392 165.325 296.499C165.478 296.606 165.665 296.66 165.887 296.66C166.108 296.66 166.295 296.608 166.448 296.504C166.604 296.396 166.72 296.24 166.795 296.035C166.85 295.882 166.878 295.555 166.878 295.054V292.451H168.216V294.702C168.216 295.63 168.143 296.265 167.996 296.606C167.817 297.023 167.553 297.344 167.205 297.568C166.857 297.79 166.414 297.9 165.877 297.9C165.294 297.9 164.822 297.77 164.461 297.51C164.103 297.249 163.851 296.886 163.704 296.421C163.6 296.099 163.548 295.513 163.548 294.663V292.451ZM173.484 292.451H174.812V297.002C174.812 297.9 174.632 298.561 174.271 298.984C173.785 299.557 173.055 299.844 172.078 299.844C171.557 299.844 171.119 299.779 170.765 299.648C170.41 299.518 170.11 299.326 169.866 299.072C169.622 298.822 169.441 298.516 169.324 298.154H170.794C170.924 298.304 171.092 298.416 171.297 298.491C171.502 298.569 171.744 298.608 172.024 298.608C172.382 298.608 172.671 298.553 172.889 298.442C173.107 298.332 173.26 298.188 173.348 298.013C173.439 297.837 173.484 297.534 173.484 297.104C173.25 297.339 173.004 297.508 172.747 297.612C172.49 297.713 172.199 297.764 171.873 297.764C171.16 297.764 170.558 297.507 170.066 296.992C169.575 296.478 169.329 295.827 169.329 295.039C169.329 294.196 169.59 293.519 170.11 293.008C170.582 292.546 171.146 292.314 171.8 292.314C172.106 292.314 172.394 292.371 172.664 292.485C172.938 292.596 173.211 292.78 173.484 293.037V292.451ZM172.103 293.56C171.683 293.56 171.336 293.701 171.062 293.984C170.789 294.264 170.652 294.618 170.652 295.044C170.652 295.487 170.792 295.85 171.072 296.133C171.352 296.416 171.704 296.558 172.127 296.558C172.54 296.558 172.881 296.419 173.147 296.143C173.418 295.866 173.553 295.503 173.553 295.054C173.553 294.611 173.418 294.251 173.147 293.975C172.877 293.698 172.529 293.56 172.103 293.56ZM180.032 292.896H178.699C178.735 292.121 178.978 291.512 179.427 291.069C179.879 290.623 180.459 290.4 181.165 290.4C181.601 290.4 181.985 290.493 182.317 290.679C182.653 290.861 182.92 291.126 183.118 291.475C183.32 291.82 183.421 292.171 183.421 292.529C183.421 292.956 183.299 293.415 183.055 293.906C182.814 294.398 182.371 294.979 181.727 295.649L180.921 296.499H183.479V297.764H178.504V297.109L180.726 294.844C181.263 294.3 181.619 293.864 181.795 293.535C181.974 293.203 182.063 292.904 182.063 292.637C182.063 292.36 181.971 292.132 181.785 291.953C181.603 291.771 181.367 291.68 181.077 291.68C180.784 291.68 180.54 291.789 180.345 292.007C180.149 292.225 180.045 292.521 180.032 292.896ZM186.673 290.4C187.197 290.4 187.648 290.529 188.025 290.786C188.406 291.043 188.699 291.437 188.904 291.968C189.113 292.495 189.217 293.231 189.217 294.175C189.217 295.129 189.111 295.871 188.899 296.401C188.691 296.932 188.41 297.323 188.055 297.573C187.7 297.821 187.252 297.944 186.712 297.944C186.172 297.944 185.717 297.819 185.35 297.568C184.982 297.318 184.694 296.937 184.485 296.426C184.277 295.915 184.173 295.187 184.173 294.243C184.173 292.925 184.376 291.969 184.783 291.377C185.236 290.726 185.866 290.4 186.673 290.4ZM186.707 291.699C186.476 291.699 186.271 291.774 186.092 291.924C185.913 292.07 185.776 292.324 185.682 292.686C185.587 293.047 185.54 293.576 185.54 294.272C185.54 295.181 185.647 295.809 185.862 296.157C186.08 296.502 186.362 296.675 186.707 296.675C187.039 296.675 187.303 296.51 187.498 296.182C187.736 295.785 187.854 295.12 187.854 294.189C187.854 293.245 187.747 292.594 187.532 292.236C187.321 291.878 187.046 291.699 186.707 291.699ZM191.243 292.896H189.91C189.946 292.121 190.188 291.512 190.638 291.069C191.09 290.623 191.67 290.4 192.376 290.4C192.812 290.4 193.196 290.493 193.528 290.679C193.864 290.861 194.131 291.126 194.329 291.475C194.531 291.82 194.632 292.171 194.632 292.529C194.632 292.956 194.51 293.415 194.266 293.906C194.025 294.398 193.582 294.979 192.938 295.649L192.132 296.499H194.69V297.764H189.715V297.109L191.937 294.844C192.474 294.3 192.83 293.864 193.006 293.535C193.185 293.203 193.274 292.904 193.274 292.637C193.274 292.36 193.182 292.132 192.996 291.953C192.814 291.771 192.578 291.68 192.288 291.68C191.995 291.68 191.751 291.789 191.556 292.007C191.36 292.225 191.256 292.521 191.243 292.896ZM197.005 292.354H195.691C195.76 291.823 195.95 291.396 196.263 291.074C196.699 290.625 197.247 290.4 197.908 290.4C198.497 290.4 198.991 290.588 199.388 290.962C199.788 291.336 199.988 291.781 199.988 292.295C199.988 292.614 199.9 292.905 199.725 293.169C199.552 293.433 199.3 293.646 198.968 293.809C199.404 293.939 199.744 294.167 199.988 294.492C200.236 294.814 200.359 295.195 200.359 295.635C200.359 296.279 200.122 296.826 199.646 297.275C199.171 297.721 198.566 297.944 197.83 297.944C197.133 297.944 196.565 297.734 196.126 297.314C195.687 296.891 195.446 296.317 195.403 295.591H196.756C196.814 295.962 196.943 296.239 197.142 296.421C197.343 296.6 197.597 296.689 197.903 296.689C198.222 296.689 198.486 296.587 198.694 296.382C198.906 296.177 199.012 295.926 199.012 295.63C199.012 295.304 198.87 295.029 198.587 294.805C198.304 294.58 197.895 294.465 197.361 294.458V293.286C197.69 293.26 197.934 293.21 198.094 293.135C198.257 293.057 198.382 292.951 198.47 292.817C198.561 292.684 198.606 292.542 198.606 292.393C198.606 292.197 198.538 292.036 198.401 291.909C198.265 291.779 198.086 291.714 197.864 291.714C197.669 291.714 197.492 291.774 197.332 291.895C197.173 292.012 197.063 292.165 197.005 292.354Z" fill="#272727"/>
</svg>
