<svg width="253" height="343" viewBox="0 0 253 343" fill="none" xmlns="http://www.w3.org/2000/svg">
<rect x="2" y="2.58984" width="249" height="338" rx="6" fill="#F3F4ED"/>
<rect x="2" y="2.58984" width="249" height="338" rx="6" stroke="#EFEBDD" stroke-width="4"/>
<path d="M64.3594 29.8008H62.2266C62.2839 28.5612 62.6719 27.5872 63.3906 26.8789C64.1146 26.1654 65.0417 25.8086 66.1719 25.8086C66.8698 25.8086 67.4844 25.957 68.0156 26.2539C68.5521 26.5456 68.9792 26.9701 69.2969 27.5273C69.6198 28.0794 69.7812 28.6419 69.7812 29.2148C69.7812 29.8971 69.5859 30.6315 69.1953 31.418C68.8099 32.2044 68.1016 33.1341 67.0703 34.207L65.7812 35.5664H69.875V37.5898H61.9141V36.543L65.4688 32.918C66.3281 32.0482 66.8984 31.3503 67.1797 30.8242C67.4661 30.293 67.6094 29.8138 67.6094 29.3867C67.6094 28.944 67.4609 28.5794 67.1641 28.293C66.8724 28.0013 66.4948 27.8555 66.0312 27.8555C65.5625 27.8555 65.1719 28.0299 64.8594 28.3789C64.5469 28.7279 64.3802 29.2018 64.3594 29.8008ZM71.5 26.0977H79.0391V27.2461L73.8516 37.8789L72 36.9805L76.3125 28.1523H71.5V26.0977ZM90.0703 25.5898H91.6484L82.5391 38.3711H80.9609L88.75 27.3945C88.2812 27.4727 87.8411 27.5326 87.4297 27.5742C87.0182 27.6107 86.638 27.6289 86.2891 27.6289C85.9297 27.6289 85.5495 27.6107 85.1484 27.5742C85.263 27.9388 85.3203 28.2695 85.3203 28.5664C85.3203 29.3268 85.0547 29.9727 84.5234 30.5039C83.9974 31.0352 83.3542 31.3008 82.5938 31.3008C81.8281 31.3008 81.1771 31.0352 80.6406 30.5039C80.1042 29.9727 79.8359 29.3294 79.8359 28.5742C79.8359 28.0846 79.9557 27.6315 80.1953 27.2148C80.4349 26.793 80.7708 26.4544 81.2031 26.1992C81.6406 25.9388 82.0729 25.8086 82.5 25.8086C82.8229 25.8086 83.2682 25.8711 83.8359 25.9961C84.8411 26.2148 85.7266 26.3242 86.4922 26.3242C87.1849 26.3242 87.8281 26.2643 88.4219 26.1445C89.0208 26.0195 89.5703 25.8346 90.0703 25.5898ZM82.5781 27.2383C82.2135 27.2383 81.901 27.3685 81.6406 27.6289C81.3854 27.8841 81.2578 28.1914 81.2578 28.5508C81.2578 28.9154 81.3854 29.2279 81.6406 29.4883C81.901 29.7435 82.2135 29.8711 82.5781 29.8711C82.9427 29.8711 83.2526 29.7435 83.5078 29.4883C83.7682 29.2279 83.8984 28.9154 83.8984 28.5508C83.8984 28.1862 83.7682 27.8763 83.5078 27.6211C83.2526 27.3659 82.9427 27.2383 82.5781 27.2383ZM90.1953 32.4102C90.9505 32.4102 91.5964 32.6784 92.1328 33.2148C92.6693 33.7513 92.9375 34.3997 92.9375 35.1602C92.9375 35.9154 92.6693 36.5612 92.1328 37.0977C91.5964 37.6341 90.9505 37.9023 90.1953 37.9023C89.4349 37.9023 88.7865 37.6341 88.25 37.0977C87.7188 36.5612 87.4531 35.9154 87.4531 35.1602C87.4531 34.3997 87.7188 33.7513 88.25 33.2148C88.7865 32.6784 89.4349 32.4102 90.1953 32.4102ZM90.1875 33.8242C89.8177 33.8242 89.5026 33.9544 89.2422 34.2148C88.987 34.4753 88.8594 34.7878 88.8594 35.1523C88.8594 35.5169 88.987 35.8294 89.2422 36.0898C89.5026 36.3503 89.8177 36.4805 90.1875 36.4805C90.5521 36.4805 90.862 36.3503 91.1172 36.0898C91.3776 35.8294 91.5078 35.5169 91.5078 35.1523C91.5078 34.7878 91.3776 34.4753 91.1172 34.2148C90.862 33.9544 90.5521 33.8242 90.1875 33.8242ZM98.9141 26.0977H101.086V37.5898H98.9141V26.0977ZM103.32 29.0898H105.445V29.957C105.93 29.5508 106.367 29.2695 106.758 29.1133C107.154 28.9518 107.557 28.8711 107.969 28.8711C108.812 28.8711 109.529 29.1654 110.117 29.7539C110.612 30.2539 110.859 30.9935 110.859 31.9727V37.5898H108.75V33.8633C108.75 32.8477 108.703 32.1732 108.609 31.8398C108.521 31.5065 108.362 31.2539 108.133 31.082C107.909 30.9049 107.63 30.8164 107.297 30.8164C106.865 30.8164 106.492 30.9622 106.18 31.2539C105.872 31.5404 105.659 31.9388 105.539 32.4492C105.477 32.7148 105.445 33.2904 105.445 34.1758V37.5898H103.32V29.0898ZM121.25 30.8086L119.477 31.7852C119.143 31.4362 118.812 31.194 118.484 31.0586C118.161 30.9232 117.781 30.8555 117.344 30.8555C116.547 30.8555 115.901 31.0951 115.406 31.5742C114.917 32.0482 114.672 32.6576 114.672 33.4023C114.672 34.1263 114.909 34.7174 115.383 35.1758C115.857 35.6341 116.479 35.8633 117.25 35.8633C118.203 35.8633 118.945 35.5378 119.477 34.8867L121.156 36.0352C120.245 37.2174 118.958 37.8086 117.297 37.8086C115.802 37.8086 114.63 37.3659 113.781 36.4805C112.938 35.5951 112.516 34.5586 112.516 33.3711C112.516 32.5482 112.721 31.7904 113.133 31.0977C113.544 30.4049 114.117 29.8607 114.852 29.4648C115.591 29.069 116.417 28.8711 117.328 28.8711C118.172 28.8711 118.93 29.0404 119.602 29.3789C120.273 29.7122 120.823 30.1888 121.25 30.8086ZM122.68 29.0898H124.508V30.1602C124.706 29.7383 124.969 29.418 125.297 29.1992C125.625 28.9805 125.984 28.8711 126.375 28.8711C126.651 28.8711 126.94 28.944 127.242 29.0898L126.578 30.9258C126.328 30.8008 126.122 30.7383 125.961 30.7383C125.633 30.7383 125.354 30.9414 125.125 31.3477C124.901 31.7539 124.789 32.5508 124.789 33.7383L124.797 34.1523V37.5898H122.68V29.0898ZM136.82 33.957H129.969C130.068 34.5612 130.331 35.043 130.758 35.4023C131.19 35.7565 131.74 35.9336 132.406 35.9336C133.203 35.9336 133.888 35.6549 134.461 35.0977L136.258 35.9414C135.81 36.5768 135.273 37.0482 134.648 37.3555C134.023 37.6576 133.281 37.8086 132.422 37.8086C131.089 37.8086 130.003 37.3893 129.164 36.5508C128.326 35.707 127.906 34.6523 127.906 33.3867C127.906 32.0898 128.323 31.0143 129.156 30.1602C129.995 29.3008 131.044 28.8711 132.305 28.8711C133.643 28.8711 134.732 29.3008 135.57 30.1602C136.409 31.0143 136.828 32.1445 136.828 33.5508L136.82 33.957ZM134.68 32.2773C134.539 31.8034 134.26 31.418 133.844 31.1211C133.432 30.8242 132.953 30.6758 132.406 30.6758C131.812 30.6758 131.292 30.8424 130.844 31.1758C130.562 31.3841 130.302 31.7513 130.062 32.2773H134.68ZM138.539 29.0898H140.68V30.0664C141.044 29.6654 141.448 29.3659 141.891 29.168C142.339 28.9701 142.826 28.8711 143.352 28.8711C143.883 28.8711 144.362 29.0013 144.789 29.2617C145.216 29.5221 145.56 29.9023 145.82 30.4023C146.159 29.9023 146.573 29.5221 147.062 29.2617C147.557 29.0013 148.096 28.8711 148.68 28.8711C149.284 28.8711 149.815 29.0117 150.273 29.293C150.732 29.5742 151.06 29.9414 151.258 30.3945C151.461 30.8477 151.562 31.5846 151.562 32.6055V37.5898H149.414V33.2773C149.414 32.3138 149.294 31.6628 149.055 31.3242C148.815 30.9805 148.456 30.8086 147.977 30.8086C147.612 30.8086 147.284 30.9128 146.992 31.1211C146.706 31.3294 146.492 31.6185 146.352 31.9883C146.211 32.3529 146.141 32.9414 146.141 33.7539V37.5898H143.992V33.4727C143.992 32.7122 143.935 32.1628 143.82 31.8242C143.711 31.4805 143.544 31.2253 143.32 31.0586C143.096 30.8919 142.826 30.8086 142.508 30.8086C142.154 30.8086 141.831 30.9154 141.539 31.1289C141.253 31.3372 141.036 31.6315 140.891 32.0117C140.75 32.3919 140.68 32.9909 140.68 33.8086V37.5898H138.539V29.0898ZM162.117 33.957H155.266C155.365 34.5612 155.628 35.043 156.055 35.4023C156.487 35.7565 157.036 35.9336 157.703 35.9336C158.5 35.9336 159.185 35.6549 159.758 35.0977L161.555 35.9414C161.107 36.5768 160.57 37.0482 159.945 37.3555C159.32 37.6576 158.578 37.8086 157.719 37.8086C156.385 37.8086 155.299 37.3893 154.461 36.5508C153.622 35.707 153.203 34.6523 153.203 33.3867C153.203 32.0898 153.62 31.0143 154.453 30.1602C155.292 29.3008 156.341 28.8711 157.602 28.8711C158.94 28.8711 160.029 29.3008 160.867 30.1602C161.706 31.0143 162.125 32.1445 162.125 33.5508L162.117 33.957ZM159.977 32.2773C159.836 31.8034 159.557 31.418 159.141 31.1211C158.729 30.8242 158.25 30.6758 157.703 30.6758C157.109 30.6758 156.589 30.8424 156.141 31.1758C155.859 31.3841 155.599 31.7513 155.359 32.2773H159.977ZM163.852 29.0898H165.977V29.957C166.461 29.5508 166.898 29.2695 167.289 29.1133C167.685 28.9518 168.089 28.8711 168.5 28.8711C169.344 28.8711 170.06 29.1654 170.648 29.7539C171.143 30.2539 171.391 30.9935 171.391 31.9727V37.5898H169.281V33.8633C169.281 32.8477 169.234 32.1732 169.141 31.8398C169.052 31.5065 168.893 31.2539 168.664 31.082C168.44 30.9049 168.161 30.8164 167.828 30.8164C167.396 30.8164 167.023 30.9622 166.711 31.2539C166.404 31.5404 166.19 31.9388 166.07 32.4492C166.008 32.7148 165.977 33.2904 165.977 34.1758V37.5898H163.852V29.0898ZM173.719 25.957H175.844V29.0898H177.109V30.9258H175.844V37.5898H173.719V30.9258H172.625V29.0898H173.719V25.957ZM182.25 28.8711C183.052 28.8711 183.805 29.0716 184.508 29.4727C185.216 29.8737 185.768 30.418 186.164 31.1055C186.56 31.793 186.758 32.5352 186.758 33.332C186.758 34.1341 186.557 34.8841 186.156 35.582C185.76 36.2799 185.219 36.8268 184.531 37.2227C183.844 37.6133 183.086 37.8086 182.258 37.8086C181.039 37.8086 179.997 37.3763 179.133 36.5117C178.273 35.6419 177.844 34.5872 177.844 33.3477C177.844 32.0195 178.331 30.9128 179.305 30.0273C180.159 29.2565 181.141 28.8711 182.25 28.8711ZM182.281 30.8789C181.62 30.8789 181.068 31.1107 180.625 31.5742C180.188 32.0326 179.969 32.6211 179.969 33.3398C179.969 34.0794 180.185 34.6784 180.617 35.1367C181.055 35.5951 181.607 35.8242 182.273 35.8242C182.94 35.8242 183.495 35.5924 183.938 35.1289C184.38 34.6654 184.602 34.069 184.602 33.3398C184.602 32.6107 184.383 32.0195 183.945 31.5664C183.513 31.1081 182.958 30.8789 182.281 30.8789Z" fill="#272727"/>
<g opacity="0.2">
<g opacity="0.5">
<rect width="181" height="0.6" transform="translate(42 77.5898)" fill="#747474"/>
</g>
<g opacity="0.5">
<rect width="181" height="0.6" transform="translate(42 97.1895)" fill="#747474"/>
</g>
<g opacity="0.5">
<rect width="181" height="0.6" transform="translate(42 116.79)" fill="#747474"/>
</g>
<g opacity="0.5">
<rect width="181" height="0.6" transform="translate(42 136.39)" fill="#747474"/>
</g>
<g opacity="0.5">
<rect width="181" height="0.6" transform="translate(42 155.99)" fill="#747474"/>
</g>
<g opacity="0.5">
<rect width="181" height="0.6" transform="translate(42 175.59)" fill="#747474"/>
</g>
<g opacity="0.5">
<rect width="181" height="0.6" transform="translate(42 195.189)" fill="#747474"/>
</g>
<g opacity="0.5">
<rect width="181" height="0.6" transform="translate(42 214.79)" fill="#747474"/>
</g>
<g opacity="0.5">
<rect width="181" height="0.6" transform="translate(42 234.39)" fill="#747474"/>
</g>
<g opacity="0.5">
<rect width="181" height="0.6" transform="translate(42 253.99)" fill="#747474"/>
</g>
<g opacity="0.5">
<rect width="181" height="0.6" transform="translate(42 273.59)" fill="#747474"/>
</g>
</g>
<path d="M82 191.59C82 188.828 84.2386 186.59 87 186.59V186.59C89.7614 186.59 92 188.828 92 191.59V271.59C92 272.694 91.1046 273.59 90 273.59H84C82.8954 273.59 82 272.694 82 271.59V191.59Z" fill="#FF6300"/>
<path d="M173 161.59C173 158.828 175.239 156.59 178 156.59V156.59C180.761 156.59 183 158.828 183 161.59V271.59C183 272.694 182.105 273.59 181 273.59H175C173.895 273.59 173 272.694 173 271.59V161.59Z" fill="#272727"/>
<path d="M14.3564 273.992H17.042V274.588H14.3564V273.992ZM19.21 269.808H20.6211V276.99H19.9082V270.511H18.7803L19.21 269.808ZM23.2236 273.401C23.2236 272.454 23.3245 271.722 23.5264 271.204C23.7314 270.687 24.0195 270.294 24.3906 270.027C24.7617 269.76 25.1768 269.627 25.6357 269.627C26.1012 269.627 26.5228 269.762 26.9004 270.032C27.278 270.299 27.5758 270.701 27.7939 271.238C28.0153 271.775 28.126 272.496 28.126 273.401C28.126 274.303 28.0169 275.021 27.7988 275.555C27.584 276.089 27.2861 276.492 26.9053 276.766C26.5244 277.036 26.1012 277.171 25.6357 277.171C25.1768 277.171 24.7633 277.039 24.3955 276.775C24.0277 276.512 23.7396 276.119 23.5312 275.599C23.3262 275.075 23.2236 274.342 23.2236 273.401ZM23.9023 273.416C23.9023 274.227 23.974 274.84 24.1172 275.257C24.2637 275.67 24.4785 275.984 24.7617 276.199C25.0449 276.414 25.3444 276.521 25.6602 276.521C25.9792 276.521 26.277 276.417 26.5537 276.209C26.8304 275.997 27.0404 275.682 27.1836 275.262C27.3626 274.751 27.4521 274.135 27.4521 273.416C27.4521 272.693 27.3724 272.103 27.2129 271.644C27.0534 271.181 26.832 270.844 26.5488 270.633C26.2689 270.418 25.9727 270.311 25.6602 270.311C25.3411 270.311 25.0417 270.418 24.7617 270.633C24.4818 270.844 24.2686 271.159 24.1221 271.575C23.9756 271.989 23.9023 272.602 23.9023 273.416ZM28.7705 273.401C28.7705 272.454 28.8714 271.722 29.0732 271.204C29.2783 270.687 29.5664 270.294 29.9375 270.027C30.3086 269.76 30.7236 269.627 31.1826 269.627C31.6481 269.627 32.0697 269.762 32.4473 270.032C32.8249 270.299 33.1227 270.701 33.3408 271.238C33.5622 271.775 33.6729 272.496 33.6729 273.401C33.6729 274.303 33.5638 275.021 33.3457 275.555C33.1309 276.089 32.833 276.492 32.4521 276.766C32.0713 277.036 31.6481 277.171 31.1826 277.171C30.7236 277.171 30.3102 277.039 29.9424 276.775C29.5745 276.512 29.2865 276.119 29.0781 275.599C28.873 275.075 28.7705 274.342 28.7705 273.401ZM29.4492 273.416C29.4492 274.227 29.5208 274.84 29.6641 275.257C29.8105 275.67 30.0254 275.984 30.3086 276.199C30.5918 276.414 30.8913 276.521 31.207 276.521C31.526 276.521 31.8239 276.417 32.1006 276.209C32.3773 275.997 32.5872 275.682 32.7305 275.262C32.9095 274.751 32.999 274.135 32.999 273.416C32.999 272.693 32.9193 272.103 32.7598 271.644C32.6003 271.181 32.3789 270.844 32.0957 270.633C31.8158 270.418 31.5195 270.311 31.207 270.311C30.888 270.311 30.5885 270.418 30.3086 270.633C30.0286 270.844 29.8154 271.159 29.6689 271.575C29.5225 271.989 29.4492 272.602 29.4492 273.416Z" fill="#747474"/>
<path d="M19.9033 233.992H22.5889V234.588H19.9033V233.992ZM26.5732 229.627L27.1641 230.013L25.2256 232.952C25.486 232.864 25.7301 232.82 25.958 232.82C26.5277 232.82 27.0111 233.027 27.4082 233.44C27.8053 233.851 28.0039 234.357 28.0039 234.959C28.0039 235.372 27.9079 235.747 27.7158 236.082C27.5238 236.414 27.2503 236.679 26.8955 236.878C26.5439 237.073 26.1647 237.171 25.7578 237.171C25.3639 237.171 24.9977 237.076 24.6592 236.888C24.3239 236.696 24.0602 236.427 23.8682 236.082C23.6761 235.737 23.5801 235.368 23.5801 234.974C23.5801 234.681 23.6387 234.373 23.7559 234.051C23.8763 233.725 24.0895 233.335 24.3955 232.879L26.5732 229.627ZM25.7871 233.45C25.3704 233.45 25.014 233.598 24.7178 233.895C24.4248 234.188 24.2783 234.544 24.2783 234.964C24.2783 235.381 24.4248 235.737 24.7178 236.033C25.014 236.326 25.3704 236.473 25.7871 236.473C26.2038 236.473 26.5586 236.326 26.8516 236.033C27.1478 235.737 27.2959 235.381 27.2959 234.964C27.2959 234.544 27.1478 234.188 26.8516 233.895C26.5586 233.598 26.2038 233.45 25.7871 233.45ZM28.7705 233.401C28.7705 232.454 28.8714 231.722 29.0732 231.204C29.2783 230.687 29.5664 230.294 29.9375 230.027C30.3086 229.76 30.7236 229.627 31.1826 229.627C31.6481 229.627 32.0697 229.762 32.4473 230.032C32.8249 230.299 33.1227 230.701 33.3408 231.238C33.5622 231.775 33.6729 232.496 33.6729 233.401C33.6729 234.303 33.5638 235.021 33.3457 235.555C33.1309 236.089 32.833 236.492 32.4521 236.766C32.0713 237.036 31.6481 237.171 31.1826 237.171C30.7236 237.171 30.3102 237.039 29.9424 236.775C29.5745 236.512 29.2865 236.119 29.0781 235.599C28.873 235.075 28.7705 234.342 28.7705 233.401ZM29.4492 233.416C29.4492 234.227 29.5208 234.84 29.6641 235.257C29.8105 235.67 30.0254 235.984 30.3086 236.199C30.5918 236.414 30.8913 236.521 31.207 236.521C31.526 236.521 31.8239 236.417 32.1006 236.209C32.3773 235.997 32.5872 235.682 32.7305 235.262C32.9095 234.751 32.999 234.135 32.999 233.416C32.999 232.693 32.9193 232.103 32.7598 231.644C32.6003 231.181 32.3789 230.844 32.0957 230.633C31.8158 230.418 31.5195 230.311 31.207 230.311C30.888 230.311 30.5885 230.418 30.3086 230.633C30.0286 230.844 29.8154 231.159 29.6689 231.575C29.5225 231.989 29.4492 232.602 29.4492 233.416Z" fill="#747474"/>
<path d="M19.9033 193.992H22.5889V194.588H19.9033V193.992ZM24.0635 192.059H23.375C23.3945 191.349 23.6305 190.766 24.083 190.311C24.5387 189.855 25.1003 189.627 25.7676 189.627C26.4284 189.627 26.9622 189.84 27.3691 190.267C27.7793 190.693 27.9844 191.196 27.9844 191.775C27.9844 192.182 27.8867 192.565 27.6914 192.923C27.4961 193.278 27.1169 193.759 26.5537 194.368L24.7666 196.297H28.082V196.99H23.2041L25.9482 194.026C26.5049 193.431 26.8662 192.99 27.0322 192.703C27.2015 192.413 27.2861 192.109 27.2861 191.79C27.2861 191.386 27.1348 191.04 26.832 190.75C26.5326 190.457 26.1647 190.311 25.7285 190.311C25.2695 190.311 24.887 190.464 24.5811 190.77C24.2783 191.076 24.1058 191.505 24.0635 192.059ZM28.7705 193.401C28.7705 192.454 28.8714 191.722 29.0732 191.204C29.2783 190.687 29.5664 190.294 29.9375 190.027C30.3086 189.76 30.7236 189.627 31.1826 189.627C31.6481 189.627 32.0697 189.762 32.4473 190.032C32.8249 190.299 33.1227 190.701 33.3408 191.238C33.5622 191.775 33.6729 192.496 33.6729 193.401C33.6729 194.303 33.5638 195.021 33.3457 195.555C33.1309 196.089 32.833 196.492 32.4521 196.766C32.0713 197.036 31.6481 197.171 31.1826 197.171C30.7236 197.171 30.3102 197.039 29.9424 196.775C29.5745 196.512 29.2865 196.119 29.0781 195.599C28.873 195.075 28.7705 194.342 28.7705 193.401ZM29.4492 193.416C29.4492 194.227 29.5208 194.84 29.6641 195.257C29.8105 195.67 30.0254 195.984 30.3086 196.199C30.5918 196.414 30.8913 196.521 31.207 196.521C31.526 196.521 31.8239 196.417 32.1006 196.209C32.3773 195.997 32.5872 195.682 32.7305 195.262C32.9095 194.751 32.999 194.135 32.999 193.416C32.999 192.693 32.9193 192.103 32.7598 191.644C32.6003 191.181 32.3789 190.844 32.0957 190.633C31.8158 190.418 31.5195 190.311 31.207 190.311C30.888 190.311 30.5885 190.418 30.3086 190.633C30.0286 190.844 29.8154 191.159 29.6689 191.575C29.5225 191.989 29.4492 192.602 29.4492 193.416Z" fill="#747474"/>
<path d="M24.0635 152.059H23.375C23.3945 151.349 23.6305 150.766 24.083 150.311C24.5387 149.855 25.1003 149.627 25.7676 149.627C26.4284 149.627 26.9622 149.84 27.3691 150.267C27.7793 150.693 27.9844 151.196 27.9844 151.775C27.9844 152.182 27.8867 152.565 27.6914 152.923C27.4961 153.278 27.1169 153.759 26.5537 154.368L24.7666 156.297H28.082V156.99H23.2041L25.9482 154.026C26.5049 153.431 26.8662 152.99 27.0322 152.703C27.2015 152.413 27.2861 152.109 27.2861 151.79C27.2861 151.386 27.1348 151.04 26.832 150.75C26.5326 150.457 26.1647 150.311 25.7285 150.311C25.2695 150.311 24.887 150.464 24.5811 150.77C24.2783 151.076 24.1058 151.505 24.0635 152.059ZM28.7705 153.401C28.7705 152.454 28.8714 151.722 29.0732 151.204C29.2783 150.687 29.5664 150.294 29.9375 150.027C30.3086 149.76 30.7236 149.627 31.1826 149.627C31.6481 149.627 32.0697 149.762 32.4473 150.032C32.8249 150.299 33.1227 150.701 33.3408 151.238C33.5622 151.775 33.6729 152.496 33.6729 153.401C33.6729 154.303 33.5638 155.021 33.3457 155.555C33.1309 156.089 32.833 156.492 32.4521 156.766C32.0713 157.036 31.6481 157.171 31.1826 157.171C30.7236 157.171 30.3102 157.039 29.9424 156.775C29.5745 156.512 29.2865 156.119 29.0781 155.599C28.873 155.075 28.7705 154.342 28.7705 153.401ZM29.4492 153.416C29.4492 154.227 29.5208 154.84 29.6641 155.257C29.8105 155.67 30.0254 155.984 30.3086 156.199C30.5918 156.414 30.8913 156.521 31.207 156.521C31.526 156.521 31.8239 156.417 32.1006 156.209C32.3773 155.997 32.5872 155.682 32.7305 155.262C32.9095 154.751 32.999 154.135 32.999 153.416C32.999 152.693 32.9193 152.103 32.7598 151.644C32.6003 151.181 32.3789 150.844 32.0957 150.633C31.8158 150.418 31.5195 150.311 31.207 150.311C30.888 150.311 30.5885 150.418 30.3086 150.633C30.0286 150.844 29.8154 151.159 29.6689 151.575C29.5225 151.989 29.4492 152.602 29.4492 153.416Z" fill="#747474"/>
<path d="M26.5732 109.627L27.1641 110.013L25.2256 112.952C25.486 112.864 25.7301 112.82 25.958 112.82C26.5277 112.82 27.0111 113.027 27.4082 113.44C27.8053 113.851 28.0039 114.357 28.0039 114.959C28.0039 115.372 27.9079 115.747 27.7158 116.082C27.5238 116.414 27.2503 116.679 26.8955 116.878C26.5439 117.073 26.1647 117.171 25.7578 117.171C25.3639 117.171 24.9977 117.076 24.6592 116.888C24.3239 116.696 24.0602 116.427 23.8682 116.082C23.6761 115.737 23.5801 115.368 23.5801 114.974C23.5801 114.681 23.6387 114.373 23.7559 114.051C23.8763 113.725 24.0895 113.335 24.3955 112.879L26.5732 109.627ZM25.7871 113.45C25.3704 113.45 25.014 113.598 24.7178 113.895C24.4248 114.188 24.2783 114.544 24.2783 114.964C24.2783 115.381 24.4248 115.737 24.7178 116.033C25.014 116.326 25.3704 116.473 25.7871 116.473C26.2038 116.473 26.5586 116.326 26.8516 116.033C27.1478 115.737 27.2959 115.381 27.2959 114.964C27.2959 114.544 27.1478 114.188 26.8516 113.895C26.5586 113.598 26.2038 113.45 25.7871 113.45ZM28.7705 113.401C28.7705 112.454 28.8714 111.722 29.0732 111.204C29.2783 110.687 29.5664 110.294 29.9375 110.027C30.3086 109.76 30.7236 109.627 31.1826 109.627C31.6481 109.627 32.0697 109.762 32.4473 110.032C32.8249 110.299 33.1227 110.701 33.3408 111.238C33.5622 111.775 33.6729 112.496 33.6729 113.401C33.6729 114.303 33.5638 115.021 33.3457 115.555C33.1309 116.089 32.833 116.492 32.4521 116.766C32.0713 117.036 31.6481 117.171 31.1826 117.171C30.7236 117.171 30.3102 117.039 29.9424 116.775C29.5745 116.512 29.2865 116.119 29.0781 115.599C28.873 115.075 28.7705 114.342 28.7705 113.401ZM29.4492 113.416C29.4492 114.227 29.5208 114.84 29.6641 115.257C29.8105 115.67 30.0254 115.984 30.3086 116.199C30.5918 116.414 30.8913 116.521 31.207 116.521C31.526 116.521 31.8239 116.417 32.1006 116.209C32.3773 115.997 32.5872 115.682 32.7305 115.262C32.9095 114.751 32.999 114.135 32.999 113.416C32.999 112.693 32.9193 112.103 32.7598 111.644C32.6003 111.181 32.3789 110.844 32.0957 110.633C31.8158 110.418 31.5195 110.311 31.207 110.311C30.888 110.311 30.5885 110.418 30.3086 110.633C30.0286 110.844 29.8154 111.159 29.6689 111.575C29.5225 111.989 29.4492 112.602 29.4492 113.416Z" fill="#747474"/>
<path d="M19.21 73.8076H20.6211V80.9902H19.9082V74.5107H18.7803L19.21 73.8076ZM23.2236 77.4014C23.2236 76.4541 23.3245 75.7217 23.5264 75.2041C23.7314 74.6865 24.0195 74.2943 24.3906 74.0273C24.7617 73.7604 25.1768 73.627 25.6357 73.627C26.1012 73.627 26.5228 73.762 26.9004 74.0322C27.278 74.2992 27.5758 74.7012 27.7939 75.2383C28.0153 75.7754 28.126 76.4964 28.126 77.4014C28.126 78.3031 28.0169 79.0208 27.7988 79.5547C27.584 80.0885 27.2861 80.4922 26.9053 80.7656C26.5244 81.0358 26.1012 81.1709 25.6357 81.1709C25.1768 81.1709 24.7633 81.0391 24.3955 80.7754C24.0277 80.5117 23.7396 80.1195 23.5312 79.5986C23.3262 79.0745 23.2236 78.3421 23.2236 77.4014ZM23.9023 77.416C23.9023 78.2266 23.974 78.8402 24.1172 79.2568C24.2637 79.6702 24.4785 79.9844 24.7617 80.1992C25.0449 80.4141 25.3444 80.5215 25.6602 80.5215C25.9792 80.5215 26.277 80.4173 26.5537 80.209C26.8304 79.9974 27.0404 79.6816 27.1836 79.2617C27.3626 78.7507 27.4521 78.1354 27.4521 77.416C27.4521 76.6934 27.3724 76.1025 27.2129 75.6436C27.0534 75.1813 26.832 74.8444 26.5488 74.6328C26.2689 74.418 25.9727 74.3105 25.6602 74.3105C25.3411 74.3105 25.0417 74.418 24.7617 74.6328C24.4818 74.8444 24.2686 75.1585 24.1221 75.5752C23.9756 75.9886 23.9023 76.6022 23.9023 77.416ZM28.7705 77.4014C28.7705 76.4541 28.8714 75.7217 29.0732 75.2041C29.2783 74.6865 29.5664 74.2943 29.9375 74.0273C30.3086 73.7604 30.7236 73.627 31.1826 73.627C31.6481 73.627 32.0697 73.762 32.4473 74.0322C32.8249 74.2992 33.1227 74.7012 33.3408 75.2383C33.5622 75.7754 33.6729 76.4964 33.6729 77.4014C33.6729 78.3031 33.5638 79.0208 33.3457 79.5547C33.1309 80.0885 32.833 80.4922 32.4521 80.7656C32.0713 81.0358 31.6481 81.1709 31.1826 81.1709C30.7236 81.1709 30.3102 81.0391 29.9424 80.7754C29.5745 80.5117 29.2865 80.1195 29.0781 79.5986C28.873 79.0745 28.7705 78.3421 28.7705 77.4014ZM29.4492 77.416C29.4492 78.2266 29.5208 78.8402 29.6641 79.2568C29.8105 79.6702 30.0254 79.9844 30.3086 80.1992C30.5918 80.4141 30.8913 80.5215 31.207 80.5215C31.526 80.5215 31.8239 80.4173 32.1006 80.209C32.3773 79.9974 32.5872 79.6816 32.7305 79.2617C32.9095 78.7507 32.999 78.1354 32.999 77.416C32.999 76.6934 32.9193 76.1025 32.7598 75.6436C32.6003 75.1813 32.3789 74.8444 32.0957 74.6328C31.8158 74.418 31.5195 74.3105 31.207 74.3105C30.888 74.3105 30.5885 74.418 30.3086 74.6328C30.0286 74.8444 29.8154 75.1585 29.6689 75.5752C29.5225 75.9886 29.4492 76.6022 29.4492 77.416Z" fill="#747474"/>
<path d="M67.667 290.431H69.0537L71.8174 297.613H70.3965L69.835 296.134H66.9053L66.3193 297.613H64.8984L67.667 290.431ZM68.3701 292.335L67.4131 294.801H69.3223L68.3701 292.335ZM76.6611 292.301H77.9893V296.852C77.9893 297.75 77.8086 298.411 77.4473 298.834C76.9622 299.407 76.2314 299.693 75.2549 299.693C74.734 299.693 74.2962 299.628 73.9414 299.498C73.5866 299.368 73.2871 299.176 73.043 298.922C72.7988 298.671 72.6182 298.365 72.501 298.004H73.9707C74.1009 298.154 74.2686 298.266 74.4736 298.341C74.6787 298.419 74.9212 298.458 75.2012 298.458C75.5592 298.458 75.8473 298.403 76.0654 298.292C76.2835 298.181 76.4365 298.038 76.5244 297.862C76.6156 297.687 76.6611 297.384 76.6611 296.954C76.4268 297.188 76.181 297.358 75.9238 297.462C75.6667 297.563 75.3753 297.613 75.0498 297.613C74.3369 297.613 73.7347 297.356 73.2432 296.842C72.7516 296.327 72.5059 295.676 72.5059 294.889C72.5059 294.046 72.7663 293.368 73.2871 292.857C73.7591 292.395 74.3223 292.164 74.9766 292.164C75.2826 292.164 75.5706 292.221 75.8408 292.335C76.1143 292.446 76.3877 292.63 76.6611 292.887V292.301ZM75.2793 293.409C74.8594 293.409 74.5127 293.551 74.2393 293.834C73.9658 294.114 73.8291 294.467 73.8291 294.894C73.8291 295.336 73.9691 295.699 74.249 295.982C74.529 296.266 74.8805 296.407 75.3037 296.407C75.7171 296.407 76.0573 296.269 76.3242 295.992C76.5944 295.715 76.7295 295.353 76.7295 294.903C76.7295 294.461 76.5944 294.101 76.3242 293.824C76.054 293.548 75.7057 293.409 75.2793 293.409ZM81.832 292.164C82.3333 292.164 82.8037 292.289 83.2432 292.54C83.6859 292.791 84.0309 293.131 84.2783 293.561C84.5257 293.99 84.6494 294.454 84.6494 294.952C84.6494 295.453 84.5241 295.922 84.2734 296.358C84.026 296.795 83.6875 297.136 83.2578 297.384C82.8281 297.628 82.3545 297.75 81.8369 297.75C81.0752 297.75 80.4242 297.48 79.8838 296.939C79.3467 296.396 79.0781 295.737 79.0781 294.962C79.0781 294.132 79.3825 293.44 79.9912 292.887C80.5251 292.405 81.1387 292.164 81.832 292.164ZM81.8516 293.419C81.4382 293.419 81.0931 293.564 80.8164 293.854C80.543 294.14 80.4062 294.508 80.4062 294.957C80.4062 295.419 80.5413 295.794 80.8115 296.08C81.085 296.367 81.43 296.51 81.8467 296.51C82.2633 296.51 82.61 296.365 82.8867 296.075C83.1634 295.785 83.3018 295.413 83.3018 294.957C83.3018 294.501 83.165 294.132 82.8916 293.849C82.6214 293.562 82.2747 293.419 81.8516 293.419ZM89.6152 292.745H88.2822C88.318 291.97 88.5605 291.362 89.0098 290.919C89.4622 290.473 90.0417 290.25 90.748 290.25C91.1842 290.25 91.5684 290.343 91.9004 290.528C92.2357 290.711 92.5026 290.976 92.7012 291.324C92.903 291.669 93.0039 292.021 93.0039 292.379C93.0039 292.805 92.8818 293.264 92.6377 293.756C92.3968 294.247 91.9541 294.828 91.3096 295.499L90.5039 296.349H93.0625V297.613H88.0869V296.959L90.3086 294.693C90.8457 294.15 91.2021 293.714 91.3779 293.385C91.557 293.053 91.6465 292.753 91.6465 292.486C91.6465 292.21 91.5537 291.982 91.3682 291.803C91.1859 291.62 90.9499 291.529 90.6602 291.529C90.3672 291.529 90.123 291.638 89.9277 291.856C89.7324 292.075 89.6283 292.371 89.6152 292.745ZM96.2559 290.25C96.7799 290.25 97.2308 290.379 97.6084 290.636C97.9893 290.893 98.2822 291.287 98.4873 291.817C98.6956 292.345 98.7998 293.08 98.7998 294.024C98.7998 294.978 98.694 295.72 98.4824 296.251C98.2741 296.782 97.9925 297.172 97.6377 297.423C97.2829 297.67 96.8353 297.794 96.2949 297.794C95.7546 297.794 95.3005 297.669 94.9326 297.418C94.5648 297.167 94.2767 296.786 94.0684 296.275C93.86 295.764 93.7559 295.037 93.7559 294.093C93.7559 292.774 93.9593 291.819 94.3662 291.227C94.8187 290.576 95.4486 290.25 96.2559 290.25ZM96.29 291.549C96.0589 291.549 95.8538 291.624 95.6748 291.773C95.4958 291.92 95.359 292.174 95.2646 292.535C95.1702 292.896 95.123 293.425 95.123 294.122C95.123 295.03 95.2305 295.659 95.4453 296.007C95.6634 296.352 95.945 296.524 96.29 296.524C96.6221 296.524 96.8857 296.36 97.0811 296.031C97.3187 295.634 97.4375 294.97 97.4375 294.039C97.4375 293.095 97.3301 292.444 97.1152 292.086C96.9036 291.728 96.6286 291.549 96.29 291.549ZM100.826 292.745H99.4932C99.529 291.97 99.7715 291.362 100.221 290.919C100.673 290.473 101.253 290.25 101.959 290.25C102.395 290.25 102.779 290.343 103.111 290.528C103.447 290.711 103.714 290.976 103.912 291.324C104.114 291.669 104.215 292.021 104.215 292.379C104.215 292.805 104.093 293.264 103.849 293.756C103.608 294.247 103.165 294.828 102.521 295.499L101.715 296.349H104.273V297.613H99.2979V296.959L101.52 294.693C102.057 294.15 102.413 293.714 102.589 293.385C102.768 293.053 102.857 292.753 102.857 292.486C102.857 292.21 102.765 291.982 102.579 291.803C102.397 291.62 102.161 291.529 101.871 291.529C101.578 291.529 101.334 291.638 101.139 291.856C100.943 292.075 100.839 292.371 100.826 292.745ZM106.432 292.745H105.099C105.134 291.97 105.377 291.362 105.826 290.919C106.279 290.473 106.858 290.25 107.564 290.25C108.001 290.25 108.385 290.343 108.717 290.528C109.052 290.711 109.319 290.976 109.518 291.324C109.719 291.669 109.82 292.021 109.82 292.379C109.82 292.805 109.698 293.264 109.454 293.756C109.213 294.247 108.771 294.828 108.126 295.499L107.32 296.349H109.879V297.613H104.903V296.959L107.125 294.693C107.662 294.15 108.019 293.714 108.194 293.385C108.373 293.053 108.463 292.753 108.463 292.486C108.463 292.21 108.37 291.982 108.185 291.803C108.002 291.62 107.766 291.529 107.477 291.529C107.184 291.529 106.939 291.638 106.744 291.856C106.549 292.075 106.445 292.371 106.432 292.745Z" fill="#272727"/>
<path d="M158.667 290.431H160.054L162.817 297.613H161.396L160.835 296.134H157.905L157.319 297.613H155.898L158.667 290.431ZM159.37 292.335L158.413 294.801H160.322L159.37 292.335ZM167.661 292.301H168.989V296.852C168.989 297.75 168.809 298.411 168.447 298.834C167.962 299.407 167.231 299.693 166.255 299.693C165.734 299.693 165.296 299.628 164.941 299.498C164.587 299.368 164.287 299.176 164.043 298.922C163.799 298.671 163.618 298.365 163.501 298.004H164.971C165.101 298.154 165.269 298.266 165.474 298.341C165.679 298.419 165.921 298.458 166.201 298.458C166.559 298.458 166.847 298.403 167.065 298.292C167.284 298.181 167.437 298.038 167.524 297.862C167.616 297.687 167.661 297.384 167.661 296.954C167.427 297.188 167.181 297.358 166.924 297.462C166.667 297.563 166.375 297.613 166.05 297.613C165.337 297.613 164.735 297.356 164.243 296.842C163.752 296.327 163.506 295.676 163.506 294.889C163.506 294.046 163.766 293.368 164.287 292.857C164.759 292.395 165.322 292.164 165.977 292.164C166.283 292.164 166.571 292.221 166.841 292.335C167.114 292.446 167.388 292.63 167.661 292.887V292.301ZM166.279 293.409C165.859 293.409 165.513 293.551 165.239 293.834C164.966 294.114 164.829 294.467 164.829 294.894C164.829 295.336 164.969 295.699 165.249 295.982C165.529 296.266 165.881 296.407 166.304 296.407C166.717 296.407 167.057 296.269 167.324 295.992C167.594 295.715 167.729 295.353 167.729 294.903C167.729 294.461 167.594 294.101 167.324 293.824C167.054 293.548 166.706 293.409 166.279 293.409ZM172.832 292.164C173.333 292.164 173.804 292.289 174.243 292.54C174.686 292.791 175.031 293.131 175.278 293.561C175.526 293.99 175.649 294.454 175.649 294.952C175.649 295.453 175.524 295.922 175.273 296.358C175.026 296.795 174.688 297.136 174.258 297.384C173.828 297.628 173.354 297.75 172.837 297.75C172.075 297.75 171.424 297.48 170.884 296.939C170.347 296.396 170.078 295.737 170.078 294.962C170.078 294.132 170.382 293.44 170.991 292.887C171.525 292.405 172.139 292.164 172.832 292.164ZM172.852 293.419C172.438 293.419 172.093 293.564 171.816 293.854C171.543 294.14 171.406 294.508 171.406 294.957C171.406 295.419 171.541 295.794 171.812 296.08C172.085 296.367 172.43 296.51 172.847 296.51C173.263 296.51 173.61 296.365 173.887 296.075C174.163 295.785 174.302 295.413 174.302 294.957C174.302 294.501 174.165 294.132 173.892 293.849C173.621 293.562 173.275 293.419 172.852 293.419ZM180.615 292.745H179.282C179.318 291.97 179.561 291.362 180.01 290.919C180.462 290.473 181.042 290.25 181.748 290.25C182.184 290.25 182.568 290.343 182.9 290.528C183.236 290.711 183.503 290.976 183.701 291.324C183.903 291.669 184.004 292.021 184.004 292.379C184.004 292.805 183.882 293.264 183.638 293.756C183.397 294.247 182.954 294.828 182.31 295.499L181.504 296.349H184.062V297.613H179.087V296.959L181.309 294.693C181.846 294.15 182.202 293.714 182.378 293.385C182.557 293.053 182.646 292.753 182.646 292.486C182.646 292.21 182.554 291.982 182.368 291.803C182.186 291.62 181.95 291.529 181.66 291.529C181.367 291.529 181.123 291.638 180.928 291.856C180.732 292.075 180.628 292.371 180.615 292.745ZM187.256 290.25C187.78 290.25 188.231 290.379 188.608 290.636C188.989 290.893 189.282 291.287 189.487 291.817C189.696 292.345 189.8 293.08 189.8 294.024C189.8 294.978 189.694 295.72 189.482 296.251C189.274 296.782 188.993 297.172 188.638 297.423C188.283 297.67 187.835 297.794 187.295 297.794C186.755 297.794 186.3 297.669 185.933 297.418C185.565 297.167 185.277 296.786 185.068 296.275C184.86 295.764 184.756 295.037 184.756 294.093C184.756 292.774 184.959 291.819 185.366 291.227C185.819 290.576 186.449 290.25 187.256 290.25ZM187.29 291.549C187.059 291.549 186.854 291.624 186.675 291.773C186.496 291.92 186.359 292.174 186.265 292.535C186.17 292.896 186.123 293.425 186.123 294.122C186.123 295.03 186.23 295.659 186.445 296.007C186.663 296.352 186.945 296.524 187.29 296.524C187.622 296.524 187.886 296.36 188.081 296.031C188.319 295.634 188.438 294.97 188.438 294.039C188.438 293.095 188.33 292.444 188.115 292.086C187.904 291.728 187.629 291.549 187.29 291.549ZM191.826 292.745H190.493C190.529 291.97 190.771 291.362 191.221 290.919C191.673 290.473 192.253 290.25 192.959 290.25C193.395 290.25 193.779 290.343 194.111 290.528C194.447 290.711 194.714 290.976 194.912 291.324C195.114 291.669 195.215 292.021 195.215 292.379C195.215 292.805 195.093 293.264 194.849 293.756C194.608 294.247 194.165 294.828 193.521 295.499L192.715 296.349H195.273V297.613H190.298V296.959L192.52 294.693C193.057 294.15 193.413 293.714 193.589 293.385C193.768 293.053 193.857 292.753 193.857 292.486C193.857 292.21 193.765 291.982 193.579 291.803C193.397 291.62 193.161 291.529 192.871 291.529C192.578 291.529 192.334 291.638 192.139 291.856C191.943 292.075 191.839 292.371 191.826 292.745ZM197.588 292.203H196.274C196.343 291.673 196.533 291.246 196.846 290.924C197.282 290.475 197.83 290.25 198.491 290.25C199.08 290.25 199.574 290.437 199.971 290.812C200.371 291.186 200.571 291.63 200.571 292.145C200.571 292.464 200.483 292.755 200.308 293.019C200.135 293.282 199.883 293.495 199.551 293.658C199.987 293.788 200.327 294.016 200.571 294.342C200.819 294.664 200.942 295.045 200.942 295.484C200.942 296.129 200.705 296.676 200.229 297.125C199.754 297.571 199.149 297.794 198.413 297.794C197.716 297.794 197.148 297.584 196.709 297.164C196.27 296.741 196.029 296.166 195.986 295.44H197.339C197.397 295.812 197.526 296.088 197.725 296.271C197.926 296.45 198.18 296.539 198.486 296.539C198.805 296.539 199.069 296.437 199.277 296.231C199.489 296.026 199.595 295.776 199.595 295.479C199.595 295.154 199.453 294.879 199.17 294.654C198.887 294.43 198.478 294.314 197.944 294.308V293.136C198.273 293.11 198.517 293.059 198.677 292.984C198.84 292.906 198.965 292.8 199.053 292.667C199.144 292.534 199.189 292.392 199.189 292.242C199.189 292.047 199.121 291.886 198.984 291.759C198.848 291.629 198.669 291.563 198.447 291.563C198.252 291.563 198.075 291.624 197.915 291.744C197.756 291.861 197.646 292.014 197.588 292.203Z" fill="#272727"/>
</svg>
