<svg width="280" height="280" viewBox="0 0 280 280" fill="none" xmlns="http://www.w3.org/2000/svg">
<path d="M46.6739 244.996C47.6039 245.109 48.544 245.109 49.4739 244.996L96.1406 233.329C98.2108 232.837 100.107 231.788 101.624 230.296L245.007 86.4462C249.353 82.0744 251.792 76.1605 251.792 69.9962C251.792 63.8319 249.353 57.918 245.007 53.5462L226.574 34.9962C224.407 32.8267 221.834 31.1057 219.001 29.9315C216.168 28.7572 213.132 28.1528 210.066 28.1528C206.999 28.1528 203.963 28.7572 201.13 29.9315C198.298 31.1057 195.724 32.8267 193.557 34.9962L50.1739 178.38C48.6665 179.903 47.581 181.793 47.0239 183.863L35.3573 230.53C34.938 232.039 34.827 233.618 35.0309 235.171C35.2349 236.724 35.7497 238.221 36.5445 239.571C37.3393 240.921 38.3979 242.097 39.6572 243.029C40.9165 243.961 42.3506 244.63 43.8739 244.996C44.8039 245.109 45.744 245.109 46.6739 244.996ZM210.007 51.4462L228.557 69.9962L210.007 88.5462L191.574 69.9962L210.007 51.4462ZM68.9573 192.613L175.007 86.4462L193.557 104.996L87.3906 211.163L62.7739 217.23L68.9573 192.613Z" fill="#181D1F"/>
</svg>
