<svg width="127" height="159" viewBox="0 0 127 159" fill="none" xmlns="http://www.w3.org/2000/svg">
<path d="M54.082 -7.83203H129.915C135.949 -7.83203 141.736 -5.43516 146.002 -1.16871C150.269 3.09774 152.665 8.88429 152.665 14.918V121.085C152.665 127.118 150.269 132.905 146.002 137.171C141.736 141.438 135.949 143.835 129.915 143.835H54.082C48.0484 143.835 42.2618 141.438 37.9954 137.171C33.7289 132.905 31.332 127.118 31.332 121.085V14.918C31.332 8.88429 33.7289 3.09774 37.9954 -1.16871C42.2618 -5.43516 48.0484 -7.83203 54.082 -7.83203ZM61.6654 45.2513C59.6541 45.2513 57.7253 46.0503 56.3031 47.4724C54.881 48.8946 54.082 50.8234 54.082 52.8346C54.082 54.8459 54.881 56.7747 56.3031 58.1969C57.7253 59.619 59.6541 60.418 61.6654 60.418H122.332C124.343 60.418 126.272 59.619 127.694 58.1969C129.116 56.7747 129.915 54.8459 129.915 52.8346C129.915 50.8234 129.116 48.8946 127.694 47.4724C126.272 46.0503 124.343 45.2513 122.332 45.2513H61.6654ZM61.6654 105.918C59.6541 105.918 57.7253 106.717 56.3031 108.139C54.881 109.561 54.082 111.49 54.082 113.501C54.082 115.513 54.881 117.441 56.3031 118.864C57.7253 120.286 59.6541 121.085 61.6654 121.085H99.582C101.593 121.085 103.522 120.286 104.944 118.864C106.366 117.441 107.165 115.513 107.165 113.501C107.165 111.49 106.366 109.561 104.944 108.139C103.522 106.717 101.593 105.918 99.582 105.918H61.6654ZM61.6654 14.918C59.6541 14.918 57.7253 15.7169 56.3031 17.1391C54.881 18.5612 54.082 20.4901 54.082 22.5013C54.082 24.5125 54.881 26.4414 56.3031 27.8635C57.7253 29.2857 59.6541 30.0846 61.6654 30.0846H122.332C124.343 30.0846 126.272 29.2857 127.694 27.8635C129.116 26.4414 129.915 24.5125 129.915 22.5013C129.915 20.4901 129.116 18.5612 127.694 17.1391C126.272 15.7169 124.343 14.918 122.332 14.918H61.6654ZM61.6654 75.5846C59.6541 75.5846 57.7253 76.3836 56.3031 77.8057C54.881 79.2279 54.082 81.1567 54.082 83.168C54.082 85.1792 54.881 87.108 56.3031 88.5302C57.7253 89.9523 59.6541 90.7513 61.6654 90.7513H122.332C124.343 90.7513 126.272 89.9523 127.694 88.5302C129.116 87.108 129.915 85.1792 129.915 83.168C129.915 81.1567 129.116 79.2279 127.694 77.8057C126.272 76.3836 124.343 75.5846 122.332 75.5846H61.6654Z" fill="#DCD8C9"/>
</svg>
