<svg width="127" height="159" viewBox="0 0 127 159" fill="none" xmlns="http://www.w3.org/2000/svg">
<path d="M31.4399 -0.75L151.56 -0.75C152.988 -0.749108 154.387 -0.344866 155.596 0.416183C156.805 1.17723 157.774 2.26415 158.392 3.55179C159.01 4.83943 159.252 6.27544 159.089 7.6945C158.927 9.11355 158.368 10.458 157.475 11.5729L108.335 73.0055C107.256 74.3499 106.668 76.0215 106.667 77.7451V116.792C106.667 117.969 106.392 119.13 105.866 120.183C105.34 121.236 104.575 122.152 103.633 122.858L88.4666 134.233C87.3399 135.078 86.0002 135.593 84.5976 135.719C83.195 135.846 81.7849 135.579 80.5252 134.949C79.2656 134.32 78.2062 133.351 77.4658 132.153C76.7254 130.955 76.3333 129.575 76.3333 128.167V77.7375C76.3302 76.0166 75.7419 74.3478 74.6649 73.0055L25.5249 11.5729C24.6322 10.458 24.0726 9.11355 23.9104 7.6945C23.7482 6.27544 23.99 4.83943 24.6081 3.55179C25.2262 2.26415 26.1953 1.17723 27.404 0.416183C28.6126 -0.344866 30.0116 -0.749108 31.4399 -0.75Z" fill="#DCD8C9"/>
</svg>
