<svg width="33" height="24" viewBox="0 0 33 24" fill="none" xmlns="http://www.w3.org/2000/svg">
<path opacity="0.4" d="M32.7319 0.514648C32.1588 2.93455 31.5538 5.54549 30.917 8.34749C30.2802 11.1495 29.7071 13.8878 29.1976 16.5624C28.6882 19.237 28.2742 21.6888 27.9558 23.9176H18.8812L18.2125 22.8669C18.7857 20.638 19.518 18.25 20.4095 15.7027C21.3011 13.0918 22.2882 10.4808 23.3707 7.86987C24.4533 5.25893 25.5041 2.80719 26.523 0.514648H32.7319ZM15.0603 0.514648C14.4872 2.93455 13.8822 5.54549 13.2454 8.34749C12.6086 11.1495 12.0354 13.8878 11.526 16.5624C11.0165 19.237 10.6026 21.6888 10.2842 23.9176H1.30507L0.731934 22.8669C1.30507 20.638 2.03741 18.25 2.92895 15.7027C3.82049 13.0918 4.77571 10.4808 5.79462 7.86987C6.87721 5.25893 7.92795 2.80719 8.94686 0.514648H15.0603Z" fill="#A69F85"/>
</svg>
