<svg width="33" height="24" viewBox="0 0 33 24" fill="none" xmlns="http://www.w3.org/2000/svg">
<g clip-path="url(#clip0_1813_5313)">
<path d="M32.3123 0.455994C31.7363 2.88799 31.1283 5.512 30.4883 8.328C29.8483 11.144 29.2723 13.896 28.7603 16.584C28.2483 19.272 27.8323 21.736 27.5123 23.976H18.3923L17.7203 22.92C18.2963 20.68 19.0323 18.28 19.9283 15.72C20.8243 13.096 21.8163 10.472 22.9043 7.848C23.9923 5.224 25.0483 2.76 26.0723 0.455994H32.3123ZM14.5523 0.455994C13.9763 2.88799 13.3683 5.512 12.7283 8.328C12.0883 11.144 11.5123 13.896 11.0003 16.584C10.4883 19.272 10.0723 21.736 9.75234 23.976H0.728344L0.152344 22.92C0.728344 20.68 1.46434 18.28 2.36034 15.72C3.25634 13.096 4.21634 10.472 5.24034 7.848C6.32834 5.224 7.38434 2.76 8.40834 0.455994H14.5523Z" fill="#FF5C00"/>
</g>
<defs>
<clipPath id="clip0_1813_5313">
<rect width="33" height="24" fill="white"/>
</clipPath>
</defs>
</svg>
