<svg width="280" height="280" viewBox="0 0 280 280" fill="none" xmlns="http://www.w3.org/2000/svg">
<path d="M116.667 210C137.375 209.995 157.487 203.063 173.799 190.306L225.086 241.593L241.582 225.096L190.296 173.81C203.059 157.496 209.996 137.38 210.001 116.666C210.001 65.2047 168.129 23.333 116.667 23.333C65.2057 23.333 23.334 65.2047 23.334 116.666C23.334 168.128 65.2057 210 116.667 210ZM116.667 46.6663C155.272 46.6663 186.667 78.0613 186.667 116.666C186.667 155.271 155.272 186.666 116.667 186.666C78.0623 186.666 46.6673 155.271 46.6673 116.666C46.6673 78.0613 78.0623 46.6663 116.667 46.6663Z" fill="#FF813A"/>
<path d="M133.141 100.17C137.562 104.603 140.001 110.46 140.001 116.667H163.334C163.344 110.535 162.139 104.462 159.788 98.799C157.437 93.1359 153.987 87.995 149.637 83.6734C131.974 66.0334 101.349 66.0334 83.6973 83.6734L100.171 100.193C109.037 91.35 124.321 91.3734 133.141 100.17Z" fill="#FF813A"/>
</svg>
