<svg width="8" height="8" viewBox="0 0 8 8" fill="none" xmlns="http://www.w3.org/2000/svg">
<path d="M3.99902 8.00334C4.2599 8.00334 4.47367 7.81133 4.50989 7.53957C4.86858 5.11928 5.19828 4.78233 7.52441 4.51785C7.79249 4.48523 7.99902 4.26061 7.99902 3.99973C7.99902 3.73522 7.79613 3.51784 7.52801 3.47798C5.21641 3.15552 4.9302 2.87291 4.50989 0.456259C4.46279 0.188138 4.25626 -0.00390625 3.99902 -0.00390625C3.73454 -0.00390625 3.52437 0.188138 3.48091 0.459863C3.12947 2.87655 2.79976 3.2135 0.477279 3.47798C0.201916 3.51423 -0.000976562 3.73161 -0.000976562 3.99973C-0.000976562 4.26061 0.194672 4.47799 0.470036 4.51785C2.78524 4.84756 3.06785 5.12652 3.48091 7.54321C3.53525 7.81493 3.74539 8.00334 3.99902 8.00334Z" fill="#272727"/>
</svg>
