<svg width="16" height="16" viewBox="0 0 16 16" fill="none" xmlns="http://www.w3.org/2000/svg">
<path d="M8.01905 15.5C7.78249 15.5 7.58253 15.3287 7.52524 15.0992C7.34264 14.3677 6.99308 13.5898 6.47656 12.7657C5.86459 11.776 4.99219 10.8581 3.85938 10.0117C2.87412 9.26705 1.88886 8.75923 0.903604 8.48833C0.670254 8.4242 0.5 8.21728 0.5 7.97527C0.5 7.738 0.663705 7.53346 0.891855 7.46832C1.85784 7.19251 2.78841 6.74473 3.68359 6.125C4.71224 5.40885 5.57161 4.54948 6.26172 3.54688C6.87222 2.65374 7.2913 1.77041 7.51897 0.896905C7.57861 0.668071 7.78007 0.5 8.01658 0.5C8.25568 0.5 8.45855 0.671793 8.51675 0.903747C8.64815 1.4274 8.8535 1.9634 9.1328 2.51172C9.4844 3.1888 9.93358 3.83984 10.4805 4.46485C11.0403 5.07682 11.6654 5.63021 12.3555 6.125C13.2573 6.76423 14.174 7.21333 15.1058 7.4723C15.3344 7.53582 15.5 7.73933 15.5 7.97656C15.5 8.21735 15.3294 8.42255 15.0972 8.48623C14.5066 8.64815 13.8986 8.9093 13.2735 9.26953C12.5182 9.71225 11.8151 10.2396 11.164 10.8516C10.513 11.4505 9.97918 12.082 9.56248 12.7461C9.04498 13.572 8.69503 14.3559 8.51278 15.0979C8.45623 15.3281 8.25598 15.5 8.01905 15.5Z" fill="#272727"/>
</svg>
