<svg width="48" height="49" viewBox="0 0 48 49" fill="none" xmlns="http://www.w3.org/2000/svg">
<path d="M26.0661 16.5219V20.5779C26.0661 20.7259 26.0601 20.8739 26.0501 21.0199C26.1099 21.2837 26.2227 21.5326 26.3815 21.7516C26.5403 21.9705 26.7419 22.155 26.9741 22.2939L33.1461 25.9859C34.0365 26.5185 34.7737 27.273 35.2855 28.1756C35.7973 29.0783 36.0662 30.0982 36.0661 31.1359V33.2539C37.3953 33.7417 38.5092 34.6837 39.211 35.9134C39.9128 37.1432 40.1573 38.5814 39.9012 39.974C39.6451 41.3665 38.9049 42.6237 37.8115 43.5233C36.7181 44.4229 35.3419 44.9069 33.9261 44.8899C32.5103 44.873 31.1461 44.356 30.0747 43.4304C29.0032 42.5049 28.2934 41.2303 28.0708 39.832C27.8482 38.4337 28.1271 37.0017 28.8582 35.7892C29.5893 34.5767 30.7255 33.6616 32.0661 33.2059V31.1359C32.0659 30.79 31.9761 30.4501 31.8054 30.1494C31.6347 29.8486 31.3889 29.5973 31.0921 29.4199L24.9201 25.7279C24.6049 25.5395 24.3076 25.3226 24.0321 25.0799C23.7571 25.3225 23.4606 25.5394 23.1461 25.7279L16.9741 29.4199C16.6772 29.5973 16.4314 29.8486 16.2607 30.1494C16.09 30.4501 16.0002 30.79 16.0001 31.1359V33.2299C17.335 33.7017 18.4602 34.6303 19.1768 35.8515C19.8933 37.0727 20.155 38.5079 19.9157 39.9034C19.6763 41.299 18.9513 42.5649 17.8688 43.4776C16.7863 44.3903 15.416 44.8908 14.0001 44.8908C12.5842 44.8908 11.2138 44.3903 10.1313 43.4776C9.0488 42.5649 8.32379 41.299 8.08444 39.9034C7.84509 38.5079 8.10681 37.0727 8.82334 35.8515C9.53987 34.6303 10.6651 33.7017 12.0001 33.2299V31.1359C11.9999 30.0982 12.2689 29.0783 12.7807 28.1756C13.2924 27.273 14.0296 26.5185 14.9201 25.9859L21.0921 22.2939C21.3242 22.155 21.5258 21.9705 21.6846 21.7516C21.8435 21.5326 21.9562 21.2837 22.0161 21.0199C22.0053 20.8728 22 20.7253 22.0001 20.5779V16.5459C20.6679 16.0751 19.5445 15.1495 18.8276 13.932C18.1108 12.7145 17.8464 11.2831 18.0811 9.8898C18.3158 8.49654 19.0345 7.23073 20.1106 6.31522C21.1868 5.39972 22.5514 4.89321 23.9643 4.88487C25.3772 4.87653 26.7477 5.36689 27.8346 6.26963C28.9215 7.17237 29.655 8.42961 29.9062 9.82C30.1573 11.2104 29.9098 12.6448 29.2074 13.8707C28.505 15.0966 27.3926 16.0354 26.0661 16.5219Z" fill="#272727"/>
</svg>
