<svg width="48" height="49" viewBox="0 0 48 49" fill="none" xmlns="http://www.w3.org/2000/svg">
<path d="M22 31.6045H21.898C21.3946 31.6045 20.9119 31.4045 20.5559 31.0486C20.2 30.6926 20 30.2099 20 29.7065C20 29.1761 19.7893 28.6674 19.4142 28.2923C19.0391 27.9172 18.5304 27.7065 18 27.7065C17.4696 27.7065 16.9609 27.9172 16.5858 28.2923C16.2107 28.6674 16 29.1761 16 29.7065C16 31.2707 16.6214 32.7709 17.7275 33.877C18.8336 34.9831 20.3338 35.6045 21.898 35.6045H22V37.6045C22 38.1349 22.2107 38.6436 22.5858 39.0187C22.9609 39.3938 23.4696 39.6045 24 39.6045C24.5304 39.6045 25.0391 39.3938 25.4142 39.0187C25.7893 38.6436 26 38.1349 26 37.6045V35.6045C27.5913 35.6045 29.1174 34.9724 30.2426 33.8471C31.3679 32.7219 32 31.1958 32 29.6045C32 28.0132 31.3679 26.4871 30.2426 25.3619C29.1174 24.2366 27.5913 23.6045 26 23.6045V19.6045H26.044C27.124 19.6045 28 20.4805 28 21.5605C28 22.0909 28.2107 22.5996 28.5858 22.9747C28.9609 23.3498 29.4696 23.5605 30 23.5605C30.5304 23.5605 31.0391 23.3498 31.4142 22.9747C31.7893 22.5996 32 22.0909 32 21.5605C32 19.9809 31.3725 18.4659 30.2555 17.349C29.1386 16.232 27.6236 15.6045 26.044 15.6045H26V13.6045C26 13.0741 25.7893 12.5654 25.4142 12.1903C25.0391 11.8152 24.5304 11.6045 24 11.6045C23.4696 11.6045 22.9609 11.8152 22.5858 12.1903C22.2107 12.5654 22 13.0741 22 13.6045V15.6045C21.2121 15.6045 20.4319 15.7597 19.7039 16.0612C18.9759 16.3627 18.3145 16.8047 17.7574 17.3619C17.2002 17.919 16.7583 18.5804 16.4567 19.3084C16.1552 20.0363 16 20.8166 16 21.6045C16 22.3924 16.1552 23.1726 16.4567 23.9006C16.7583 24.6285 17.2002 25.29 17.7574 25.8471C18.3145 26.4043 18.9759 26.8462 19.7039 27.1478C20.4319 27.4493 21.2121 27.6045 22 27.6045V31.6045ZM26 31.6045V27.6045C26.5304 27.6045 27.0391 27.8152 27.4142 28.1903C27.7893 28.5654 28 29.0741 28 29.6045C28 30.1349 27.7893 30.6436 27.4142 31.0187C27.0391 31.3938 26.5304 31.6045 26 31.6045ZM22 19.6045V23.6045C21.4696 23.6045 20.9609 23.3938 20.5858 23.0187C20.2107 22.6436 20 22.1349 20 21.6045C20 21.0741 20.2107 20.5654 20.5858 20.1903C20.9609 19.8152 21.4696 19.6045 22 19.6045ZM24 45.6045C12.954 45.6045 4 36.6505 4 25.6045C4 14.5585 12.954 5.60449 24 5.60449C35.046 5.60449 44 14.5585 44 25.6045C44 36.6505 35.046 45.6045 24 45.6045Z" fill="#272727"/>
</svg>
