<svg width="48" height="49" viewBox="0 0 48 49" fill="none" xmlns="http://www.w3.org/2000/svg">
<path d="M24 45.6045C12.954 45.6045 4 36.6505 4 25.6045C4 14.5585 12.954 5.60449 24 5.60449C35.046 5.60449 44 14.5585 44 25.6045C44 36.6505 35.046 45.6045 24 45.6045ZM16.16 32.3925C16.817 33.9274 17.9101 35.2357 19.3038 36.1552C20.6975 37.0746 22.3304 37.5647 24 37.5647C25.6696 37.5647 27.3025 37.0746 28.6962 36.1552C30.0899 35.2357 31.183 33.9274 31.84 32.3925C31.9435 32.1509 31.9984 31.8912 32.0015 31.6284C32.0046 31.3655 31.956 31.1046 31.8583 30.8606C31.7606 30.6166 31.6158 30.3942 31.4322 30.2061C31.2485 30.018 31.0296 29.868 30.788 29.7645C30.5464 29.661 30.2867 29.6061 30.0239 29.603C29.761 29.5999 29.5002 29.6485 29.2561 29.7462C29.0121 29.8439 28.7897 29.9887 28.6016 30.1723C28.4135 30.356 28.2635 30.5749 28.16 30.8165C27.8104 31.6299 27.23 32.3229 26.4906 32.8099C25.7513 33.2969 24.8853 33.5564 24 33.5564C23.1147 33.5564 22.2487 33.2969 21.5094 32.8099C20.77 32.3229 20.1896 31.6299 19.84 30.8165C19.7365 30.5749 19.5865 30.356 19.3984 30.1723C19.2103 29.9887 18.9879 29.8439 18.7439 29.7462C18.4998 29.6485 18.239 29.5999 17.9761 29.603C17.7133 29.6061 17.4536 29.661 17.212 29.7645C16.9704 29.868 16.7515 30.018 16.5678 30.2061C16.3842 30.3942 16.2394 30.6166 16.1417 30.8606C16.044 31.1046 15.9954 31.3655 15.9985 31.6284C16.0016 31.8912 16.0565 32.1509 16.16 32.3925ZM18 17.6045C17.4696 17.6045 16.9609 17.8152 16.5858 18.1903C16.2107 18.5654 16 19.0741 16 19.6045V23.6045C16 24.1349 16.2107 24.6436 16.5858 25.0187C16.9609 25.3938 17.4696 25.6045 18 25.6045C18.5304 25.6045 19.0391 25.3938 19.4142 25.0187C19.7893 24.6436 20 24.1349 20 23.6045V19.6045C20 19.0741 19.7893 18.5654 19.4142 18.1903C19.0391 17.8152 18.5304 17.6045 18 17.6045ZM30 17.6045C29.4696 17.6045 28.9609 17.8152 28.5858 18.1903C28.2107 18.5654 28 19.0741 28 19.6045V23.6045C28 24.1349 28.2107 24.6436 28.5858 25.0187C28.9609 25.3938 29.4696 25.6045 30 25.6045C30.5304 25.6045 31.0391 25.3938 31.4142 25.0187C31.7893 24.6436 32 24.1349 32 23.6045V19.6045C32 19.0741 31.7893 18.5654 31.4142 18.1903C31.0391 17.8152 30.5304 17.6045 30 17.6045Z" fill="#272727"/>
</svg>
