<svg width="48" height="49" viewBox="0 0 48 49" fill="none" xmlns="http://www.w3.org/2000/svg">
<path d="M10 24.8887C8.4087 24.8887 6.88258 24.2565 5.75736 23.1313C4.63214 22.0061 4 20.48 4 18.8887V10.8887C4 9.29737 4.63214 7.77125 5.75736 6.64603C6.88258 5.52081 8.4087 4.88867 10 4.88867H38C39.5913 4.88867 41.1174 5.52081 42.2426 6.64603C43.3679 7.77125 44 9.29737 44 10.8887V18.8887C44 20.48 43.3679 22.0061 42.2426 23.1313C41.1174 24.2565 39.5913 24.8887 38 24.8887C39.5913 24.8887 41.1174 25.5208 42.2426 26.646C43.3679 27.7712 44 29.2974 44 30.8887V38.8887C44 40.48 43.3679 42.0061 42.2426 43.1313C41.1174 44.2565 39.5913 44.8887 38 44.8887H10C8.4087 44.8887 6.88258 44.2565 5.75736 43.1313C4.63214 42.0061 4 40.48 4 38.8887V30.8887C4 29.2974 4.63214 27.7712 5.75736 26.646C6.88258 25.5208 8.4087 24.8887 10 24.8887ZM20 36.8887C20.5304 36.8887 21.0391 36.678 21.4142 36.3029C21.7893 35.9278 22 35.4191 22 34.8887C22 34.3582 21.7893 33.8495 21.4142 33.4745C21.0391 33.0994 20.5304 32.8887 20 32.8887C19.4696 32.8887 18.9609 33.0994 18.5858 33.4745C18.2107 33.8495 18 34.3582 18 34.8887C18 35.4191 18.2107 35.9278 18.5858 36.3029C18.9609 36.678 19.4696 36.8887 20 36.8887ZM14 36.8887C14.5304 36.8887 15.0391 36.678 15.4142 36.3029C15.7893 35.9278 16 35.4191 16 34.8887C16 34.3582 15.7893 33.8495 15.4142 33.4745C15.0391 33.0994 14.5304 32.8887 14 32.8887C13.4696 32.8887 12.9609 33.0994 12.5858 33.4745C12.2107 33.8495 12 34.3582 12 34.8887C12 35.4191 12.2107 35.9278 12.5858 36.3029C12.9609 36.678 13.4696 36.8887 14 36.8887ZM14 16.8887C14.5304 16.8887 15.0391 16.678 15.4142 16.3029C15.7893 15.9278 16 15.4191 16 14.8887C16 14.3582 15.7893 13.8495 15.4142 13.4745C15.0391 13.0994 14.5304 12.8887 14 12.8887C13.4696 12.8887 12.9609 13.0994 12.5858 13.4745C12.2107 13.8495 12 14.3582 12 14.8887C12 15.4191 12.2107 15.9278 12.5858 16.3029C12.9609 16.678 13.4696 16.8887 14 16.8887ZM20 16.8887C20.5304 16.8887 21.0391 16.678 21.4142 16.3029C21.7893 15.9278 22 15.4191 22 14.8887C22 14.3582 21.7893 13.8495 21.4142 13.4745C21.0391 13.0994 20.5304 12.8887 20 12.8887C19.4696 12.8887 18.9609 13.0994 18.5858 13.4745C18.2107 13.8495 18 14.3582 18 14.8887C18 15.4191 18.2107 15.9278 18.5858 16.3029C18.9609 16.678 19.4696 16.8887 20 16.8887Z" fill="#272727"/>
</svg>
