<svg width="48" height="49" viewBox="0 0 48 49" fill="none" xmlns="http://www.w3.org/2000/svg">
<path d="M44 18.8887H4V14.8887C4 13.8278 4.42143 12.8104 5.17157 12.0602C5.92172 11.3101 6.93913 10.8887 8 10.8887H40C41.0609 10.8887 42.0783 11.3101 42.8284 12.0602C43.5786 12.8104 44 13.8278 44 14.8887V18.8887ZM44 24.8887V34.8887C44 35.9495 43.5786 36.967 42.8284 37.7171C42.0783 38.4672 41.0609 38.8887 40 38.8887H8C6.93913 38.8887 5.92172 38.4672 5.17157 37.7171C4.42143 36.967 4 35.9495 4 34.8887V24.8887H44ZM12 28.8887C11.4696 28.8887 10.9609 29.0994 10.5858 29.4745C10.2107 29.8495 10 30.3582 10 30.8887C10 31.4191 10.2107 31.9278 10.5858 32.3029C10.9609 32.678 11.4696 32.8887 12 32.8887H14C14.5304 32.8887 15.0391 32.678 15.4142 32.3029C15.7893 31.9278 16 31.4191 16 30.8887C16 30.3582 15.7893 29.8495 15.4142 29.4745C15.0391 29.0994 14.5304 28.8887 14 28.8887H12ZM22 28.8887C21.4696 28.8887 20.9609 29.0994 20.5858 29.4745C20.2107 29.8495 20 30.3582 20 30.8887C20 31.4191 20.2107 31.9278 20.5858 32.3029C20.9609 32.678 21.4696 32.8887 22 32.8887H32C32.5304 32.8887 33.0391 32.678 33.4142 32.3029C33.7893 31.9278 34 31.4191 34 30.8887C34 30.3582 33.7893 29.8495 33.4142 29.4745C33.0391 29.0994 32.5304 28.8887 32 28.8887H22Z" fill="#272727"/>
</svg>
