<svg width="253" height="343" viewBox="0 0 253 343" fill="none" xmlns="http://www.w3.org/2000/svg">
<rect x="2" y="2.58984" width="249" height="338" rx="6" fill="#F3F4ED"/>
<rect x="2" y="2.58984" width="249" height="338" rx="6" stroke="#EFEBDD" stroke-width="4"/>
<g opacity="0.2">
<g opacity="0.5">
<rect width="181" height="0.6" transform="translate(42 77.5898)" fill="#747474"/>
</g>
<g opacity="0.5">
<rect width="181" height="0.6" transform="translate(42 97.1895)" fill="#747474"/>
</g>
<g opacity="0.5">
<rect width="181" height="0.6" transform="translate(42 116.79)" fill="#747474"/>
</g>
<g opacity="0.5">
<rect width="181" height="0.6" transform="translate(42 136.39)" fill="#747474"/>
</g>
<g opacity="0.5">
<rect width="181" height="0.6" transform="translate(42 155.99)" fill="#747474"/>
</g>
<g opacity="0.5">
<rect width="181" height="0.6" transform="translate(42 175.59)" fill="#747474"/>
</g>
<g opacity="0.5">
<rect width="181" height="0.6" transform="translate(42 195.189)" fill="#747474"/>
</g>
<g opacity="0.5">
<rect width="181" height="0.6" transform="translate(42 214.79)" fill="#747474"/>
</g>
<g opacity="0.5">
<rect width="181" height="0.6" transform="translate(42 234.39)" fill="#747474"/>
</g>
<g opacity="0.5">
<rect width="181" height="0.6" transform="translate(42 253.99)" fill="#747474"/>
</g>
<g opacity="0.5">
<rect width="181" height="0.6" transform="translate(42 273.59)" fill="#747474"/>
</g>
</g>
<path d="M82 180.59C82 177.828 84.2386 175.59 87 175.59V175.59C89.7614 175.59 92 177.828 92 180.59V271.59C92 272.694 91.1046 273.59 90 273.59H84C82.8954 273.59 82 272.694 82 271.59V180.59Z" fill="#FF6300"/>
<path d="M173 145.59C173 142.828 175.239 140.59 178 140.59V140.59C180.761 140.59 183 142.828 183 145.59V271.59C183 272.694 182.105 273.59 181 273.59H175C173.895 273.59 173 272.694 173 271.59V145.59Z" fill="#272727"/>
<path d="M28.7705 273.401C28.7705 272.454 28.8714 271.722 29.0732 271.204C29.2783 270.687 29.5664 270.294 29.9375 270.027C30.3086 269.76 30.7236 269.627 31.1826 269.627C31.6481 269.627 32.0697 269.762 32.4473 270.032C32.8249 270.299 33.1227 270.701 33.3408 271.238C33.5622 271.775 33.6729 272.496 33.6729 273.401C33.6729 274.303 33.5638 275.021 33.3457 275.555C33.1309 276.089 32.833 276.492 32.4521 276.766C32.0713 277.036 31.6481 277.171 31.1826 277.171C30.7236 277.171 30.3102 277.039 29.9424 276.775C29.5745 276.512 29.2865 276.119 29.0781 275.599C28.873 275.075 28.7705 274.342 28.7705 273.401ZM29.4492 273.416C29.4492 274.227 29.5208 274.84 29.6641 275.257C29.8105 275.67 30.0254 275.984 30.3086 276.199C30.5918 276.414 30.8913 276.521 31.207 276.521C31.526 276.521 31.8239 276.417 32.1006 276.209C32.3773 275.997 32.5872 275.682 32.7305 275.262C32.9095 274.751 32.999 274.135 32.999 273.416C32.999 272.693 32.9193 272.103 32.7598 271.644C32.6003 271.181 32.3789 270.844 32.0957 270.633C31.8158 270.418 31.5195 270.311 31.207 270.311C30.888 270.311 30.5885 270.418 30.3086 270.633C30.0286 270.844 29.8154 271.159 29.6689 271.575C29.5225 271.989 29.4492 272.602 29.4492 273.416Z" fill="#747474"/>
<path d="M24.0635 232.059H23.375C23.3945 231.349 23.6305 230.766 24.083 230.311C24.5387 229.855 25.1003 229.627 25.7676 229.627C26.4284 229.627 26.9622 229.84 27.3691 230.267C27.7793 230.693 27.9844 231.196 27.9844 231.775C27.9844 232.182 27.8867 232.565 27.6914 232.923C27.4961 233.278 27.1169 233.759 26.5537 234.368L24.7666 236.297H28.082V236.99H23.2041L25.9482 234.026C26.5049 233.431 26.8662 232.99 27.0322 232.703C27.2015 232.413 27.2861 232.109 27.2861 231.79C27.2861 231.386 27.1348 231.04 26.832 230.75C26.5326 230.457 26.1647 230.311 25.7285 230.311C25.2695 230.311 24.887 230.464 24.5811 230.77C24.2783 231.076 24.1058 231.505 24.0635 232.059ZM28.7705 233.401C28.7705 232.454 28.8714 231.722 29.0732 231.204C29.2783 230.687 29.5664 230.294 29.9375 230.027C30.3086 229.76 30.7236 229.627 31.1826 229.627C31.6481 229.627 32.0697 229.762 32.4473 230.032C32.8249 230.299 33.1227 230.701 33.3408 231.238C33.5622 231.775 33.6729 232.496 33.6729 233.401C33.6729 234.303 33.5638 235.021 33.3457 235.555C33.1309 236.089 32.833 236.492 32.4521 236.766C32.0713 237.036 31.6481 237.171 31.1826 237.171C30.7236 237.171 30.3102 237.039 29.9424 236.775C29.5745 236.512 29.2865 236.119 29.0781 235.599C28.873 235.075 28.7705 234.342 28.7705 233.401ZM29.4492 233.416C29.4492 234.227 29.5208 234.84 29.6641 235.257C29.8105 235.67 30.0254 235.984 30.3086 236.199C30.5918 236.414 30.8913 236.521 31.207 236.521C31.526 236.521 31.8239 236.417 32.1006 236.209C32.3773 235.997 32.5872 235.682 32.7305 235.262C32.9095 234.751 32.999 234.135 32.999 233.416C32.999 232.693 32.9193 232.103 32.7598 231.644C32.6003 231.181 32.3789 230.844 32.0957 230.633C31.8158 230.418 31.5195 230.311 31.207 230.311C30.888 230.311 30.5885 230.418 30.3086 230.633C30.0286 230.844 29.8154 231.159 29.6689 231.575C29.5225 231.989 29.4492 232.602 29.4492 233.416Z" fill="#747474"/>
<path d="M27.1641 189.627H27.3105V194.632H28.1797V195.32H27.3105V196.99H26.5928V195.32H23.1602L27.1641 189.627ZM26.5928 194.632V191.639L24.4785 194.632H26.5928ZM28.7705 193.401C28.7705 192.454 28.8714 191.722 29.0732 191.204C29.2783 190.687 29.5664 190.294 29.9375 190.027C30.3086 189.76 30.7236 189.627 31.1826 189.627C31.6481 189.627 32.0697 189.762 32.4473 190.032C32.8249 190.299 33.1227 190.701 33.3408 191.238C33.5622 191.775 33.6729 192.496 33.6729 193.401C33.6729 194.303 33.5638 195.021 33.3457 195.555C33.1309 196.089 32.833 196.492 32.4521 196.766C32.0713 197.036 31.6481 197.171 31.1826 197.171C30.7236 197.171 30.3102 197.039 29.9424 196.775C29.5745 196.512 29.2865 196.119 29.0781 195.599C28.873 195.075 28.7705 194.342 28.7705 193.401ZM29.4492 193.416C29.4492 194.227 29.5208 194.84 29.6641 195.257C29.8105 195.67 30.0254 195.984 30.3086 196.199C30.5918 196.414 30.8913 196.521 31.207 196.521C31.526 196.521 31.8239 196.417 32.1006 196.209C32.3773 195.997 32.5872 195.682 32.7305 195.262C32.9095 194.751 32.999 194.135 32.999 193.416C32.999 192.693 32.9193 192.103 32.7598 191.644C32.6003 191.181 32.3789 190.844 32.0957 190.633C31.8158 190.418 31.5195 190.311 31.207 190.311C30.888 190.311 30.5885 190.418 30.3086 190.633C30.0286 190.844 29.8154 191.159 29.6689 191.575C29.5225 191.989 29.4492 192.602 29.4492 193.416Z" fill="#747474"/>
<path d="M26.5732 149.627L27.1641 150.013L25.2256 152.952C25.486 152.864 25.7301 152.82 25.958 152.82C26.5277 152.82 27.0111 153.027 27.4082 153.44C27.8053 153.851 28.0039 154.357 28.0039 154.959C28.0039 155.372 27.9079 155.747 27.7158 156.082C27.5238 156.414 27.2503 156.679 26.8955 156.878C26.5439 157.073 26.1647 157.171 25.7578 157.171C25.3639 157.171 24.9977 157.076 24.6592 156.888C24.3239 156.696 24.0602 156.427 23.8682 156.082C23.6761 155.737 23.5801 155.368 23.5801 154.974C23.5801 154.681 23.6387 154.373 23.7559 154.051C23.8763 153.725 24.0895 153.335 24.3955 152.879L26.5732 149.627ZM25.7871 153.45C25.3704 153.45 25.014 153.598 24.7178 153.895C24.4248 154.188 24.2783 154.544 24.2783 154.964C24.2783 155.381 24.4248 155.737 24.7178 156.033C25.014 156.326 25.3704 156.473 25.7871 156.473C26.2038 156.473 26.5586 156.326 26.8516 156.033C27.1478 155.737 27.2959 155.381 27.2959 154.964C27.2959 154.544 27.1478 154.188 26.8516 153.895C26.5586 153.598 26.2038 153.45 25.7871 153.45ZM28.7705 153.401C28.7705 152.454 28.8714 151.722 29.0732 151.204C29.2783 150.687 29.5664 150.294 29.9375 150.027C30.3086 149.76 30.7236 149.627 31.1826 149.627C31.6481 149.627 32.0697 149.762 32.4473 150.032C32.8249 150.299 33.1227 150.701 33.3408 151.238C33.5622 151.775 33.6729 152.496 33.6729 153.401C33.6729 154.303 33.5638 155.021 33.3457 155.555C33.1309 156.089 32.833 156.492 32.4521 156.766C32.0713 157.036 31.6481 157.171 31.1826 157.171C30.7236 157.171 30.3102 157.039 29.9424 156.775C29.5745 156.512 29.2865 156.119 29.0781 155.599C28.873 155.075 28.7705 154.342 28.7705 153.401ZM29.4492 153.416C29.4492 154.227 29.5208 154.84 29.6641 155.257C29.8105 155.67 30.0254 155.984 30.3086 156.199C30.5918 156.414 30.8913 156.521 31.207 156.521C31.526 156.521 31.8239 156.417 32.1006 156.209C32.3773 155.997 32.5872 155.682 32.7305 155.262C32.9095 154.751 32.999 154.135 32.999 153.416C32.999 152.693 32.9193 152.103 32.7598 151.644C32.6003 151.181 32.3789 150.844 32.0957 150.633C31.8158 150.418 31.5195 150.311 31.207 150.311C30.888 150.311 30.5885 150.418 30.3086 150.633C30.0286 150.844 29.8154 151.159 29.6689 151.575C29.5225 151.989 29.4492 152.602 29.4492 153.416Z" fill="#747474"/>
<path d="M26.749 113.05C27.234 113.291 27.5807 113.566 27.7891 113.875C28.0007 114.184 28.1064 114.536 28.1064 114.93C28.1064 115.483 27.9258 115.971 27.5645 116.395C27.1217 116.912 26.4886 117.171 25.665 117.171C24.8708 117.171 24.2686 116.945 23.8584 116.492C23.4482 116.036 23.2432 115.535 23.2432 114.988C23.2432 114.588 23.3506 114.228 23.5654 113.909C23.7803 113.587 24.1383 113.3 24.6396 113.05C24.2881 112.868 24.0244 112.641 23.8486 112.371C23.6729 112.101 23.585 111.811 23.585 111.502C23.585 111.189 23.6777 110.885 23.8633 110.589C24.0521 110.289 24.3109 110.055 24.6396 109.886C24.9717 109.713 25.3298 109.627 25.7139 109.627C26.0882 109.627 26.4349 109.713 26.7539 109.886C27.0729 110.058 27.3219 110.293 27.501 110.589C27.6833 110.885 27.7744 111.196 27.7744 111.521C27.7744 111.847 27.6882 112.137 27.5156 112.391C27.3464 112.645 27.0908 112.864 26.749 113.05ZM25.6797 110.325C25.2858 110.325 24.9587 110.442 24.6982 110.677C24.4411 110.908 24.3125 111.185 24.3125 111.507C24.3125 111.826 24.4508 112.116 24.7275 112.376C25.0075 112.633 25.333 112.762 25.7041 112.762C25.9417 112.762 26.1663 112.703 26.3779 112.586C26.5895 112.469 26.7539 112.309 26.8711 112.107C26.9915 111.902 27.0518 111.697 27.0518 111.492C27.0518 111.202 26.9346 110.936 26.7002 110.691C26.4658 110.447 26.1257 110.325 25.6797 110.325ZM25.7139 113.411C25.2191 113.411 24.804 113.572 24.4688 113.895C24.1335 114.214 23.9658 114.586 23.9658 115.013C23.9658 115.276 24.0374 115.525 24.1807 115.76C24.3239 115.994 24.5241 116.175 24.7812 116.302C25.0384 116.429 25.3363 116.492 25.6748 116.492C26.1989 116.492 26.6156 116.338 26.9248 116.028C27.234 115.719 27.3887 115.358 27.3887 114.944C27.3887 114.544 27.2243 114.189 26.8955 113.88C26.57 113.567 26.1761 113.411 25.7139 113.411ZM28.7705 113.401C28.7705 112.454 28.8714 111.722 29.0732 111.204C29.2783 110.687 29.5664 110.294 29.9375 110.027C30.3086 109.76 30.7236 109.627 31.1826 109.627C31.6481 109.627 32.0697 109.762 32.4473 110.032C32.8249 110.299 33.1227 110.701 33.3408 111.238C33.5622 111.775 33.6729 112.496 33.6729 113.401C33.6729 114.303 33.5638 115.021 33.3457 115.555C33.1309 116.089 32.833 116.492 32.4521 116.766C32.0713 117.036 31.6481 117.171 31.1826 117.171C30.7236 117.171 30.3102 117.039 29.9424 116.775C29.5745 116.512 29.2865 116.119 29.0781 115.599C28.873 115.075 28.7705 114.342 28.7705 113.401ZM29.4492 113.416C29.4492 114.227 29.5208 114.84 29.6641 115.257C29.8105 115.67 30.0254 115.984 30.3086 116.199C30.5918 116.414 30.8913 116.521 31.207 116.521C31.526 116.521 31.8239 116.417 32.1006 116.209C32.3773 115.997 32.5872 115.682 32.7305 115.262C32.9095 114.751 32.999 114.135 32.999 113.416C32.999 112.693 32.9193 112.103 32.7598 111.644C32.6003 111.181 32.3789 110.844 32.0957 110.633C31.8158 110.418 31.5195 110.311 31.207 110.311C30.888 110.311 30.5885 110.418 30.3086 110.633C30.0286 110.844 29.8154 111.159 29.6689 111.575C29.5225 111.989 29.4492 112.602 29.4492 113.416Z" fill="#747474"/>
<path d="M19.21 73.8076H20.6211V80.9902H19.9082V74.5107H18.7803L19.21 73.8076ZM23.2236 77.4014C23.2236 76.4541 23.3245 75.7217 23.5264 75.2041C23.7314 74.6865 24.0195 74.2943 24.3906 74.0273C24.7617 73.7604 25.1768 73.627 25.6357 73.627C26.1012 73.627 26.5228 73.762 26.9004 74.0322C27.278 74.2992 27.5758 74.7012 27.7939 75.2383C28.0153 75.7754 28.126 76.4964 28.126 77.4014C28.126 78.3031 28.0169 79.0208 27.7988 79.5547C27.584 80.0885 27.2861 80.4922 26.9053 80.7656C26.5244 81.0358 26.1012 81.1709 25.6357 81.1709C25.1768 81.1709 24.7633 81.0391 24.3955 80.7754C24.0277 80.5117 23.7396 80.1195 23.5312 79.5986C23.3262 79.0745 23.2236 78.3421 23.2236 77.4014ZM23.9023 77.416C23.9023 78.2266 23.974 78.8402 24.1172 79.2568C24.2637 79.6702 24.4785 79.9844 24.7617 80.1992C25.0449 80.4141 25.3444 80.5215 25.6602 80.5215C25.9792 80.5215 26.277 80.4173 26.5537 80.209C26.8304 79.9974 27.0404 79.6816 27.1836 79.2617C27.3626 78.7507 27.4521 78.1354 27.4521 77.416C27.4521 76.6934 27.3724 76.1025 27.2129 75.6436C27.0534 75.1813 26.832 74.8444 26.5488 74.6328C26.2689 74.418 25.9727 74.3105 25.6602 74.3105C25.3411 74.3105 25.0417 74.418 24.7617 74.6328C24.4818 74.8444 24.2686 75.1585 24.1221 75.5752C23.9756 75.9886 23.9023 76.6022 23.9023 77.416ZM28.7705 77.4014C28.7705 76.4541 28.8714 75.7217 29.0732 75.2041C29.2783 74.6865 29.5664 74.2943 29.9375 74.0273C30.3086 73.7604 30.7236 73.627 31.1826 73.627C31.6481 73.627 32.0697 73.762 32.4473 74.0322C32.8249 74.2992 33.1227 74.7012 33.3408 75.2383C33.5622 75.7754 33.6729 76.4964 33.6729 77.4014C33.6729 78.3031 33.5638 79.0208 33.3457 79.5547C33.1309 80.0885 32.833 80.4922 32.4521 80.7656C32.0713 81.0358 31.6481 81.1709 31.1826 81.1709C30.7236 81.1709 30.3102 81.0391 29.9424 80.7754C29.5745 80.5117 29.2865 80.1195 29.0781 79.5986C28.873 79.0745 28.7705 78.3421 28.7705 77.4014ZM29.4492 77.416C29.4492 78.2266 29.5208 78.8402 29.6641 79.2568C29.8105 79.6702 30.0254 79.9844 30.3086 80.1992C30.5918 80.4141 30.8913 80.5215 31.207 80.5215C31.526 80.5215 31.8239 80.4173 32.1006 80.209C32.3773 79.9974 32.5872 79.6816 32.7305 79.2617C32.9095 78.7507 32.999 78.1354 32.999 77.416C32.999 76.6934 32.9193 76.1025 32.7598 75.6436C32.6003 75.1813 32.3789 74.8444 32.0957 74.6328C31.8158 74.418 31.5195 74.3105 31.207 74.3105C30.888 74.3105 30.5885 74.418 30.3086 74.6328C30.0286 74.8444 29.8154 75.1585 29.6689 75.5752C29.5225 75.9886 29.4492 76.6022 29.4492 77.416Z" fill="#747474"/>
<path d="M67.4844 290.431H68.8711L71.6348 297.613H70.2139L69.6523 296.134H66.7227L66.1367 297.613H64.7158L67.4844 290.431ZM68.1875 292.335L67.2305 294.801H69.1396L68.1875 292.335ZM76.4785 292.301H77.8066V296.852C77.8066 297.75 77.626 298.411 77.2646 298.834C76.7796 299.407 76.0488 299.693 75.0723 299.693C74.5514 299.693 74.1136 299.628 73.7588 299.498C73.404 299.368 73.1045 299.176 72.8604 298.922C72.6162 298.671 72.4355 298.365 72.3184 298.004H73.7881C73.9183 298.154 74.0859 298.266 74.291 298.341C74.4961 298.419 74.7386 298.458 75.0186 298.458C75.3766 298.458 75.6647 298.403 75.8828 298.292C76.1009 298.181 76.2539 298.038 76.3418 297.862C76.4329 297.687 76.4785 297.384 76.4785 296.954C76.2441 297.188 75.9984 297.358 75.7412 297.462C75.484 297.563 75.1927 297.613 74.8672 297.613C74.1543 297.613 73.5521 297.356 73.0605 296.842C72.569 296.327 72.3232 295.676 72.3232 294.889C72.3232 294.046 72.5837 293.368 73.1045 292.857C73.5765 292.395 74.1396 292.164 74.7939 292.164C75.0999 292.164 75.388 292.221 75.6582 292.335C75.9316 292.446 76.2051 292.63 76.4785 292.887V292.301ZM75.0967 293.409C74.6768 293.409 74.3301 293.551 74.0566 293.834C73.7832 294.114 73.6465 294.467 73.6465 294.894C73.6465 295.336 73.7865 295.699 74.0664 295.982C74.3464 296.266 74.6979 296.407 75.1211 296.407C75.5345 296.407 75.8747 296.269 76.1416 295.992C76.4118 295.715 76.5469 295.353 76.5469 294.903C76.5469 294.461 76.4118 294.101 76.1416 293.824C75.8714 293.548 75.5231 293.409 75.0967 293.409ZM81.6494 292.164C82.1507 292.164 82.6211 292.289 83.0605 292.54C83.5033 292.791 83.8483 293.131 84.0957 293.561C84.3431 293.99 84.4668 294.454 84.4668 294.952C84.4668 295.453 84.3415 295.922 84.0908 296.358C83.8434 296.795 83.5049 297.136 83.0752 297.384C82.6455 297.628 82.1719 297.75 81.6543 297.75C80.8926 297.75 80.2415 297.48 79.7012 296.939C79.1641 296.396 78.8955 295.737 78.8955 294.962C78.8955 294.132 79.1999 293.44 79.8086 292.887C80.3424 292.405 80.9561 292.164 81.6494 292.164ZM81.6689 293.419C81.2555 293.419 80.9105 293.564 80.6338 293.854C80.3604 294.14 80.2236 294.508 80.2236 294.957C80.2236 295.419 80.3587 295.794 80.6289 296.08C80.9023 296.367 81.2474 296.51 81.6641 296.51C82.0807 296.51 82.4274 296.365 82.7041 296.075C82.9808 295.785 83.1191 295.413 83.1191 294.957C83.1191 294.501 82.9824 294.132 82.709 293.849C82.4388 293.562 82.0921 293.419 81.6689 293.419ZM89.4326 292.745H88.0996C88.1354 291.97 88.3779 291.362 88.8271 290.919C89.2796 290.473 89.859 290.25 90.5654 290.25C91.0016 290.25 91.3857 290.343 91.7178 290.528C92.0531 290.711 92.32 290.976 92.5186 291.324C92.7204 291.669 92.8213 292.021 92.8213 292.379C92.8213 292.805 92.6992 293.264 92.4551 293.756C92.2142 294.247 91.7715 294.828 91.127 295.499L90.3213 296.349H92.8799V297.613H87.9043V296.959L90.126 294.693C90.6631 294.15 91.0195 293.714 91.1953 293.385C91.3743 293.053 91.4639 292.753 91.4639 292.486C91.4639 292.21 91.3711 291.982 91.1855 291.803C91.0033 291.62 90.7673 291.529 90.4775 291.529C90.1846 291.529 89.9404 291.638 89.7451 291.856C89.5498 292.075 89.4456 292.371 89.4326 292.745ZM96.0732 290.25C96.5973 290.25 97.0482 290.379 97.4258 290.636C97.8066 290.893 98.0996 291.287 98.3047 291.817C98.513 292.345 98.6172 293.08 98.6172 294.024C98.6172 294.978 98.5114 295.72 98.2998 296.251C98.0915 296.782 97.8099 297.172 97.4551 297.423C97.1003 297.67 96.6527 297.794 96.1123 297.794C95.5719 297.794 95.1178 297.669 94.75 297.418C94.3822 297.167 94.0941 296.786 93.8857 296.275C93.6774 295.764 93.5732 295.037 93.5732 294.093C93.5732 292.774 93.7767 291.819 94.1836 291.227C94.6361 290.576 95.266 290.25 96.0732 290.25ZM96.1074 291.549C95.8763 291.549 95.6712 291.624 95.4922 291.773C95.3132 291.92 95.1764 292.174 95.082 292.535C94.9876 292.896 94.9404 293.425 94.9404 294.122C94.9404 295.03 95.0479 295.659 95.2627 296.007C95.4808 296.352 95.7624 296.524 96.1074 296.524C96.4395 296.524 96.7031 296.36 96.8984 296.031C97.1361 295.634 97.2549 294.97 97.2549 294.039C97.2549 293.095 97.1475 292.444 96.9326 292.086C96.721 291.728 96.446 291.549 96.1074 291.549ZM100.644 292.745H99.3105C99.3464 291.97 99.5889 291.362 100.038 290.919C100.491 290.473 101.07 290.25 101.776 290.25C102.213 290.25 102.597 290.343 102.929 290.528C103.264 290.711 103.531 290.976 103.729 291.324C103.931 291.669 104.032 292.021 104.032 292.379C104.032 292.805 103.91 293.264 103.666 293.756C103.425 294.247 102.982 294.828 102.338 295.499L101.532 296.349H104.091V297.613H99.1152V296.959L101.337 294.693C101.874 294.15 102.23 293.714 102.406 293.385C102.585 293.053 102.675 292.753 102.675 292.486C102.675 292.21 102.582 291.982 102.396 291.803C102.214 291.62 101.978 291.529 101.688 291.529C101.396 291.529 101.151 291.638 100.956 291.856C100.761 292.075 100.657 292.371 100.644 292.745ZM106.249 292.745H104.916C104.952 291.97 105.194 291.362 105.644 290.919C106.096 290.473 106.675 290.25 107.382 290.25C107.818 290.25 108.202 290.343 108.534 290.528C108.869 290.711 109.136 290.976 109.335 291.324C109.537 291.669 109.638 292.021 109.638 292.379C109.638 292.805 109.516 293.264 109.271 293.756C109.031 294.247 108.588 294.828 107.943 295.499L107.138 296.349H109.696V297.613H104.721V296.959L106.942 294.693C107.479 294.15 107.836 293.714 108.012 293.385C108.191 293.053 108.28 292.753 108.28 292.486C108.28 292.21 108.188 291.982 108.002 291.803C107.82 291.62 107.584 291.529 107.294 291.529C107.001 291.529 106.757 291.638 106.562 291.856C106.366 292.075 106.262 292.371 106.249 292.745Z" fill="#272727"/>
<path d="M158.484 290.431H159.871L162.635 297.613H161.214L160.652 296.134H157.723L157.137 297.613H155.716L158.484 290.431ZM159.188 292.335L158.23 294.801H160.14L159.188 292.335ZM167.479 292.301H168.807V296.852C168.807 297.75 168.626 298.411 168.265 298.834C167.78 299.407 167.049 299.693 166.072 299.693C165.551 299.693 165.114 299.628 164.759 299.498C164.404 299.368 164.104 299.176 163.86 298.922C163.616 298.671 163.436 298.365 163.318 298.004H164.788C164.918 298.154 165.086 298.266 165.291 298.341C165.496 298.419 165.739 298.458 166.019 298.458C166.377 298.458 166.665 298.403 166.883 298.292C167.101 298.181 167.254 298.038 167.342 297.862C167.433 297.687 167.479 297.384 167.479 296.954C167.244 297.188 166.998 297.358 166.741 297.462C166.484 297.563 166.193 297.613 165.867 297.613C165.154 297.613 164.552 297.356 164.061 296.842C163.569 296.327 163.323 295.676 163.323 294.889C163.323 294.046 163.584 293.368 164.104 292.857C164.576 292.395 165.14 292.164 165.794 292.164C166.1 292.164 166.388 292.221 166.658 292.335C166.932 292.446 167.205 292.63 167.479 292.887V292.301ZM166.097 293.409C165.677 293.409 165.33 293.551 165.057 293.834C164.783 294.114 164.646 294.467 164.646 294.894C164.646 295.336 164.786 295.699 165.066 295.982C165.346 296.266 165.698 296.407 166.121 296.407C166.535 296.407 166.875 296.269 167.142 295.992C167.412 295.715 167.547 295.353 167.547 294.903C167.547 294.461 167.412 294.101 167.142 293.824C166.871 293.548 166.523 293.409 166.097 293.409ZM172.649 292.164C173.151 292.164 173.621 292.289 174.061 292.54C174.503 292.791 174.848 293.131 175.096 293.561C175.343 293.99 175.467 294.454 175.467 294.952C175.467 295.453 175.341 295.922 175.091 296.358C174.843 296.795 174.505 297.136 174.075 297.384C173.646 297.628 173.172 297.75 172.654 297.75C171.893 297.75 171.242 297.48 170.701 296.939C170.164 296.396 169.896 295.737 169.896 294.962C169.896 294.132 170.2 293.44 170.809 292.887C171.342 292.405 171.956 292.164 172.649 292.164ZM172.669 293.419C172.256 293.419 171.91 293.564 171.634 293.854C171.36 294.14 171.224 294.508 171.224 294.957C171.224 295.419 171.359 295.794 171.629 296.08C171.902 296.367 172.247 296.51 172.664 296.51C173.081 296.51 173.427 296.365 173.704 296.075C173.981 295.785 174.119 295.413 174.119 294.957C174.119 294.501 173.982 294.132 173.709 293.849C173.439 293.562 173.092 293.419 172.669 293.419ZM180.433 292.745H179.1C179.135 291.97 179.378 291.362 179.827 290.919C180.28 290.473 180.859 290.25 181.565 290.25C182.002 290.25 182.386 290.343 182.718 290.528C183.053 290.711 183.32 290.976 183.519 291.324C183.72 291.669 183.821 292.021 183.821 292.379C183.821 292.805 183.699 293.264 183.455 293.756C183.214 294.247 182.771 294.828 182.127 295.499L181.321 296.349H183.88V297.613H178.904V296.959L181.126 294.693C181.663 294.15 182.02 293.714 182.195 293.385C182.374 293.053 182.464 292.753 182.464 292.486C182.464 292.21 182.371 291.982 182.186 291.803C182.003 291.62 181.767 291.529 181.478 291.529C181.185 291.529 180.94 291.638 180.745 291.856C180.55 292.075 180.446 292.371 180.433 292.745ZM187.073 290.25C187.597 290.25 188.048 290.379 188.426 290.636C188.807 290.893 189.1 291.287 189.305 291.817C189.513 292.345 189.617 293.08 189.617 294.024C189.617 294.978 189.511 295.72 189.3 296.251C189.091 296.782 188.81 297.172 188.455 297.423C188.1 297.67 187.653 297.794 187.112 297.794C186.572 297.794 186.118 297.669 185.75 297.418C185.382 297.167 185.094 296.786 184.886 296.275C184.677 295.764 184.573 295.037 184.573 294.093C184.573 292.774 184.777 291.819 185.184 291.227C185.636 290.576 186.266 290.25 187.073 290.25ZM187.107 291.549C186.876 291.549 186.671 291.624 186.492 291.773C186.313 291.92 186.176 292.174 186.082 292.535C185.988 292.896 185.94 293.425 185.94 294.122C185.94 295.03 186.048 295.659 186.263 296.007C186.481 296.352 186.762 296.524 187.107 296.524C187.439 296.524 187.703 296.36 187.898 296.031C188.136 295.634 188.255 294.97 188.255 294.039C188.255 293.095 188.147 292.444 187.933 292.086C187.721 291.728 187.446 291.549 187.107 291.549ZM191.644 292.745H190.311C190.346 291.97 190.589 291.362 191.038 290.919C191.491 290.473 192.07 290.25 192.776 290.25C193.213 290.25 193.597 290.343 193.929 290.528C194.264 290.711 194.531 290.976 194.729 291.324C194.931 291.669 195.032 292.021 195.032 292.379C195.032 292.805 194.91 293.264 194.666 293.756C194.425 294.247 193.982 294.828 193.338 295.499L192.532 296.349H195.091V297.613H190.115V296.959L192.337 294.693C192.874 294.15 193.23 293.714 193.406 293.385C193.585 293.053 193.675 292.753 193.675 292.486C193.675 292.21 193.582 291.982 193.396 291.803C193.214 291.62 192.978 291.529 192.688 291.529C192.396 291.529 192.151 291.638 191.956 291.856C191.761 292.075 191.657 292.371 191.644 292.745ZM197.405 292.203H196.092C196.16 291.673 196.351 291.246 196.663 290.924C197.099 290.475 197.648 290.25 198.309 290.25C198.898 290.25 199.391 290.437 199.788 290.812C200.188 291.186 200.389 291.63 200.389 292.145C200.389 292.464 200.301 292.755 200.125 293.019C199.952 293.282 199.7 293.495 199.368 293.658C199.804 293.788 200.145 294.016 200.389 294.342C200.636 294.664 200.76 295.045 200.76 295.484C200.76 296.129 200.522 296.676 200.047 297.125C199.572 297.571 198.966 297.794 198.23 297.794C197.534 297.794 196.966 297.584 196.526 297.164C196.087 296.741 195.846 296.166 195.804 295.44H197.156C197.215 295.812 197.343 296.088 197.542 296.271C197.744 296.45 197.998 296.539 198.304 296.539C198.623 296.539 198.886 296.437 199.095 296.231C199.306 296.026 199.412 295.776 199.412 295.479C199.412 295.154 199.271 294.879 198.987 294.654C198.704 294.43 198.296 294.314 197.762 294.308V293.136C198.09 293.11 198.335 293.059 198.494 292.984C198.657 292.906 198.782 292.8 198.87 292.667C198.961 292.534 199.007 292.392 199.007 292.242C199.007 292.047 198.938 291.886 198.802 291.759C198.665 291.629 198.486 291.563 198.265 291.563C198.069 291.563 197.892 291.624 197.732 291.744C197.573 291.861 197.464 292.014 197.405 292.203Z" fill="#272727"/>
<path d="M64.2031 26.0977H67.4766V37.5898H65.3047V28.1523H62.9375L64.2031 26.0977ZM73.3281 29.8008H71.1953C71.2526 28.5612 71.6406 27.5872 72.3594 26.8789C73.0833 26.1654 74.0104 25.8086 75.1406 25.8086C75.8385 25.8086 76.4531 25.957 76.9844 26.2539C77.5208 26.5456 77.9479 26.9701 78.2656 27.5273C78.5885 28.0794 78.75 28.6419 78.75 29.2148C78.75 29.8971 78.5547 30.6315 78.1641 31.418C77.7786 32.2044 77.0703 33.1341 76.0391 34.207L74.75 35.5664H78.8438V37.5898H70.8828V36.543L74.4375 32.918C75.2969 32.0482 75.8672 31.3503 76.1484 30.8242C76.4349 30.293 76.5781 29.8138 76.5781 29.3867C76.5781 28.944 76.4297 28.5794 76.1328 28.293C75.8411 28.0013 75.4635 27.8555 75 27.8555C74.5312 27.8555 74.1406 28.0299 73.8281 28.3789C73.5156 28.7279 73.349 29.2018 73.3281 29.8008ZM90.0703 25.5898H91.6484L82.5391 38.3711H80.9609L88.75 27.3945C88.2812 27.4727 87.8411 27.5326 87.4297 27.5742C87.0182 27.6107 86.638 27.6289 86.2891 27.6289C85.9297 27.6289 85.5495 27.6107 85.1484 27.5742C85.263 27.9388 85.3203 28.2695 85.3203 28.5664C85.3203 29.3268 85.0547 29.9727 84.5234 30.5039C83.9974 31.0352 83.3542 31.3008 82.5938 31.3008C81.8281 31.3008 81.1771 31.0352 80.6406 30.5039C80.1042 29.9727 79.8359 29.3294 79.8359 28.5742C79.8359 28.0846 79.9557 27.6315 80.1953 27.2148C80.4349 26.793 80.7708 26.4544 81.2031 26.1992C81.6406 25.9388 82.0729 25.8086 82.5 25.8086C82.8229 25.8086 83.2682 25.8711 83.8359 25.9961C84.8411 26.2148 85.7266 26.3242 86.4922 26.3242C87.1849 26.3242 87.8281 26.2643 88.4219 26.1445C89.0208 26.0195 89.5703 25.8346 90.0703 25.5898ZM82.5781 27.2383C82.2135 27.2383 81.901 27.3685 81.6406 27.6289C81.3854 27.8841 81.2578 28.1914 81.2578 28.5508C81.2578 28.9154 81.3854 29.2279 81.6406 29.4883C81.901 29.7435 82.2135 29.8711 82.5781 29.8711C82.9427 29.8711 83.2526 29.7435 83.5078 29.4883C83.7682 29.2279 83.8984 28.9154 83.8984 28.5508C83.8984 28.1862 83.7682 27.8763 83.5078 27.6211C83.2526 27.3659 82.9427 27.2383 82.5781 27.2383ZM90.1953 32.4102C90.9505 32.4102 91.5964 32.6784 92.1328 33.2148C92.6693 33.7513 92.9375 34.3997 92.9375 35.1602C92.9375 35.9154 92.6693 36.5612 92.1328 37.0977C91.5964 37.6341 90.9505 37.9023 90.1953 37.9023C89.4349 37.9023 88.7865 37.6341 88.25 37.0977C87.7188 36.5612 87.4531 35.9154 87.4531 35.1602C87.4531 34.3997 87.7188 33.7513 88.25 33.2148C88.7865 32.6784 89.4349 32.4102 90.1953 32.4102ZM90.1875 33.8242C89.8177 33.8242 89.5026 33.9544 89.2422 34.2148C88.987 34.4753 88.8594 34.7878 88.8594 35.1523C88.8594 35.5169 88.987 35.8294 89.2422 36.0898C89.5026 36.3503 89.8177 36.4805 90.1875 36.4805C90.5521 36.4805 90.862 36.3503 91.1172 36.0898C91.3776 35.8294 91.5078 35.5169 91.5078 35.1523C91.5078 34.7878 91.3776 34.4753 91.1172 34.2148C90.862 33.9544 90.5521 33.8242 90.1875 33.8242ZM98.9141 26.0977H101.086V37.5898H98.9141V26.0977ZM103.32 29.0898H105.445V29.957C105.93 29.5508 106.367 29.2695 106.758 29.1133C107.154 28.9518 107.557 28.8711 107.969 28.8711C108.812 28.8711 109.529 29.1654 110.117 29.7539C110.612 30.2539 110.859 30.9935 110.859 31.9727V37.5898H108.75V33.8633C108.75 32.8477 108.703 32.1732 108.609 31.8398C108.521 31.5065 108.362 31.2539 108.133 31.082C107.909 30.9049 107.63 30.8164 107.297 30.8164C106.865 30.8164 106.492 30.9622 106.18 31.2539C105.872 31.5404 105.659 31.9388 105.539 32.4492C105.477 32.7148 105.445 33.2904 105.445 34.1758V37.5898H103.32V29.0898ZM121.25 30.8086L119.477 31.7852C119.143 31.4362 118.812 31.194 118.484 31.0586C118.161 30.9232 117.781 30.8555 117.344 30.8555C116.547 30.8555 115.901 31.0951 115.406 31.5742C114.917 32.0482 114.672 32.6576 114.672 33.4023C114.672 34.1263 114.909 34.7174 115.383 35.1758C115.857 35.6341 116.479 35.8633 117.25 35.8633C118.203 35.8633 118.945 35.5378 119.477 34.8867L121.156 36.0352C120.245 37.2174 118.958 37.8086 117.297 37.8086C115.802 37.8086 114.63 37.3659 113.781 36.4805C112.938 35.5951 112.516 34.5586 112.516 33.3711C112.516 32.5482 112.721 31.7904 113.133 31.0977C113.544 30.4049 114.117 29.8607 114.852 29.4648C115.591 29.069 116.417 28.8711 117.328 28.8711C118.172 28.8711 118.93 29.0404 119.602 29.3789C120.273 29.7122 120.823 30.1888 121.25 30.8086ZM122.68 29.0898H124.508V30.1602C124.706 29.7383 124.969 29.418 125.297 29.1992C125.625 28.9805 125.984 28.8711 126.375 28.8711C126.651 28.8711 126.94 28.944 127.242 29.0898L126.578 30.9258C126.328 30.8008 126.122 30.7383 125.961 30.7383C125.633 30.7383 125.354 30.9414 125.125 31.3477C124.901 31.7539 124.789 32.5508 124.789 33.7383L124.797 34.1523V37.5898H122.68V29.0898ZM136.82 33.957H129.969C130.068 34.5612 130.331 35.043 130.758 35.4023C131.19 35.7565 131.74 35.9336 132.406 35.9336C133.203 35.9336 133.888 35.6549 134.461 35.0977L136.258 35.9414C135.81 36.5768 135.273 37.0482 134.648 37.3555C134.023 37.6576 133.281 37.8086 132.422 37.8086C131.089 37.8086 130.003 37.3893 129.164 36.5508C128.326 35.707 127.906 34.6523 127.906 33.3867C127.906 32.0898 128.323 31.0143 129.156 30.1602C129.995 29.3008 131.044 28.8711 132.305 28.8711C133.643 28.8711 134.732 29.3008 135.57 30.1602C136.409 31.0143 136.828 32.1445 136.828 33.5508L136.82 33.957ZM134.68 32.2773C134.539 31.8034 134.26 31.418 133.844 31.1211C133.432 30.8242 132.953 30.6758 132.406 30.6758C131.812 30.6758 131.292 30.8424 130.844 31.1758C130.562 31.3841 130.302 31.7513 130.062 32.2773H134.68ZM138.539 29.0898H140.68V30.0664C141.044 29.6654 141.448 29.3659 141.891 29.168C142.339 28.9701 142.826 28.8711 143.352 28.8711C143.883 28.8711 144.362 29.0013 144.789 29.2617C145.216 29.5221 145.56 29.9023 145.82 30.4023C146.159 29.9023 146.573 29.5221 147.062 29.2617C147.557 29.0013 148.096 28.8711 148.68 28.8711C149.284 28.8711 149.815 29.0117 150.273 29.293C150.732 29.5742 151.06 29.9414 151.258 30.3945C151.461 30.8477 151.562 31.5846 151.562 32.6055V37.5898H149.414V33.2773C149.414 32.3138 149.294 31.6628 149.055 31.3242C148.815 30.9805 148.456 30.8086 147.977 30.8086C147.612 30.8086 147.284 30.9128 146.992 31.1211C146.706 31.3294 146.492 31.6185 146.352 31.9883C146.211 32.3529 146.141 32.9414 146.141 33.7539V37.5898H143.992V33.4727C143.992 32.7122 143.935 32.1628 143.82 31.8242C143.711 31.4805 143.544 31.2253 143.32 31.0586C143.096 30.8919 142.826 30.8086 142.508 30.8086C142.154 30.8086 141.831 30.9154 141.539 31.1289C141.253 31.3372 141.036 31.6315 140.891 32.0117C140.75 32.3919 140.68 32.9909 140.68 33.8086V37.5898H138.539V29.0898ZM162.117 33.957H155.266C155.365 34.5612 155.628 35.043 156.055 35.4023C156.487 35.7565 157.036 35.9336 157.703 35.9336C158.5 35.9336 159.185 35.6549 159.758 35.0977L161.555 35.9414C161.107 36.5768 160.57 37.0482 159.945 37.3555C159.32 37.6576 158.578 37.8086 157.719 37.8086C156.385 37.8086 155.299 37.3893 154.461 36.5508C153.622 35.707 153.203 34.6523 153.203 33.3867C153.203 32.0898 153.62 31.0143 154.453 30.1602C155.292 29.3008 156.341 28.8711 157.602 28.8711C158.94 28.8711 160.029 29.3008 160.867 30.1602C161.706 31.0143 162.125 32.1445 162.125 33.5508L162.117 33.957ZM159.977 32.2773C159.836 31.8034 159.557 31.418 159.141 31.1211C158.729 30.8242 158.25 30.6758 157.703 30.6758C157.109 30.6758 156.589 30.8424 156.141 31.1758C155.859 31.3841 155.599 31.7513 155.359 32.2773H159.977ZM163.852 29.0898H165.977V29.957C166.461 29.5508 166.898 29.2695 167.289 29.1133C167.685 28.9518 168.089 28.8711 168.5 28.8711C169.344 28.8711 170.06 29.1654 170.648 29.7539C171.143 30.2539 171.391 30.9935 171.391 31.9727V37.5898H169.281V33.8633C169.281 32.8477 169.234 32.1732 169.141 31.8398C169.052 31.5065 168.893 31.2539 168.664 31.082C168.44 30.9049 168.161 30.8164 167.828 30.8164C167.396 30.8164 167.023 30.9622 166.711 31.2539C166.404 31.5404 166.19 31.9388 166.07 32.4492C166.008 32.7148 165.977 33.2904 165.977 34.1758V37.5898H163.852V29.0898ZM173.719 25.957H175.844V29.0898H177.109V30.9258H175.844V37.5898H173.719V30.9258H172.625V29.0898H173.719V25.957ZM182.25 28.8711C183.052 28.8711 183.805 29.0716 184.508 29.4727C185.216 29.8737 185.768 30.418 186.164 31.1055C186.56 31.793 186.758 32.5352 186.758 33.332C186.758 34.1341 186.557 34.8841 186.156 35.582C185.76 36.2799 185.219 36.8268 184.531 37.2227C183.844 37.6133 183.086 37.8086 182.258 37.8086C181.039 37.8086 179.997 37.3763 179.133 36.5117C178.273 35.6419 177.844 34.5872 177.844 33.3477C177.844 32.0195 178.331 30.9128 179.305 30.0273C180.159 29.2565 181.141 28.8711 182.25 28.8711ZM182.281 30.8789C181.62 30.8789 181.068 31.1107 180.625 31.5742C180.188 32.0326 179.969 32.6211 179.969 33.3398C179.969 34.0794 180.185 34.6784 180.617 35.1367C181.055 35.5951 181.607 35.8242 182.273 35.8242C182.94 35.8242 183.495 35.5924 183.938 35.1289C184.38 34.6654 184.602 34.069 184.602 33.3398C184.602 32.6107 184.383 32.0195 183.945 31.5664C183.513 31.1081 182.958 30.8789 182.281 30.8789Z" fill="#272727"/>
</svg>
