<svg width="59" height="16" viewBox="0 0 59 16" fill="none" xmlns="http://www.w3.org/2000/svg">
<path opacity="0.4" d="M4.3177 15.844H0.285703V0.147999H4.3177V1.444H1.8337V14.548H4.3177V15.844ZM12.2823 11.11C12.1743 11.53 12.0363 11.986 11.8683 12.478C11.7003 12.97 11.5143 13.456 11.3103 13.936C11.1183 14.428 10.9263 14.89 10.7343 15.322H9.54628C9.63028 14.986 9.71428 14.626 9.79828 14.242C9.89428 13.858 9.98428 13.468 10.0683 13.072C10.1523 12.688 10.2243 12.31 10.2843 11.938C10.3563 11.566 10.4163 11.224 10.4643 10.912H12.1563L12.2823 11.11ZM10.2483 4.324C10.2483 3.868 10.3563 3.55 10.5723 3.37C10.7883 3.19 11.0463 3.1 11.3463 3.1C11.6583 3.1 11.9223 3.19 12.1383 3.37C12.3663 3.55 12.4803 3.868 12.4803 4.324C12.4803 4.756 12.3663 5.068 12.1383 5.26C11.9223 5.452 11.6583 5.548 11.3463 5.548C11.0463 5.548 10.7883 5.452 10.5723 5.26C10.3563 5.068 10.2483 4.756 10.2483 4.324ZM18.3926 13.2285C16.1426 13.2285 14.666 12.1562 14.5078 10.4863L15.8086 10.2051C15.8965 11.5234 16.8809 12.3145 18.4102 12.3145C19.8691 12.3145 20.7656 11.6816 20.7656 10.5918C20.7656 9.7832 20.3086 9.23828 19.377 9.08008L17.4961 8.74609C15.6152 8.41211 14.9121 7.375 14.9121 6.23242C14.9121 4.59766 16.1602 3.63086 18.3223 3.63086C20.502 3.63086 21.873 4.65039 22.0488 6.16211L20.748 6.39062C20.6426 5.24805 19.7988 4.54492 18.3398 4.54492C17.0566 4.54492 16.2832 5.14258 16.2832 6.0918C16.2832 6.74219 16.7051 7.35742 17.9004 7.58594L19.6055 7.90234C21.293 8.21875 22.1367 9.11523 22.1367 10.3809C22.1367 12.1738 20.7129 13.2285 18.3926 13.2285ZM28.377 13.2285C25.6875 13.2285 23.8945 11.3652 23.8945 8.42969C23.8945 5.47656 25.6875 3.63086 28.377 3.63086C31.0664 3.63086 32.8418 5.47656 32.8418 8.42969C32.8418 11.3828 31.0664 13.2285 28.377 13.2285ZM25.3359 8.42969C25.3359 10.7852 26.4961 12.1738 28.3594 12.1738C30.2227 12.1738 31.4004 10.75 31.4004 8.42969C31.4004 6.0918 30.2402 4.68555 28.377 4.68555C26.5137 4.68555 25.3359 6.0918 25.3359 8.42969ZM38.8008 13.2285C36.1113 13.2285 34.3184 11.3652 34.3184 8.42969C34.3184 5.47656 36.1113 3.63086 38.8008 3.63086C41.4902 3.63086 43.2656 5.47656 43.2656 8.42969C43.2656 11.3828 41.4902 13.2285 38.8008 13.2285ZM35.7598 8.42969C35.7598 10.7852 36.9199 12.1738 38.7832 12.1738C40.6465 12.1738 41.8242 10.75 41.8242 8.42969C41.8242 6.0918 40.6641 4.68555 38.8008 4.68555C36.9375 4.68555 35.7598 6.0918 35.7598 8.42969ZM45.375 13V3.85938H46.6934L46.7812 6.03906C47.168 4.50977 48.3809 3.63086 49.8926 3.63086C51.791 3.63086 53.0215 4.89648 53.0215 6.84766V13H51.6152V7.09375C51.6152 5.58203 50.7363 4.68555 49.3301 4.68555C47.7305 4.68555 46.7812 5.86328 46.7812 7.86719V13H45.375ZM54.5262 14.548H57.0102V1.444H54.5262V0.147999H58.5582V15.844H54.5262V14.548Z" fill="#0C1011"/>
</svg>
