<svg width="59" height="16" viewBox="0 0 59 16" fill="none" xmlns="http://www.w3.org/2000/svg">
<path opacity="0.4" d="M54.6823 15.844H58.7143V0.147999H54.6823V1.444H57.1663V14.548H54.6823V15.844ZM46.7177 11.11C46.8257 11.53 46.9637 11.986 47.1317 12.478C47.2997 12.97 47.4857 13.456 47.6897 13.936C47.8817 14.428 48.0737 14.89 48.2657 15.322H49.4537C49.3697 14.986 49.2857 14.626 49.2017 14.242C49.1057 13.858 49.0157 13.468 48.9317 13.072C48.8477 12.688 48.7757 12.31 48.7157 11.938C48.6437 11.566 48.5837 11.224 48.5357 10.912H46.8437L46.7177 11.11ZM48.7517 4.324C48.7517 3.868 48.6437 3.55 48.4277 3.37C48.2117 3.19 47.9537 3.1 47.6537 3.1C47.3417 3.1 47.0777 3.19 46.8617 3.37C46.6337 3.55 46.5197 3.868 46.5197 4.324C46.5197 4.756 46.6337 5.068 46.8617 5.26C47.0777 5.452 47.3417 5.548 47.6537 5.548C47.9537 5.548 48.2117 5.452 48.4277 5.26C48.6437 5.068 48.7517 4.756 48.7517 4.324ZM40.6074 13.2285C42.8574 13.2285 44.334 12.1562 44.4922 10.4863L43.1914 10.2051C43.1035 11.5234 42.1191 12.3145 40.5898 12.3145C39.1309 12.3145 38.2344 11.6816 38.2344 10.5918C38.2344 9.7832 38.6914 9.23828 39.623 9.08008L41.5039 8.74609C43.3848 8.41211 44.0879 7.375 44.0879 6.23242C44.0879 4.59766 42.8398 3.63086 40.6777 3.63086C38.498 3.63086 37.127 4.65039 36.9512 6.16211L38.252 6.39062C38.3574 5.24805 39.2012 4.54492 40.6602 4.54492C41.9434 4.54492 42.7168 5.14258 42.7168 6.0918C42.7168 6.74219 42.2949 7.35742 41.0996 7.58594L39.3945 7.90234C37.707 8.21875 36.8633 9.11523 36.8633 10.3809C36.8633 12.1738 38.2871 13.2285 40.6074 13.2285ZM30.623 13.2285C33.3125 13.2285 35.1055 11.3652 35.1055 8.42969C35.1055 5.47656 33.3125 3.63086 30.623 3.63086C27.9336 3.63086 26.1582 5.47656 26.1582 8.42969C26.1582 11.3828 27.9336 13.2285 30.623 13.2285ZM33.6641 8.42969C33.6641 10.7852 32.5039 12.1738 30.6406 12.1738C28.7773 12.1738 27.5996 10.75 27.5996 8.42969C27.5996 6.0918 28.7598 4.68555 30.623 4.68555C32.4863 4.68555 33.6641 6.0918 33.6641 8.42969ZM20.1992 13.2285C22.8887 13.2285 24.6816 11.3652 24.6816 8.42969C24.6816 5.47656 22.8887 3.63086 20.1992 3.63086C17.5098 3.63086 15.7344 5.47656 15.7344 8.42969C15.7344 11.3828 17.5098 13.2285 20.1992 13.2285ZM23.2402 8.42969C23.2402 10.7852 22.0801 12.1738 20.2168 12.1738C18.3535 12.1738 17.1758 10.75 17.1758 8.42969C17.1758 6.0918 18.3359 4.68555 20.1992 4.68555C22.0625 4.68555 23.2402 6.0918 23.2402 8.42969ZM13.625 13V3.85938H12.3066L12.2188 6.03906C11.832 4.50977 10.6191 3.63086 9.10742 3.63086C7.20898 3.63086 5.97852 4.89648 5.97852 6.84766V13H7.38477V7.09375C7.38477 5.58203 8.26367 4.68555 9.66992 4.68555C11.2695 4.68555 12.2188 5.86328 12.2188 7.86719V13H13.625ZM4.47383 14.548H1.98983V1.444H4.47383V0.147999H0.441828V15.844H4.47383V14.548Z" fill="#0C1011"/>
</svg>
