<svg width="16" height="59" viewBox="0 0 16 59" fill="none" xmlns="http://www.w3.org/2000/svg">
<path opacity="0.4" d="M0.156 54.6823V58.7143H15.852V54.6823H14.556V57.1663H1.452V54.6823H0.156ZM4.89 46.7177C4.47 46.8257 4.014 46.9637 3.522 47.1317C3.03 47.2997 2.544 47.4857 2.064 47.6897C1.572 47.8817 1.11 48.0737 0.678 48.2657V49.4537C1.014 49.3697 1.374 49.2857 1.758 49.2017C2.142 49.1057 2.532 49.0157 2.928 48.9317C3.312 48.8477 3.69 48.7757 4.062 48.7157C4.434 48.6437 4.776 48.5837 5.088 48.5357V46.8437L4.89 46.7177ZM11.676 48.7517C12.132 48.7517 12.45 48.6437 12.63 48.4277C12.81 48.2117 12.9 47.9537 12.9 47.6537C12.9 47.3417 12.81 47.0777 12.63 46.8617C12.45 46.6337 12.132 46.5197 11.676 46.5197C11.244 46.5197 10.932 46.6337 10.74 46.8617C10.548 47.0777 10.452 47.3417 10.452 47.6537C10.452 47.9537 10.548 48.2117 10.74 48.4277C10.932 48.6437 11.244 48.7517 11.676 48.7517ZM2.77148 40.6074C2.77148 42.8574 3.84375 44.334 5.51367 44.4922L5.79492 43.1914C4.47656 43.1035 3.68555 42.1191 3.68555 40.5898C3.68555 39.1309 4.31836 38.2344 5.4082 38.2344C6.2168 38.2344 6.76172 38.6914 6.91992 39.623L7.25391 41.5039C7.58789 43.3848 8.625 44.0879 9.76758 44.0879C11.4023 44.0879 12.3691 42.8398 12.3691 40.6777C12.3691 38.498 11.3496 37.127 9.83789 36.9512L9.60937 38.252C10.752 38.3574 11.4551 39.2012 11.4551 40.6602C11.4551 41.9434 10.8574 42.7168 9.9082 42.7168C9.25781 42.7168 8.64258 42.2949 8.41406 41.0996L8.09766 39.3945C7.78125 37.707 6.88477 36.8633 5.61914 36.8633C3.82617 36.8633 2.77148 38.2871 2.77148 40.6074ZM2.77148 30.623C2.77148 33.3125 4.63477 35.1055 7.57031 35.1055C10.5234 35.1055 12.3691 33.3125 12.3691 30.623C12.3691 27.9336 10.5234 26.1582 7.57031 26.1582C4.61719 26.1582 2.77148 27.9336 2.77148 30.623ZM7.57031 33.6641C5.21484 33.6641 3.82617 32.5039 3.82617 30.6406C3.82617 28.7773 5.25 27.5996 7.57031 27.5996C9.9082 27.5996 11.3145 28.7598 11.3145 30.623C11.3145 32.4863 9.9082 33.6641 7.57031 33.6641ZM2.77148 20.1992C2.77148 22.8887 4.63477 24.6816 7.57031 24.6816C10.5234 24.6816 12.3691 22.8887 12.3691 20.1992C12.3691 17.5098 10.5234 15.7344 7.57031 15.7344C4.61719 15.7344 2.77148 17.5098 2.77148 20.1992ZM7.57031 23.2402C5.21484 23.2402 3.82617 22.0801 3.82617 20.2168C3.82617 18.3535 5.25 17.1758 7.57031 17.1758C9.9082 17.1758 11.3145 18.3359 11.3145 20.1992C11.3145 22.0625 9.9082 23.2402 7.57031 23.2402ZM3 13.625H12.1406V12.3066L9.96094 12.2188C11.4902 11.832 12.3691 10.6191 12.3691 9.10742C12.3691 7.20898 11.1035 5.97852 9.15234 5.97852H3V7.38477H8.90625C10.418 7.38477 11.3145 8.26367 11.3145 9.66992C11.3145 11.2695 10.1367 12.2188 8.13281 12.2188H3V13.625ZM1.452 4.47383V1.98983H14.556V4.47383H15.852V0.441828H0.156V4.47383H1.452Z" fill="#0C1011"/>
</svg>
