<svg width="280" height="280" viewBox="0 0 280 280" fill="none" xmlns="http://www.w3.org/2000/svg">
<path d="M155.088 31.5816L164.631 41.125L38.7126 167.043C28.7959 176.96 23.3359 190.143 23.3359 204.167C23.3359 218.19 28.7959 231.373 38.7126 241.302C48.6409 251.207 61.8243 256.667 75.8359 256.667C89.8476 256.667 103.031 251.207 112.959 241.29L238.878 115.372L248.421 124.915L264.918 108.418L171.584 15.085L155.088 31.5816ZM192.211 129.045L164.176 100.998L147.679 117.495L175.714 145.542L159.218 162.05L147.668 150.5L131.171 166.997L142.721 178.547L126.213 195.055L98.1776 167.008L81.6693 183.493L109.704 211.54L96.4509 224.793C85.4259 235.807 66.2343 235.807 55.2093 224.793C49.7026 219.275 46.6693 211.96 46.6693 204.167C46.6693 196.373 49.7026 189.058 55.2093 183.54L181.128 57.6216L222.369 98.8633L192.211 129.045Z" fill="#181D1F"/>
</svg>
