<svg width="280" height="280" viewBox="0 0 280 280" fill="none" xmlns="http://www.w3.org/2000/svg">
<path d="M155.088 31.5826L164.631 41.1259L38.7126 167.044C28.7959 176.961 23.3359 190.144 23.3359 204.168C23.3359 218.191 28.7959 231.374 38.7126 241.303C48.6409 251.208 61.8243 256.668 75.8359 256.668C89.8476 256.668 103.031 251.208 112.959 241.291L238.878 115.373L248.421 124.916L264.918 108.419L171.584 15.0859L155.088 31.5826ZM192.211 129.046L164.176 100.999L147.679 117.496L175.714 145.543L159.218 162.051L147.668 150.501L131.171 166.998L142.721 178.548L126.213 195.056L98.1776 167.009L81.6693 183.494L109.704 211.541L96.4509 224.794C85.4259 235.808 66.2343 235.808 55.2093 224.794C49.7026 219.276 46.6693 211.961 46.6693 204.168C46.6693 196.374 49.7026 189.059 55.2093 183.541L181.128 57.6226L222.369 98.8643L192.211 129.046Z" fill="#FF813A"/>
</svg>
